SplineFontDB: 3.2
FontName: ChromFixed
FullName: Chrom Fixed
FamilyName: Chrom Fixed
Weight: Regular
Copyright:                              h            
Version: 001.001
ItalicAngle: 0
UnderlinePosition: -100
UnderlineWidth: 50
Ascent: 800
Descent: 200
InvalidEm: 0
sfntRevision: 0x00000000
LayerCount: 2
Layer: 0 0 "Back" 1
Layer: 1 0 "Fore" 0
StyleMap: 0x0000
FSType: 0
OS2Version: 0
OS2_WeightWidthSlopeOnly: 0
OS2_UseTypoMetrics: 0
CreationTime: 0
ModificationTime: 1757284879
OS2TypoAscent: 0
OS2TypoAOffset: 0
OS2TypoDescent: 0
OS2TypoDOffset: 0
OS2TypoLinegap: 0
OS2WinAscent: 0
OS2WinAOffset: 0
OS2WinDescent: 0
OS2WinDOffset: 0
HheadAscent: 0
HheadAOffset: 0
HheadDescent: 0
HheadDOffset: 0
DEI: 91125
Encoding: AdobeStandard
UnicodeInterp: none
NameList: AGL For New Fonts
DisplaySize: -48
AntiAlias: 1
FitToEm: 0
BeginPrivate: 5
BlueValues 31 [-18 0 426 441 562 580 610 622]
OtherBlues 11 [-157 -157]
BlueScale 1 0
StdHW 4 [55]
StdVW 4 [55]
EndPrivate
BeginChars: 350 243

StartChar: A
Encoding: 65 65 0
Width: 600
Flags: HMW
HStem: 0 54<3 64 3 64 122 210 393 487 544 597> 166 54<185 423 185 443 165 423> 508 54<104 242 104 341>
VStem: 3 207<0 54 0 54> 242 99<508 562> 393 204<0 54 0 54>
LayerCount: 2
Fore
SplineSet
185 220 m 1
 423 220 l 1
 300 514 l 1
 185 220 l 1
3 0 m 1
 3 54 l 1
 64 54 l 1
 242 508 l 1
 104 508 l 1
 104 562 l 1
 341 562 l 1
 544 54 l 1
 597 54 l 1
 597 0 l 1
 393 0 l 1
 393 54 l 1
 487 54 l 1
 443 166 l 1
 165 166 l 1
 122 54 l 1
 210 54 l 1
 210 0 l 1
 3 0 l 1
EndSplineSet
EndChar

StartChar: AE
Encoding: 225 198 1
Width: 600
Flags: HMW
HStem: 0 55<26 81 26 81 138 224 367 519> 166 55<202 312 202 312 182 312> 254 55<367 448 367 448> 508 54<166 256 166 574 367 367 367 519>
VStem: 81 57<55 55> 256 56<508 508> 312 55<55 166 166 166 221 254 309 507 507 507> 448 54<198 254 254 254 309 364 198 364> 519 55<55 154 0 154 406 508 508 508>
LayerCount: 2
Fore
SplineSet
202 221 m 1
 312 221 l 1
 312 507 l 1
 202 221 l 1
26 0 m 1
 26 55 l 1
 81 55 l 1
 256 508 l 1
 166 508 l 1
 166 562 l 1
 574 562 l 1
 574 406 l 1
 519 406 l 1
 519 508 l 1
 367 508 l 1
 367 309 l 1
 448 309 l 1
 448 364 l 1
 502 364 l 1
 502 198 l 1
 448 198 l 1
 448 254 l 1
 367 254 l 1
 367 55 l 1
 519 55 l 1
 519 154 l 1
 574 154 l 1
 574 0 l 1
 312 0 l 1
 312 166 l 1
 182 166 l 1
 138 55 l 1
 224 55 l 1
 224 0 l 1
 26 0 l 1
EndSplineSet
EndChar

StartChar: Aacute
Encoding: 256 193 2
Width: 600
Flags: HMW
HStem: 0 54<3 63 3 63 121 210 393 488 545 597> 177 54<189 419 189 441 167 419> 511 54<103 243 103 341> 773 20G<409 409>
VStem: 3 207<0 54 0 54> 393 204<0 54 0 54>
LayerCount: 2
Fore
SplineSet
162 619 m 1
 151 649 l 1
 409 793 l 1
 442 720 l 1
 162 619 l 1
189 231 m 1
 419 231 l 1
 300 526 l 1
 189 231 l 1
3 0 m 1
 3 54 l 1
 63 54 l 1
 243 511 l 1
 103 511 l 1
 103 565 l 1
 341 565 l 1
 545 54 l 1
 597 54 l 1
 597 0 l 1
 393 0 l 1
 393 54 l 1
 488 54 l 1
 441 177 l 1
 167 177 l 1
 121 54 l 1
 210 54 l 1
 210 0 l 1
 3 0 l 1
EndSplineSet
EndChar

StartChar: Acircumflex
Encoding: 257 194 3
Width: 600
Flags: HMW
HStem: 0 54<3 63 3 63 121 210 393 488 545 597> 177 54<189 419 189 441 167 419> 511 54<103 243 103 341> 720 55<299 299>
VStem: 3 207<0 54 0 54> 393 204<0 54 0 54>
LayerCount: 2
Fore
SplineSet
189 231 m 1
 419 231 l 1
 300 526 l 1
 189 231 l 1
3 0 m 1
 3 54 l 1
 63 54 l 1
 243 511 l 1
 103 511 l 1
 103 565 l 1
 341 565 l 1
 545 54 l 1
 597 54 l 1
 597 0 l 1
 393 0 l 1
 393 54 l 1
 488 54 l 1
 441 177 l 1
 167 177 l 1
 121 54 l 1
 210 54 l 1
 210 0 l 1
 3 0 l 1
153 605 m 1
 114 623 l 1
 259 775 l 1
 337 775 l 1
 481 623 l 1
 441 605 l 1
 299 720 l 1
 153 605 l 1
EndSplineSet
EndChar

StartChar: Adieresis
Encoding: 258 196 4
Width: 600
Flags: HMW
HStem: 0 54<3 63 3 63 121 210 393 488 545 597> 179 54 511 54<103 243 103 341> 644 117<186 267 186 267 186 330 330 411>
VStem: 3 207<0 54 0 54> 186 81<644 761 644 761> 330 81<644 761 644 761> 393 204<0 54 0 54>
LayerCount: 2
Fore
SplineSet
189 231 m 1
 419 231 l 1
 300 526 l 1
 189 231 l 1
3 0 m 1
 3 54 l 1
 63 54 l 1
 243 511 l 1
 103 511 l 1
 103 565 l 1
 341 565 l 1
 545 54 l 1
 597 54 l 1
 597 0 l 1
 393 0 l 1
 393 54 l 1
 488 54 l 1
 441 177 l 1
 167 177 l 1
 121 54 l 1
 210 54 l 1
 210 0 l 1
 3 0 l 1
186 644 m 1
 186 761 l 1
 267 761 l 1
 267 644 l 1
 186 644 l 1
330 644 m 1
 330 761 l 1
 411 761 l 1
 411 644 l 1
 330 644 l 1
EndSplineSet
EndChar

StartChar: Agrave
Encoding: 259 192 5
Width: 600
Flags: HMW
HStem: 0 54<3 63 3 63 121 210 393 488 545 597> 177 54<189 419 189 441 167 419> 511 54<103 243 103 341>
VStem: 3 207<0 54 0 54> 393 204<0 54 0 54>
LayerCount: 2
Fore
SplineSet
152 720 m 1
 185 793 l 1
 443 649 l 1
 432 619 l 1
 152 720 l 1
189 231 m 1
 419 231 l 1
 300 526 l 1
 189 231 l 1
3 0 m 1
 3 54 l 1
 63 54 l 1
 243 511 l 1
 103 511 l 1
 103 565 l 1
 341 565 l 1
 545 54 l 1
 597 54 l 1
 597 0 l 1
 393 0 l 1
 393 54 l 1
 488 54 l 1
 441 177 l 1
 167 177 l 1
 121 54 l 1
 210 54 l 1
 210 0 l 1
 3 0 l 1
EndSplineSet
EndChar

StartChar: Aring
Encoding: 260 197 6
Width: 600
Flags: HMW
HStem: 0 54<3 63 3 63 121 210 393 488 545 597> 177 54<189 419 189 441 167 419> 511 54<103 243 103 341> 602 50<282 304 282 319.5> 732 51<282 304>
VStem: 3 207<0 54 0 54> 202 51<681 703 681 716.5> 333 53<681 703> 393 204<0 54 0 54>
LayerCount: 2
Fore
SplineSet
189 231 m 1
 419 231 l 1
 300 526 l 1
 189 231 l 1
3 0 m 1
 3 54 l 1
 63 54 l 1
 243 511 l 1
 103 511 l 1
 103 565 l 1
 341 565 l 1
 545 54 l 1
 597 54 l 1
 597 0 l 1
 393 0 l 1
 393 54 l 1
 488 54 l 1
 441 177 l 1
 167 177 l 1
 121 54 l 1
 210 54 l 1
 210 0 l 1
 3 0 l 1
253 692 m 0
 253 670 271 652 293 652 c 0
 315 652 333 670 333 692 c 0
 333 714 315 732 293 732 c 0
 271 732 253 714 253 692 c 0
202 691 m 0
 202 742 243 783 294 783 c 0
 345 783 386 742 386 691 c 0
 386 640 345 602 294 602 c 0
 243 602 202 640 202 691 c 0
EndSplineSet
EndChar

StartChar: Atilde
Encoding: 261 195 7
Width: 600
Flags: HMW
HStem: 0 54<3 63 3 63 121 210 393 488 545 597> 173 54 502 54 638 49<366.5 396 366 420>
VStem: 3 207<0 54 0 54> 393 204<0 54 0 54>
LayerCount: 2
Fore
SplineSet
189 231 m 1
 419 231 l 1
 300 526 l 1
 189 231 l 1
3 0 m 1
 3 54 l 1
 63 54 l 1
 243 511 l 1
 103 511 l 1
 103 565 l 1
 341 565 l 1
 545 54 l 1
 597 54 l 1
 597 0 l 1
 393 0 l 1
 393 54 l 1
 488 54 l 1
 441 177 l 1
 167 177 l 1
 121 54 l 1
 210 54 l 1
 210 0 l 1
 3 0 l 1
157 643 m 1
 107 653 l 1
 126 706 174 752 231 752 c 0
 271 752 296 737 316 722 c 0
 338 705 355 687 377 687 c 0
 415 687 440 724 448 748 c 1
 499 739 l 1
 488 701 454 638 386 638 c 0
 347 638 319 657 294 675 c 0
 273 690 255 703 233 703 c 0
 184 703 165 662 157 643 c 1
EndSplineSet
EndChar

StartChar: B
Encoding: 66 66 8
Width: 600
Flags: HMW
HStem: 0 54<42 119 42 119 174 339> 253 55 508 54<42 119 42 313 174 250.5>
VStem: 119 55<54 250 305 508> 458 62<385 463.5> 497 61<108 189.5 97 192.5>
LayerCount: 2
Fore
SplineSet
174 54 m 1
 339 54 l 2
 404 54 497 66 497 150 c 0
 497 235 375 250 174 250 c 1
 174 54 l 1
174 305 m 1
 317 305 l 2
 371 305 458 323 458 412 c 0
 458 515 327 508 174 508 c 1
 174 305 l 1
42 0 m 1
 42 54 l 1
 119 54 l 1
 119 508 l 1
 42 508 l 1
 42 562 l 1
 313 562 l 2
 433 562 520 531 520 412 c 0
 520 358 483 298 430 282 c 1
 494 270 558 228 558 151 c 0
 558 43 470 0 339 0 c 2
 42 0 l 1
EndSplineSet
EndChar

StartChar: C
Encoding: 67 67 9
Width: 600
Flags: HMW
HStem: -18 54<257.5 350 257.5 355.5> 526 54<278.5 342.5 237.5 348>
VStem: 46 56<209 364.5> 485 54<347 437 437 437 519 580 347 580>
LayerCount: 2
Fore
SplineSet
519 106 m 1
 549 57 l 1
 488 12 395 -18 316 -18 c 0
 143 -18 46 123 46 288 c 0
 46 441 159 580 316 580 c 0
 369 580 432 569 485 519 c 1
 485 580 l 1
 539 580 l 1
 539 347 l 1
 485 347 l 1
 485 437 l 1
 454 487 380 526 316 526 c 0
 241 526 102 459 102 288 c 0
 102 130 199 36 316 36 c 0
 384 36 466 67 519 106 c 1
EndSplineSet
EndChar

StartChar: Ccedilla
Encoding: 262 199 10
Width: 600
Flags: HMW
HStem: -151 21G<276 307> 20 52<318 363.5> 529 51<284 342.5 235.5 354.5>
VStem: 50 57<242 383> 492 57<370 456 456 456 523 580>
LayerCount: 2
Fore
SplineSet
232 -119 m 1
 248 -82 l 1
 257 -97 273 -102 287 -102 c 0
 302 -102 316 -92 316 -71 c 0
 316 -59 304 -45 289 -45 c 0
 280 -45 271 -45 262 -49 c 1
 271 24 l 1
 123 51 50 173 50 311 c 0
 50 455 156 580 315 580 c 0
 370 580 420 573 492 523 c 1
 492 580 l 1
 549 580 l 1
 549 370 l 1
 492 370 l 1
 492 456 l 1
 447 500 387 529 322 529 c 0
 246 529 107 481 107 306 c 0
 107 158 205 72 334 72 c 0
 403 72 471 97 525 134 c 1
 549 86 l 1
 487 44 409 20 318 20 c 1
 316 -2 l 1
 344 -11 361 -40 361 -72 c 0
 361 -130 324 -151 290 -151 c 0
 262 -151 239 -127 232 -119 c 1
EndSplineSet
EndChar

StartChar: D
Encoding: 68 68 11
Width: 600
Flags: HMW
HStem: 0 55<34 111 34 111 168 264> 507 55<34 111 34 264 168 168 168 264>
VStem: 111 57<55 507> 506 59<207.5 363.5>
LayerCount: 2
Fore
SplineSet
168 55 m 1
 264 55 l 2
 416 55 506 127 506 288 c 0
 506 439 421 507 264 507 c 2
 168 507 l 1
 168 55 l 1
34 0 m 1
 34 55 l 1
 111 55 l 1
 111 507 l 1
 34 507 l 1
 34 562 l 1
 264 562 l 2
 429 562 565 494 565 288 c 0
 565 57 405 0 264 0 c 2
 34 0 l 1
EndSplineSet
EndChar

StartChar: E
Encoding: 69 69 12
Width: 600
Flags: HMW
HStem: 0 53<52 134 52 134 190 462> 253 54<190 305 190 305> 508 54<52 134 52 518 190 190 190 462>
VStem: 134 56<53 253 307 508> 305 57<171 253 253 253 307 390 171 390> 462 56<53 187 0 187 374 508 508 508>
LayerCount: 2
Fore
SplineSet
52 0 m 1
 52 53 l 1
 134 53 l 1
 134 508 l 1
 52 508 l 1
 52 562 l 1
 518 562 l 1
 518 374 l 1
 462 374 l 1
 462 508 l 1
 190 508 l 1
 190 307 l 1
 305 307 l 1
 305 390 l 1
 362 390 l 1
 362 171 l 1
 305 171 l 1
 305 253 l 1
 190 253 l 1
 190 53 l 1
 462 53 l 1
 462 187 l 1
 518 187 l 1
 518 0 l 1
 52 0 l 1
EndSplineSet
EndChar

StartChar: Eacute
Encoding: 263 201 13
Width: 600
Flags: HMW
HStem: 0 54<51 134 51 134 189 492> 255 54<189 353 189 353> 511 54<51 134 51 548 189 189 189 491> 773 20G<454 454>
VStem: 134 55<54 255 309 511> 353 57<173 255 255 255 309 392 173 392> 492 56<54 189 0 189>
LayerCount: 2
Fore
SplineSet
51 0 m 1
 51 54 l 1
 134 54 l 1
 134 511 l 1
 51 511 l 1
 51 565 l 1
 548 565 l 1
 548 376 l 1
 491 376 l 1
 491 511 l 1
 189 511 l 1
 189 309 l 1
 353 309 l 1
 353 392 l 1
 410 392 l 1
 410 173 l 1
 353 173 l 1
 353 255 l 1
 189 255 l 1
 189 54 l 1
 492 54 l 1
 492 189 l 1
 548 189 l 1
 548 0 l 1
 51 0 l 1
196 618 m 1
 183 648 l 1
 454 793 l 1
 488 719 l 1
 196 618 l 1
EndSplineSet
EndChar

StartChar: Ecircumflex
Encoding: 264 202 14
Width: 600
Flags: HMW
HStem: 0 54<51 134 51 134 189 492> 255 54<189 353 189 353> 511 54<51 134 51 548 189 189 189 491> 775 20G<273 355 355 355>
VStem: 134 55<54 255 309 511> 353 57<173 255 255 255 309 392 173 392> 492 56<54 189 0 189>
LayerCount: 2
Fore
SplineSet
51 0 m 1
 51 54 l 1
 134 54 l 1
 134 511 l 1
 51 511 l 1
 51 565 l 1
 548 565 l 1
 548 376 l 1
 491 376 l 1
 491 511 l 1
 189 511 l 1
 189 309 l 1
 353 309 l 1
 353 392 l 1
 410 392 l 1
 410 173 l 1
 353 173 l 1
 353 255 l 1
 189 255 l 1
 189 54 l 1
 492 54 l 1
 492 189 l 1
 548 189 l 1
 548 0 l 1
 51 0 l 1
162 625 m 1
 122 644 l 1
 273 795 l 1
 355 795 l 1
 506 643 l 1
 464 625 l 1
 315 740 l 1
 162 625 l 1
EndSplineSet
EndChar

StartChar: Edieresis
Encoding: 265 203 15
Width: 600
Flags: HMW
HStem: 0 54<51 134 51 134 189 492> 255 54<189 353 189 353> 511 54<51 134 51 548 189 189 189 491> 655 116<197 282 197 282 197 346 346 432>
VStem: 134 55<54 255 309 511> 197 85<655 771 655 771> 346 86<655 771 655 771> 353 57<173 255 255 255 309 392 173 392> 492 56<54 189 0 189>
LayerCount: 2
Fore
SplineSet
51 0 m 1
 51 54 l 1
 134 54 l 1
 134 511 l 1
 51 511 l 1
 51 565 l 1
 548 565 l 1
 548 376 l 1
 491 376 l 1
 491 511 l 1
 189 511 l 1
 189 309 l 1
 353 309 l 1
 353 392 l 1
 410 392 l 1
 410 173 l 1
 353 173 l 1
 353 255 l 1
 189 255 l 1
 189 54 l 1
 492 54 l 1
 492 189 l 1
 548 189 l 1
 548 0 l 1
 51 0 l 1
197 655 m 1
 197 771 l 1
 282 771 l 1
 282 655 l 1
 197 655 l 1
346 655 m 1
 346 771 l 1
 432 771 l 1
 432 655 l 1
 346 655 l 1
EndSplineSet
EndChar

StartChar: Egrave
Encoding: 266 200 16
Width: 600
Flags: HMW
HStem: 0 54<51 134 51 134 189 492> 255 54<189 353 189 353> 511 54<51 134 51 548 189 189 189 491> 773 20G<193 193>
VStem: 134 55<54 255 309 511> 353 57<173 255 255 255 309 392 173 392> 492 56<54 189 0 189>
LayerCount: 2
Fore
SplineSet
454 619 m 1
 159 720 l 1
 193 793 l 1
 465 649 l 1
 454 619 l 1
51 0 m 1
 51 54 l 1
 134 54 l 1
 134 511 l 1
 51 511 l 1
 51 565 l 1
 548 565 l 1
 548 376 l 1
 491 376 l 1
 491 511 l 1
 189 511 l 1
 189 309 l 1
 353 309 l 1
 353 392 l 1
 410 392 l 1
 410 173 l 1
 353 173 l 1
 353 255 l 1
 189 255 l 1
 189 54 l 1
 492 54 l 1
 492 189 l 1
 548 189 l 1
 548 0 l 1
 51 0 l 1
EndSplineSet
EndChar

StartChar: Eth
Encoding: 267 208 17
Width: 600
Flags: HMW
HStem: 0 54<28 109 28 109 165 277> 248 53<31 109 31 109 165 350> 508 54<28 109 28 250 165 165 165 250>
VStem: 109 56<54 248 301 508> 508 64<208.5 368.5>
LayerCount: 2
Fore
SplineSet
165 54 m 1
 277 54 l 2
 434 54 508 125 508 292 c 0
 508 445 413 508 250 508 c 2
 165 508 l 1
 165 301 l 1
 350 301 l 1
 350 248 l 1
 165 248 l 1
 165 54 l 1
28 0 m 1
 28 54 l 1
 109 54 l 1
 109 248 l 1
 31 248 l 1
 31 301 l 1
 109 301 l 1
 109 508 l 1
 28 508 l 1
 28 562 l 1
 250 562 l 2
 413 562 572 504 572 292 c 0
 572 57 438 0 277 0 c 2
 28 0 l 1
EndSplineSet
EndChar

StartChar: Euro
Encoding: 268 8364 18
Width: 600
Flags: HMW
HStem: 0 52<319.5 408.5 319.5 409.5> 199 52 307 53<25 77 3 86 25 137 147 428> 511 51<299.5 387>
VStem: 77 60<293.5 307> 538 59<371 448 448 448 513 562>
LayerCount: 2
Fore
SplineSet
3 195 m 1
 25 247 l 1
 79 247 l 1
 78 258 77 280 77 307 c 1
 3 307 l 1
 25 360 l 1
 86 360 l 1
 115 474 214 562 353 562 c 0
 430 562 485 546 538 513 c 1
 538 562 l 1
 597 562 l 1
 597 371 l 1
 538 371 l 1
 538 448 l 1
 498 487 424 511 350 511 c 0
 249 511 172 449 147 360 c 1
 448 360 l 1
 428 307 l 1
 137 307 l 1
 135 291 137 263 137 247 c 1
 409 247 l 1
 387 195 l 1
 148 195 l 1
 180 97 266 52 373 52 c 0
 444 52 515 77 571 115 c 1
 597 70 l 1
 532 27 451 0 368 0 c 0
 212 0 119 78 88 195 c 1
 3 195 l 1
EndSplineSet
EndChar

StartChar: F
Encoding: 70 70 19
Width: 600
Flags: HMW
HStem: 0 55<54 132 54 132 187 318> 258 55<187 348 187 348> 507 55<54 132 54 546 187 187 187 491>
VStem: 132 55<55 258 313 507> 348 55<175 258 258 258 313 397 175 397> 491 55<382 507 507 507>
LayerCount: 2
Fore
SplineSet
54 0 m 1
 54 55 l 1
 132 55 l 1
 132 507 l 1
 54 507 l 1
 54 562 l 1
 546 562 l 1
 546 382 l 1
 491 382 l 1
 491 507 l 1
 187 507 l 1
 187 313 l 1
 348 313 l 1
 348 397 l 1
 403 397 l 1
 403 175 l 1
 348 175 l 1
 348 258 l 1
 187 258 l 1
 187 55 l 1
 318 55 l 1
 318 0 l 1
 54 0 l 1
EndSplineSet
EndChar

StartChar: G
Encoding: 71 71 20
Width: 600
Flags: HMW
HStem: -18 55<247.5 346.5 247.5 356.5> 202 55<312 579 312 474 529 529 529 579> 525 55<251.5 335>
VStem: 34 58<216 361.5> 474 55<71 202 29 202 366 441 441 441 514 580>
LayerCount: 2
Fore
SplineSet
312 202 m 1
 312 257 l 1
 579 257 l 1
 579 202 l 1
 529 202 l 1
 529 29 l 1
 466 3 393 -18 320 -18 c 0
 116 -18 34 139 34 280 c 0
 34 443 138 580 301 580 c 0
 376 580 436 549 474 514 c 1
 474 580 l 1
 529 580 l 1
 529 366 l 1
 474 366 l 1
 474 441 l 1
 430 489 369 525 301 525 c 0
 202 525 92 455 92 279 c 0
 92 153 176 37 319 37 c 0
 374 37 441 55 474 71 c 1
 474 202 l 1
 312 202 l 1
EndSplineSet
EndChar

StartChar: Gcaron
Encoding: 269 486 21
Width: 600
Flags: HMW
HStem: -18 55<240.5 339.5 240.5 349.5> 204 55 525 55<244.5 328>
VStem: 28 58<216 361.5> 467 55<71 202 29 202 366 441 441 441 514 580>
LayerCount: 2
Fore
SplineSet
270 627 m 1
 119 786 l 1
 160 805 l 1
 312 684 l 1
 459 805 l 1
 502 787 l 1
 352 627 l 1
 270 627 l 1
305 202 m 1
 305 257 l 1
 572 257 l 1
 572 202 l 1
 522 202 l 1
 522 29 l 1
 459 3 386 -18 313 -18 c 0
 109 -18 28 139 28 280 c 0
 28 443 131 580 294 580 c 0
 369 580 429 549 467 514 c 1
 467 580 l 1
 522 580 l 1
 522 366 l 1
 467 366 l 1
 467 441 l 1
 423 489 362 525 294 525 c 0
 195 525 86 455 86 279 c 0
 86 153 169 37 312 37 c 0
 367 37 403 50 467 71 c 1
 467 202 l 1
 305 202 l 1
EndSplineSet
EndChar

StartChar: H
Encoding: 72 72 22
Width: 600
Flags: HMW
HStem: 0 55<32 109 32 109 163 252 349 437 491 568> 253 55<163 437 163 437> 507 55<32 109 32 242 163 163 163 242 359 437 491 491 491 568>
VStem: 109 54<55 253 308 507> 437 54<55 253 253 253 308 507 55 507>
LayerCount: 2
Fore
SplineSet
32 0 m 1
 32 55 l 1
 109 55 l 1
 109 507 l 1
 32 507 l 1
 32 562 l 1
 242 562 l 1
 242 507 l 1
 163 507 l 1
 163 308 l 1
 437 308 l 1
 437 507 l 1
 359 507 l 1
 359 562 l 1
 568 562 l 1
 568 507 l 1
 491 507 l 1
 491 55 l 1
 568 55 l 1
 568 0 l 1
 349 0 l 1
 349 55 l 1
 437 55 l 1
 437 253 l 1
 163 253 l 1
 163 55 l 1
 252 55 l 1
 252 0 l 1
 32 0 l 1
EndSplineSet
EndChar

StartChar: I
Encoding: 73 73 23
Width: 600
Flags: HMW
HStem: 0 55<96 271 96 271 326 504> 507 55<109 271 109 490 326 326 326 490>
VStem: 271 55<55 507 55 507>
LayerCount: 2
Fore
SplineSet
96 0 m 1
 96 55 l 1
 271 55 l 1
 271 507 l 1
 109 507 l 1
 109 562 l 1
 490 562 l 1
 490 507 l 1
 326 507 l 1
 326 55 l 1
 504 55 l 1
 504 0 l 1
 96 0 l 1
EndSplineSet
EndChar

StartChar: IJ
Encoding: 270 306 24
Width: 600
Flags: HMW
HStem: -18 56<24 97 24 97 155 230> 506 56<25 97 25 225 155 155 155 225>
VStem: 97 58<38 506 38 506> 276 55<105.5 167 167 268> 473 57<168 181 153.5 182>
LayerCount: 2
Fore
SplineSet
276 59 m 2
 276 268 l 1
 331 268 l 1
 331 167 l 2
 331 44 380 34 406 34 c 0
 476 34 473 154 473 182 c 2
 474 507 l 1
 391 507 l 1
 391 562 l 1
 575 562 l 1
 575 507 l 1
 531 507 l 1
 530 181 l 2
 530 126 529 -18 410 -18 c 0
 308 -18 277 53 276 59 c 2
24 -18 m 1
 24 38 l 1
 97 38 l 1
 97 506 l 1
 25 506 l 1
 25 562 l 1
 225 562 l 1
 225 506 l 1
 155 506 l 1
 155 38 l 1
 230 38 l 1
 230 -18 l 1
 24 -18 l 1
EndSplineSet
EndChar

StartChar: Iacute
Encoding: 271 205 25
Width: 600
Flags: HMW
HStem: 0 54<96 271 96 271 329 504> 510 54<99 271 99 499 329 329 329 499>
VStem: 271 58<54 510 54 510>
LayerCount: 2
Fore
SplineSet
96 0 m 1
 96 54 l 1
 271 54 l 1
 271 510 l 1
 99 510 l 1
 99 564 l 1
 499 564 l 1
 499 510 l 1
 329 510 l 1
 329 54 l 1
 504 54 l 1
 504 0 l 1
 96 0 l 1
180 618 m 1
 167 648 l 1
 452 793 l 1
 487 721 l 1
 180 618 l 1
EndSplineSet
EndChar

StartChar: Icircumflex
Encoding: 272 206 26
Width: 600
Flags: HMW
HStem: 0 54<96 271 96 271 329 504> 510 54<99 271 99 499 329 329 329 499>
VStem: 271 58<54 510 54 510>
LayerCount: 2
Fore
SplineSet
96 0 m 1
 96 54 l 1
 271 54 l 1
 271 510 l 1
 99 510 l 1
 99 564 l 1
 499 564 l 1
 499 510 l 1
 329 510 l 1
 329 54 l 1
 504 54 l 1
 504 0 l 1
 96 0 l 1
145 615 m 1
 101 633 l 1
 256 785 l 1
 342 785 l 1
 499 633 l 1
 455 615 l 1
 299 730 l 1
 145 615 l 1
EndSplineSet
EndChar

StartChar: Idieresis
Encoding: 273 207 27
Width: 600
Flags: HMW
HStem: 0 54<96 271 96 271 329 504> 510 54<99 271 99 499 329 329 329 499> 652 116<181 271 181 271 181 338 338 428>
VStem: 271 58<54 510 54 510>
LayerCount: 2
Fore
SplineSet
96 0 m 1
 96 54 l 1
 271 54 l 1
 271 510 l 1
 99 510 l 1
 99 564 l 1
 499 564 l 1
 499 510 l 1
 329 510 l 1
 329 54 l 1
 504 54 l 1
 504 0 l 1
 96 0 l 1
181 652 m 1
 181 768 l 1
 271 768 l 1
 271 652 l 1
 181 652 l 1
338 652 m 1
 338 768 l 1
 428 768 l 1
 428 652 l 1
 338 652 l 1
EndSplineSet
EndChar

StartChar: Idot
Encoding: 274 304 28
Width: 600
Flags: HMW
HStem: 0 54<96 271 96 271 329 504> 512 54<99 271 99 499 329 329 329 499> 632 116<257 347 257 347>
VStem: 257 90<632 748 632 748> 271 58<54 512 54 512>
LayerCount: 2
Fore
SplineSet
257 632 m 1
 257 748 l 1
 347 748 l 1
 347 632 l 1
 257 632 l 1
96 0 m 1
 96 54 l 1
 271 54 l 1
 271 512 l 1
 99 512 l 1
 99 566 l 1
 499 566 l 1
 499 512 l 1
 329 512 l 1
 329 54 l 1
 504 54 l 1
 504 0 l 1
 96 0 l 1
EndSplineSet
EndChar

StartChar: Igrave
Encoding: 275 204 29
Width: 600
Flags: HMW
HStem: 0 54<96 271 96 271 329 504> 510 54<99 271 99 499 329 329 329 499>
VStem: 0 21 271 58<54 510 54 510>
LayerCount: 2
Fore
SplineSet
142 719 m 1
 179 793 l 1
 462 648 l 1
 450 618 l 1
 142 719 l 1
96 0 m 1
 96 54 l 1
 271 54 l 1
 271 510 l 1
 99 510 l 1
 99 564 l 1
 499 564 l 1
 499 510 l 1
 329 510 l 1
 329 54 l 1
 504 54 l 1
 504 0 l 1
 96 0 l 1
EndSplineSet
EndChar

StartChar: J
Encoding: 74 74 30
Width: 600
Flags: HMW
HStem: -18 47<215.5 301 214.5 328.5> 507 55<171 369 171 556 422 422 422 556>
VStem: 44 55<105.5 167 167 268> 369 53<182 507>
LayerCount: 2
Fore
SplineSet
44 63 m 1
 44 268 l 1
 99 268 l 1
 99 167 l 2
 99 44 185 29 244 29 c 0
 358 29 369 97 369 182 c 2
 369 507 l 1
 171 507 l 1
 171 562 l 1
 556 562 l 1
 556 507 l 1
 422 507 l 1
 422 181 l 2
 422 87 407 -18 250 -18 c 0
 181 -18 105 0 44 63 c 1
EndSplineSet
EndChar

StartChar: K
Encoding: 75 75 31
Width: 600
Flags: HMW
HStem: 0 54<28 107 28 107 160 249 458 572> 507 55<28 107 28 238 160 160 160 238 339 397 464 464 464 536>
VStem: 107 53<54 218 284 507> 339 197<507 562 507 562>
LayerCount: 2
Fore
SplineSet
28 0 m 1
 28 54 l 1
 107 54 l 1
 107 507 l 1
 28 507 l 1
 28 562 l 1
 238 562 l 1
 238 507 l 1
 160 507 l 1
 160 284 l 1
 397 507 l 1
 339 507 l 1
 339 562 l 1
 536 562 l 1
 536 507 l 1
 464 507 l 1
 279 333 l 1
 350 250 413 149 458 54 c 1
 572 54 l 1
 572 0 l 1
 426 0 l 1
 383 88 333 182 242 300 c 1
 160 218 l 1
 160 54 l 1
 249 54 l 1
 249 0 l 1
 28 0 l 1
EndSplineSet
EndChar

StartChar: L
Encoding: 76 76 32
Width: 600
Flags: HMW
HStem: 0 55<46 152 46 152 207 498> 507 55<46 152 46 332 207 207 207 332>
VStem: 152 55<55 507 55 507> 498 55<55 247 0 247>
LayerCount: 2
Fore
SplineSet
46 0 m 1
 46 55 l 1
 152 55 l 1
 152 507 l 1
 46 507 l 1
 46 562 l 1
 332 562 l 1
 332 507 l 1
 207 507 l 1
 207 55 l 1
 498 55 l 1
 498 247 l 1
 553 247 l 1
 553 0 l 1
 46 0 l 1
EndSplineSet
EndChar

StartChar: Lslash
Encoding: 232 321 33
Width: 600
Flags: HMW
HStem: 0 54<46 153 46 153 209 497> 508 54<46 153 46 335 209 209 209 335>
VStem: 153 56<54 218 218 218 294 508> 497 56<54 253 0 253>
LayerCount: 2
Fore
SplineSet
46 0 m 1
 46 54 l 1
 153 54 l 1
 153 218 l 1
 69 184 l 1
 69 238 l 1
 153 272 l 1
 153 508 l 1
 46 508 l 1
 46 562 l 1
 335 562 l 1
 335 508 l 1
 209 508 l 1
 209 294 l 1
 384 365 l 1
 384 310 l 1
 209 240 l 1
 209 54 l 1
 497 54 l 1
 497 253 l 1
 553 253 l 1
 553 0 l 1
 46 0 l 1
EndSplineSet
EndChar

StartChar: M
Encoding: 77 77 34
Width: 600
Flags: HMW
HStem: 0 55<21 70 21 70 126 187 419 476 532 579> 507 55<21 70 21 170 126 126 126 134 466 466 466 476 532 532 532 578>
VStem: 70 56<55 507 55 507> 476 56<55 507 55 507>
LayerCount: 2
Fore
SplineSet
21 0 m 1
 21 55 l 1
 70 55 l 1
 70 507 l 1
 21 507 l 1
 21 562 l 1
 170 562 l 1
 303 219 l 1
 433 562 l 1
 578 562 l 1
 578 507 l 1
 532 507 l 1
 532 55 l 1
 579 55 l 1
 579 0 l 1
 419 0 l 1
 419 55 l 1
 476 55 l 1
 476 507 l 1
 466 507 l 1
 323 129 l 1
 280 129 l 1
 134 507 l 1
 126 507 l 1
 126 55 l 1
 187 55 l 1
 187 0 l 1
 21 0 l 1
EndSplineSet
EndChar

StartChar: N
Encoding: 78 78 35
Width: 600
Flags: HMW
HStem: 0 55<7 89 7 89 146 256> 507 55<7 89 7 166 338 459 515 515 515 593>
VStem: 89 57<55 484 55 507 55 507> 459 56<75 507 0 507>
LayerCount: 2
Fore
SplineSet
7 0 m 1
 7 55 l 1
 89 55 l 1
 89 507 l 1
 7 507 l 1
 7 562 l 1
 166 562 l 1
 459 75 l 1
 459 507 l 1
 338 507 l 1
 338 562 l 1
 593 562 l 1
 593 507 l 1
 515 507 l 1
 515 0 l 1
 440 0 l 1
 146 484 l 1
 146 55 l 1
 256 55 l 1
 256 0 l 1
 7 0 l 1
EndSplineSet
EndChar

StartChar: Ntilde
Encoding: 276 209 36
Width: 600
Flags: HMW
HStem: 1 52<7 89 7 89 146 256> 508 53<7 89 7 166 349 459 515 515 515 593> 637 52<380 408.5 376 433.5> 703 49<214 252>
VStem: 89 57<53 486 53 508 53 508> 459 56<73 508 1 508>
LayerCount: 2
Fore
SplineSet
161 641 m 1
 109 652 l 1
 128 706 178 752 237 752 c 0
 276 752 301 739 321 725 c 0
 347 706 363 689 389 689 c 0
 428 689 453 724 463 749 c 1
 515 740 l 1
 504 700 469 637 398 637 c 0
 362 637 336 649 312 666 c 0
 287 684 265 703 239 703 c 0
 189 703 169 661 161 641 c 1
7 1 m 1
 7 53 l 1
 89 53 l 1
 89 508 l 1
 7 508 l 1
 7 561 l 1
 166 561 l 1
 459 73 l 1
 459 508 l 1
 349 508 l 1
 349 561 l 1
 593 561 l 1
 593 508 l 1
 515 508 l 1
 515 1 l 1
 440 1 l 1
 146 486 l 1
 146 53 l 1
 256 53 l 1
 256 1 l 1
 7 1 l 1
EndSplineSet
EndChar

StartChar: O
Encoding: 79 79 37
Width: 600
Flags: HMW
HStem: -18 55<238.5 357.5 238.5 378> 525 55<220.5 373.5>
VStem: 43 55<204.5 324.5 204.5 345.5> 496 61<206 323>
LayerCount: 2
Fore
SplineSet
98 275 m 0
 98 134 180 37 297 37 c 0
 418 37 496 137 496 275 c 0
 496 371 450 525 297 525 c 0
 144 525 98 374 98 275 c 0
43 275 m 0
 43 416 121 580 298 580 c 0
 493 580 557 405 557 275 c 0
 557 108 459 -18 297 -18 c 0
 139 -18 43 111 43 275 c 0
EndSplineSet
EndChar

StartChar: OE
Encoding: 234 338 38
Width: 600
Flags: HMW
HStem: -4 54<189 313 313 313 369 524> 237 55 508 54<313 313 369 524 369 369>
VStem: 20 56<208.5 352.5> 313 56<50 254 309 508> 440 55<189 254 254 254 309 373 189 373> 524 56<50 154 -4 154 408 508 508 508>
LayerCount: 2
Fore
SplineSet
313 50 m 1
 313 508 l 1
 179 514 76 448 76 278 c 0
 76 118 179 46 313 50 c 1
369 50 m 1
 524 50 l 1
 524 154 l 1
 580 154 l 1
 580 -4 l 1
 286 -4 l 2
 92 -4 20 140 20 277 c 0
 20 428 92 562 300 562 c 2
 580 562 l 1
 580 408 l 1
 524 408 l 1
 524 508 l 1
 369 508 l 1
 369 309 l 1
 440 309 l 1
 440 373 l 1
 495 373 l 1
 495 189 l 1
 440 189 l 1
 440 254 l 1
 369 254 l 1
 369 50 l 1
EndSplineSet
EndChar

StartChar: Oacute
Encoding: 277 211 39
Width: 600
Flags: HMW
HStem: -18 53<239.5 368.5 239.5 383> 523 53<226.5 378> 773 20G<440 440>
VStem: 43 54<213.5 321.5 213.5 349> 501 56<213.5 315.5>
LayerCount: 2
Fore
SplineSet
97 277 m 0
 97 150 175 35 304 35 c 0
 433 35 501 150 501 277 c 0
 501 354 454 523 302 523 c 0
 151 523 97 366 97 277 c 0
43 279 m 0
 43 419 129 576 304 576 c 0
 508 576 557 373 557 279 c 0
 557 116 463 -18 303 -18 c 0
 147 -18 43 116 43 279 c 0
189 618 m 1
 177 648 l 1
 440 793 l 1
 473 719 l 1
 189 618 l 1
EndSplineSet
EndChar

StartChar: Ocircumflex
Encoding: 278 212 40
Width: 600
Flags: HMW
HStem: -18 53<239.5 368.5 239.5 383> 523 53<226.5 378> 625 21G<158 158 449 449>
VStem: 43 54<213.5 321.5 213.5 349> 501 56<213.5 315.5>
LayerCount: 2
Fore
SplineSet
97 277 m 0
 97 150 175 35 304 35 c 0
 433 35 501 150 501 277 c 0
 501 354 454 523 302 523 c 0
 151 523 97 366 97 277 c 0
43 279 m 0
 43 419 129 576 304 576 c 0
 508 576 557 373 557 279 c 0
 557 116 463 -18 303 -18 c 0
 147 -18 43 116 43 279 c 0
158 625 m 1
 117 642 l 1
 264 775 l 1
 344 775 l 1
 490 642 l 1
 449 625 l 1
 305 719 l 1
 158 625 l 1
EndSplineSet
EndChar

StartChar: Odieresis
Encoding: 279 214 41
Width: 600
Flags: HMW
HStem: -18 53<239.5 368.5 239.5 383> 523 53<226.5 378> 644 117<191 274 191 274 191 337 337 420>
VStem: 43 54<213.5 321.5 213.5 349> 191 83<644 761 644 761> 337 83<644 761 644 761> 501 56<213.5 315.5>
LayerCount: 2
Fore
SplineSet
97 277 m 0
 97 150 175 35 304 35 c 0
 433 35 501 150 501 277 c 0
 501 354 454 523 302 523 c 0
 151 523 97 366 97 277 c 0
43 279 m 0
 43 419 129 576 304 576 c 0
 508 576 557 373 557 279 c 0
 557 116 463 -18 303 -18 c 0
 147 -18 43 116 43 279 c 0
191 644 m 1
 191 761 l 1
 274 761 l 1
 274 644 l 1
 191 644 l 1
337 644 m 1
 337 761 l 1
 420 761 l 1
 420 644 l 1
 337 644 l 1
EndSplineSet
EndChar

StartChar: Ograve
Encoding: 280 210 42
Width: 600
Flags: HMW
HStem: -18 53<239.5 368.5 239.5 383> 523 53<226.5 378> 737 20G<189 189>
VStem: 43 54<213.5 321.5 213.5 349> 501 56<213.5 315.5>
LayerCount: 2
Fore
SplineSet
156 688 m 1
 189 757 l 1
 451 648 l 1
 440 618 l 1
 156 688 l 1
97 277 m 0
 97 150 175 35 304 35 c 0
 433 35 501 150 501 277 c 0
 501 354 454 523 302 523 c 0
 151 523 97 366 97 277 c 0
43 279 m 0
 43 419 129 576 304 576 c 0
 508 576 557 373 557 279 c 0
 557 116 463 -18 303 -18 c 0
 147 -18 43 116 43 279 c 0
EndSplineSet
EndChar

StartChar: Oslash
Encoding: 233 216 43
Width: 600
Flags: HMW
HStem: -38 21G<97 97> -12 55<280 368.5 280 383> 530 55<224 327.5> 582 20G<511 511>
VStem: 39 55<254 329.5 254 357.5> 503 57<221.5 305.5>
LayerCount: 2
Fore
SplineSet
147 120 m 1
 424 487 l 1
 394 513 354 530 301 530 c 0
 147 530 94 374 94 285 c 0
 94 223 113 164 147 120 c 1
185 82 m 1
 217 58 257 43 303 43 c 0
 434 43 503 158 503 285 c 0
 503 326 495 392 461 445 c 1
 185 82 l 1
54 -6 m 1
 112 74 l 1
 65 128 39 204 39 287 c 0
 39 428 126 585 303 585 c 0
 370 585 420 563 458 531 c 1
 511 602 l 1
 554 569 l 1
 496 491 l 1
 545 425 560 339 560 287 c 0
 560 123 464 -12 302 -12 c 0
 244 -12 193 6 152 37 c 1
 97 -38 l 1
 54 -6 l 1
EndSplineSet
EndChar

StartChar: Otilde
Encoding: 281 213 44
Width: 600
Flags: HMW
HStem: -18 53<239.5 368.5 239.5 383> 523 53<226.5 378> 641 49<377.5 408 377 430> 703 49<218.5 258>
VStem: 43 54<213.5 321.5 213.5 349> 501 56<213.5 315.5>
LayerCount: 2
Fore
SplineSet
97 277 m 0
 97 150 175 35 304 35 c 0
 433 35 501 150 501 277 c 0
 501 354 454 523 302 523 c 0
 151 523 97 366 97 277 c 0
43 279 m 0
 43 419 129 576 304 576 c 0
 508 576 557 373 557 279 c 0
 557 116 463 -18 303 -18 c 0
 147 -18 43 116 43 279 c 0
168 641 m 1
 117 641 l 1
 136 695 184 752 241 752 c 0
 283 752 308 738 327 723 c 0
 349 705 365 690 389 690 c 0
 427 690 449 724 458 748 c 1
 509 739 l 1
 498 700 464 641 396 641 c 0
 359 641 336 654 315 670 c 0
 293 688 273 703 243 703 c 0
 194 703 175 661 168 641 c 1
EndSplineSet
EndChar

StartChar: P
Encoding: 80 80 45
Width: 600
Flags: HMW
HStem: 0 55<60 138 60 138 193 346> 191 54<193 327 193 327> 508 54<60 138 60 328 193 193 193 325>
VStem: 138 55<55 191 245 508> 484 55<326 419 315 425.5>
LayerCount: 2
Fore
SplineSet
193 245 m 1
 327 245 l 2
 400 245 484 276 484 376 c 0
 484 475 405 508 325 508 c 2
 193 508 l 1
 193 245 l 1
60 0 m 1
 60 55 l 1
 138 55 l 1
 138 508 l 1
 60 508 l 1
 60 562 l 1
 328 562 l 2
 480 562 539 462 539 376 c 0
 539 254 440 191 327 191 c 2
 193 191 l 1
 193 55 l 1
 346 55 l 1
 346 0 l 1
 60 0 l 1
EndSplineSet
EndChar

StartChar: Q
Encoding: 81 81 46
Width: 600
Flags: HMW
HStem: -138 21G<428.5 464.5> -95 125<263.5 293.5> -23 53<291 330 263.5 366> 528 52<240.5 361.5>
VStem: 43 55<199 336 177.5 350.5> 500 57<184 338>
LayerCount: 2
Fore
SplineSet
98 271 m 0
 98 84 230 30 297 30 c 0
 363 30 500 89 500 271 c 0
 500 405 425 528 298 528 c 0
 183 528 98 401 98 271 c 0
130 -90 m 1
 164 -72 208 -45 235 -18 c 1
 111 19 43 127 43 271 c 0
 43 430 140 580 299 580 c 0
 481 580 557 429 557 271 c 0
 557 97 441 -23 291 -23 c 1
 279 -34 267 -41 253 -48 c 1
 268 -46 283 -41 298 -41 c 0
 327 -41 353 -51 378 -62 c 0
 402 -72 425 -82 450 -82 c 0
 475 -82 501 -72 522 -58 c 1
 543 -103 l 1
 517 -125 482 -138 447 -138 c 0
 410 -138 384 -128 361 -118 c 0
 336 -107 309 -95 278 -95 c 0
 232 -95 196 -111 151 -135 c 1
 130 -90 l 1
EndSplineSet
EndChar

StartChar: R
Encoding: 82 82 47
Width: 600
Flags: HMW
HStem: 0 55<25 106 25 106 161 243 472 575> 248 55<161 264 264 277 161 264> 507 55<25 106 25 326 161 161 161 307>
VStem: 106 55<55 248 303 507> 441 55<351.5 444.5>
LayerCount: 2
Fore
SplineSet
161 303 m 1
 195 303 230 303 264 303 c 0
 338 303 441 298 441 405 c 0
 441 484 378 507 307 507 c 2
 161 507 l 1
 161 303 l 1
25 0 m 1
 25 55 l 1
 106 55 l 1
 106 507 l 1
 25 507 l 1
 25 562 l 1
 326 562 l 2
 448 562 496 491 496 407 c 0
 496 287 406 255 339 250 c 1
 379 202 439 109 472 55 c 1
 575 55 l 1
 575 0 l 1
 444 0 l 1
 405 68 316 201 277 248 c 1
 161 248 l 1
 161 55 l 1
 243 55 l 1
 243 0 l 1
 25 0 l 1
EndSplineSet
EndChar

StartChar: S
Encoding: 83 83 48
Width: 600
Flags: HMW
HStem: -20 52<289 355 271.5 368> -10 21G<72 72 72 127> 528 52<262 330 232.5 333> 547 20G<454 508 508 508>
VStem: 72 55<-10 30 92 170> 98 54<383.5 454 383.5 457> 454 54<382 471 471 471 537 567 382 567> 472 55<110.5 183.5>
LayerCount: 2
Fore
SplineSet
72 -10 m 1
 72 170 l 1
 127 170 l 1
 127 92 l 1
 176 52 240 32 303 32 c 0
 407 32 472 78 472 143 c 0
 472 224 392 235 310 246 c 0
 226 257 98 293 98 415 c 0
 98 499 161 580 304 580 c 0
 356 580 415 565 454 537 c 1
 454 567 l 1
 508 567 l 1
 508 382 l 1
 454 382 l 1
 454 471 l 1
 418 506 359 528 307 528 c 0
 217 528 152 486 152 422 c 0
 152 345 245 314 318 302 c 0
 417 287 527 272 527 151 c 0
 527 34 424 -20 312 -20 c 0
 266 -20 189 -13 127 30 c 1
 127 -10 l 1
 72 -10 l 1
EndSplineSet
EndChar

StartChar: Scaron
Encoding: 282 352 49
Width: 600
Flags: HMW
HStem: -20 56<291.5 358.5 274 371.5> -9 21G<71 71 71 127> 527 56<264 333 234 336> 551 20G<453 508 508 508> 583 44<272 272 272 333> 785 20G<162 162 461 461>
VStem: 71 56<-9 42 105 174> 97 55<367.5 441.5> 453 55<383 463 463 463 530 571 383 571> 467 61<111 182>
LayerCount: 2
Fore
SplineSet
272 627 m 1
 121 786 l 1
 162 805 l 1
 314 684 l 1
 461 805 l 1
 504 787 l 1
 354 627 l 1
 272 627 l 1
71 -9 m 1
 71 174 l 1
 127 174 l 1
 127 105 l 1
 177 64 242 36 306 36 c 0
 411 36 467 78 467 144 c 0
 467 220 397 233 320 241 c 0
 233 250 97 274 97 399 c 0
 97 484 161 583 307 583 c 0
 359 583 413 559 453 530 c 1
 453 571 l 1
 508 571 l 1
 508 383 l 1
 453 383 l 1
 453 463 l 1
 416 499 362 527 310 527 c 0
 218 527 152 477 152 412 c 0
 152 323 242 304 313 296 c 0
 406 286 528 270 528 153 c 0
 528 35 428 -20 315 -20 c 0
 268 -20 190 -2 127 42 c 1
 127 -9 l 1
 71 -9 l 1
EndSplineSet
EndChar

StartChar: Scedilla
Encoding: 283 350 50
Width: 600
Flags: HMW
HStem: -151 21G<287.5 317.5> 28 63<329 329> 271 62 514 66<256.5 307 216.5 310>
VStem: 71 59<28 94 173 232> 78 58<374.5 463.5 374.5 466.5> 274 100 444 59<391 449 449 449 520 580 391 580> 463 65<148.5 228>
LayerCount: 2
Fore
SplineSet
71 28 m 1
 71 232 l 1
 130 232 l 1
 130 173 l 1
 182 129 241 91 310 91 c 0
 350 91 463 104 463 192 c 0
 463 264 392 269 340 271 c 0
 252 275 78 273 78 415 c 0
 78 518 157 580 276 580 c 0
 338 580 395 553 444 520 c 1
 444 580 l 1
 503 580 l 1
 503 391 l 1
 444 391 l 1
 444 449 l 1
 398 482 340 514 280 514 c 0
 233 514 136 501 136 426 c 0
 136 323 301 340 376 333 c 0
 452 328 528 290 528 200 c 0
 528 97 446 30 329 28 c 1
 329 5 l 1
 349 3 374 -20 374 -62 c 0
 374 -112 338 -151 297 -151 c 0
 278 -151 255 -144 238 -129 c 1
 253 -86 l 1
 263 -96 277 -101 290 -101 c 0
 309 -101 326 -90 326 -70 c 0
 326 -53 313 -41 299 -41 c 0
 290 -41 280 -42 273 -45 c 1
 276 31 l 1
 215 41 173 70 130 94 c 1
 130 28 l 1
 71 28 l 1
EndSplineSet
EndChar

StartChar: T
Encoding: 84 84 51
Width: 600
Flags: HMW
HStem: 0 55<146 271 146 271 327 452> 374 188<37 93 37 562 506 506 506 562> 507 55<93 271 93 93 327 327 327 506>
VStem: 37 56<374 507 374 562 374 562> 271 56<55 507 55 507> 506 56<374 507 507 507>
LayerCount: 2
Fore
SplineSet
146 0 m 1
 146 55 l 1
 271 55 l 1
 271 507 l 1
 93 507 l 1
 93 374 l 1
 37 374 l 1
 37 562 l 1
 562 562 l 1
 562 374 l 1
 506 374 l 1
 506 507 l 1
 327 507 l 1
 327 55 l 1
 452 55 l 1
 452 0 l 1
 146 0 l 1
EndSplineSet
EndChar

StartChar: Thorn
Encoding: 284 222 52
Width: 600
Flags: HMW
HStem: 0 54<70 172 221 357 70 172> 160 54<221 355 221 355> 388 54<221 353 221 353> 568 54<70 172 70 320 221 221 221 320>
VStem: 172 49<54 160 214 388 442 568> 478 51<281.5 317.5>
LayerCount: 2
Fore
SplineSet
221 388 m 1
 221 214 l 1
 355 214 l 2
 390 214 419 219 442 230 c 0
 466 241 478 264 478 299 c 0
 478 336 466 360 442 371 c 0
 419 382 389 388 353 388 c 2
 221 388 l 1
357 0 m 1
 70 0 l 1
 70 54 l 1
 172 54 l 1
 172 568 l 1
 70 568 l 1
 70 622 l 1
 320 622 l 1
 320 568 l 1
 221 568 l 1
 221 442 l 1
 353 442 l 2
 485 442 529 392 529 301 c 0
 529 218 484 160 355 160 c 2
 221 160 l 1
 221 54 l 1
 357 54 l 1
 357 0 l 1
EndSplineSet
EndChar

StartChar: U
Encoding: 85 85 53
Width: 600
Flags: HMW
HStem: -18 51<249 341.5 249 366> 507 55<17 255 17 97 149 149 149 255 351 454 506 506 506 583>
VStem: 97 52<190 507> 454 52<190 507>
LayerCount: 2
Fore
SplineSet
17 507 m 1
 17 562 l 1
 255 562 l 1
 255 507 l 1
 149 507 l 1
 149 190 l 2
 149 78 196 33 302 33 c 0
 381 33 454 67 454 190 c 2
 454 507 l 1
 351 507 l 1
 351 562 l 1
 583 562 l 1
 583 507 l 1
 506 507 l 1
 506 190 l 2
 506 55 429 -18 303 -18 c 0
 151 -18 97 59 97 190 c 2
 97 507 l 1
 17 507 l 1
EndSplineSet
EndChar

StartChar: Uacute
Encoding: 285 218 54
Width: 600
Flags: HMW
HStem: -18 55<257 341.5 257 365.5> 508 55<17 254 17 96 148 148 148 254 351 454 506 506 506 583> 773 20G<437 437>
VStem: 96 52<207 209 209 508> 454 52<205 508>
LayerCount: 2
Fore
SplineSet
17 508 m 1
 17 563 l 1
 254 563 l 1
 254 508 l 1
 148 508 l 1
 148 209 l 2
 148 81 212 37 302 37 c 0
 381 37 454 83 454 205 c 2
 454 508 l 1
 351 508 l 1
 351 563 l 1
 583 563 l 1
 583 508 l 1
 506 508 l 1
 506 204 l 2
 506 57 428 -18 303 -18 c 0
 170 -18 96 73 96 207 c 2
 96 508 l 1
 17 508 l 1
190 618 m 1
 178 648 l 1
 437 793 l 1
 469 719 l 1
 190 618 l 1
EndSplineSet
EndChar

StartChar: Ucircumflex
Encoding: 286 219 55
Width: 600
Flags: HMW
HStem: -18 55<257 341.5 257 365.5> 508 55<17 254 17 96 148 148 148 254 351 454 506 506 506 583>
VStem: 96 52<207 209 209 508> 454 52<205 508>
LayerCount: 2
Fore
SplineSet
158 625 m 1
 117 642 l 1
 264 775 l 1
 344 775 l 1
 490 642 l 1
 449 625 l 1
 305 719 l 1
 158 625 l 1
17 508 m 1
 17 563 l 1
 254 563 l 1
 254 508 l 1
 148 508 l 1
 148 209 l 2
 148 81 212 37 302 37 c 0
 381 37 454 83 454 205 c 2
 454 508 l 1
 351 508 l 1
 351 563 l 1
 583 563 l 1
 583 508 l 1
 506 508 l 1
 506 204 l 2
 506 57 428 -18 303 -18 c 0
 170 -18 96 79 96 207 c 2
 96 508 l 1
 17 508 l 1
EndSplineSet
EndChar

StartChar: Udieresis
Encoding: 287 220 56
Width: 600
Flags: HMW
HStem: -18 55<257 341.5 257 365.5> 508 55<17 254 17 96 148 148 148 254 351 454 506 506 506 583> 687 117
VStem: 96 52<207 209 209 508> 454 52<205 508>
LayerCount: 2
Fore
SplineSet
191 644 m 1
 191 761 l 1
 274 761 l 1
 274 644 l 1
 191 644 l 1
333 644 m 1
 333 761 l 1
 416 761 l 1
 416 644 l 1
 333 644 l 1
17 508 m 1
 17 563 l 1
 254 563 l 1
 254 508 l 1
 148 508 l 1
 148 209 l 2
 148 89 212 37 302 37 c 0
 381 37 454 83 454 205 c 2
 454 508 l 1
 351 508 l 1
 351 563 l 1
 583 563 l 1
 583 508 l 1
 506 508 l 1
 506 204 l 2
 506 57 428 -18 303 -18 c 0
 164 -18 96 72 96 207 c 2
 96 508 l 1
 17 508 l 1
EndSplineSet
EndChar

StartChar: Ugrave
Encoding: 288 217 57
Width: 600
Flags: HMW
HStem: -18 55<257 341.5 257 365.5> 508 55<17 254 17 96 148 148 148 254 351 454 506 506 506 583> 773 20G<188 188>
VStem: 96 52<207 209 209 508> 454 52<205 508>
LayerCount: 2
Fore
SplineSet
155 719 m 1
 188 793 l 1
 446 648 l 1
 435 618 l 1
 155 719 l 1
17 508 m 1
 17 563 l 1
 254 563 l 1
 254 508 l 1
 148 508 l 1
 148 209 l 2
 148 81 212 37 302 37 c 0
 381 37 454 83 454 205 c 2
 454 508 l 1
 351 508 l 1
 351 563 l 1
 583 563 l 1
 583 508 l 1
 506 508 l 1
 506 204 l 2
 506 57 428 -18 303 -18 c 0
 170 -18 96 73 96 207 c 2
 96 508 l 1
 17 508 l 1
EndSplineSet
EndChar

StartChar: V
Encoding: 86 86 58
Width: 600
Flags: HMW
HStem: -13 21G<263 263 263 336> 507 55<-4 60 -4 223 124 124 124 223 380 476 536 536 536 604>
VStem: -4 227<507 562 507 562> 380 224<507 562 507 562>
LayerCount: 2
Fore
SplineSet
263 -13 m 1
 60 507 l 1
 -4 507 l 1
 -4 562 l 1
 223 562 l 1
 223 507 l 1
 124 507 l 1
 299 46 l 1
 476 507 l 1
 380 507 l 1
 380 562 l 1
 604 562 l 1
 604 507 l 1
 536 507 l 1
 336 -13 l 1
 263 -13 l 1
EndSplineSet
EndChar

StartChar: W
Encoding: 87 87 59
Width: 600
Flags: HMW
HStem: -10 21G<124 124 124 187 418 418 418 479> 433 20G<281 322 322 322> 507 55<20 66 20 218 120 120 120 218 381 480 536 536 536 580>
VStem: 20 198<507 562 507 562> 381 199<507 562 507 562>
LayerCount: 2
Fore
SplineSet
124 -10 m 1
 66 507 l 1
 20 507 l 1
 20 562 l 1
 218 562 l 1
 218 507 l 1
 120 507 l 1
 165 87 l 1
 281 453 l 1
 322 453 l 1
 440 89 l 1
 480 507 l 1
 381 507 l 1
 381 562 l 1
 580 562 l 1
 580 507 l 1
 536 507 l 1
 479 -10 l 1
 418 -10 l 1
 300 351 l 1
 187 -10 l 1
 124 -10 l 1
EndSplineSet
EndChar

StartChar: X
Encoding: 88 88 60
Width: 600
Flags: HMW
HStem: 0 55<23 88 23 88 152 257 354 448 512 577> 507 55<43 110 43 241 173 173 173 241 367 428 492 492 492 558>
LayerCount: 2
Fore
SplineSet
23 0 m 1
 23 55 l 1
 88 55 l 1
 268 295 l 1
 110 507 l 1
 43 507 l 1
 43 562 l 1
 241 562 l 1
 241 507 l 1
 173 507 l 1
 301 336 l 1
 428 507 l 1
 367 507 l 1
 367 562 l 1
 558 562 l 1
 558 507 l 1
 492 507 l 1
 334 295 l 1
 512 55 l 1
 577 55 l 1
 577 0 l 1
 354 0 l 1
 354 55 l 1
 448 55 l 1
 302 251 l 1
 152 55 l 1
 257 55 l 1
 257 0 l 1
 23 0 l 1
EndSplineSet
EndChar

StartChar: Y
Encoding: 89 89 61
Width: 600
Flags: HMW
HStem: 0 54<147 275 147 275 331 458> 508 54<24 93 24 227 155 155 155 227 377 448 509 509 509 576>
VStem: 24 203<508 562 508 562> 275 56<54 229 54 229> 377 199<508 562 508 562>
LayerCount: 2
Fore
SplineSet
147 0 m 1
 147 54 l 1
 275 54 l 1
 275 229 l 1
 93 508 l 1
 24 508 l 1
 24 562 l 1
 227 562 l 1
 227 508 l 1
 155 508 l 1
 303 282 l 1
 448 508 l 1
 377 508 l 1
 377 562 l 1
 576 562 l 1
 576 508 l 1
 509 508 l 1
 331 229 l 1
 331 54 l 1
 458 54 l 1
 458 0 l 1
 147 0 l 1
EndSplineSet
EndChar

StartChar: Yacute
Encoding: 289 221 62
Width: 600
Flags: HMW
HStem: 0 54<147 273 147 273 330 455> 511 54<24 92 24 225 154 154 154 225 376 446 507 507 507 576> 773 20G<444 444>
VStem: 273 57<54 229 54 229>
LayerCount: 2
Fore
SplineSet
184 619 m 1
 172 649 l 1
 444 793 l 1
 478 720 l 1
 184 619 l 1
147 0 m 1
 147 54 l 1
 273 54 l 1
 273 229 l 1
 92 511 l 1
 24 511 l 1
 24 565 l 1
 225 565 l 1
 225 511 l 1
 154 511 l 1
 301 283 l 1
 446 511 l 1
 376 511 l 1
 376 565 l 1
 576 565 l 1
 576 511 l 1
 507 511 l 1
 330 229 l 1
 330 54 l 1
 455 54 l 1
 455 0 l 1
 147 0 l 1
EndSplineSet
EndChar

StartChar: Ydieresis
Encoding: 290 376 63
Width: 600
Flags: HMW
HStem: 0 54<147 273 147 273 330 455> 511 54<24 92 24 225 154 154 154 225 376 446 507 507 507 576> 687 129<186 271 186 271 186 337 337 423>
VStem: 273 57<54 229 54 229>
LayerCount: 2
Fore
SplineSet
147 0 m 1
 147 54 l 1
 273 54 l 1
 273 229 l 1
 92 511 l 1
 24 511 l 1
 24 565 l 1
 225 565 l 1
 225 511 l 1
 154 511 l 1
 301 283 l 1
 446 511 l 1
 376 511 l 1
 376 565 l 1
 576 565 l 1
 576 511 l 1
 507 511 l 1
 330 229 l 1
 330 54 l 1
 455 54 l 1
 455 0 l 1
 147 0 l 1
186 687 m 1
 186 816 l 1
 271 816 l 1
 271 687 l 1
 186 687 l 1
337 687 m 1
 337 816 l 1
 423 816 l 1
 423 687 l 1
 337 687 l 1
EndSplineSet
EndChar

StartChar: Z
Encoding: 90 90 64
Width: 600
Flags: HMW
HStem: 0 54<158 459 158 514> 508 54<170 441 170 170>
VStem: 118 52<373 508 373 562> 459 55<54 203 0 203>
LayerCount: 2
Fore
SplineSet
86 0 m 1
 86 53 l 1
 441 508 l 1
 170 508 l 1
 170 373 l 1
 118 373 l 1
 118 562 l 1
 514 562 l 1
 514 511 l 1
 158 54 l 1
 459 54 l 1
 459 203 l 1
 514 203 l 1
 514 0 l 1
 86 0 l 1
EndSplineSet
EndChar

StartChar: Zcaron
Encoding: 291 381 65
Width: 600
Flags: HMW
HStem: 0 55<159 461 159 514> 518 55<170 442 170 170>
VStem: 118 52<361 518 361 573> 461 53<55 228 0 228>
LayerCount: 2
Fore
SplineSet
276 628 m 1
 133 786 l 1
 172 805 l 1
 315 686 l 1
 455 805 l 1
 495 787 l 1
 354 628 l 1
 276 628 l 1
86 0 m 1
 86 54 l 1
 442 518 l 1
 170 518 l 1
 170 361 l 1
 118 361 l 1
 118 573 l 1
 514 573 l 1
 514 521 l 1
 159 55 l 1
 461 55 l 1
 461 228 l 1
 514 228 l 1
 514 0 l 1
 86 0 l 1
EndSplineSet
EndChar

StartChar: a
Encoding: 97 97 66
Width: 600
Flags: HMW
HStem: -3 55<469 553 469 553 415 553> 211 54<230 298 214.5 298.5> 384 57
VStem: 47 57<100 154.5 100 169> 414 55<147 197 197 197>
LayerCount: 2
Fore
SplineSet
414 147 m 1
 414 197 l 1
 376 208 323 211 274 211 c 0
 186 211 104 190 104 119 c 0
 104 81 149 33 212 33 c 0
 294 33 363 87 414 147 c 1
102 333 m 1
 86 386 l 1
 133 412 213 441 288 441 c 0
 403 441 469 398 469 293 c 2
 469 52 l 1
 553 52 l 1
 553 -3 l 1
 415 -3 l 1
 415 81 l 1
 387 40 311 -15 216 -15 c 0
 100 -15 47 55 47 120 c 0
 47 218 154 265 275 265 c 0
 321 265 369 262 414 252 c 1
 422 351 374 383 290 384 c 0
 241 385 173 363 102 333 c 1
EndSplineSet
EndChar

StartChar: aacute
Encoding: 292 225 67
Width: 600
Flags: HMW
HStem: -15 56<179.5 249> -3 56<470 553 470 553 415 553> 213 56<251 294 185 305.5> 393 56<257 320>
VStem: 47 58<101.5 151.5> 414 56<149 199 199 199 255 287 287 297 53 340>
LayerCount: 2
Fore
SplineSet
414 149 m 1
 414 199 l 1
 371 207 328 213 283 213 c 0
 219 213 105 207 105 121 c 0
 105 82 148 41 211 41 c 0
 294 41 363 88 414 149 c 1
95 350 m 1
 81 405 l 1
 141 429 222 449 292 449 c 0
 420 449 470 393 470 297 c 2
 470 53 l 1
 553 53 l 1
 553 -3 l 1
 415 -3 l 1
 415 82 l 1
 359 29 288 -15 210 -15 c 0
 105 -15 47 56 47 122 c 0
 47 181 101 269 269 269 c 0
 319 269 369 262 414 255 c 1
 414 287 l 2
 414 393 358 393 282 393 c 0
 212 393 127 365 95 350 c 1
156 495 m 1
 144 526 l 1
 417 672 l 1
 451 598 l 1
 156 495 l 1
EndSplineSet
EndChar

StartChar: acircumflex
Encoding: 293 226 68
Width: 600
Flags: HMW
HStem: -15 56<179.5 249> -3 56<470 553 470 553 415 553> 213 56<251 294 185 305.5> 393 56<257 320>
VStem: 47 58<101.5 151.5> 414 56<149 199 199 199 255 287 287 297 53 340>
LayerCount: 2
Fore
SplineSet
414 149 m 1
 414 199 l 1
 371 207 328 213 283 213 c 0
 219 213 105 207 105 121 c 0
 105 82 148 41 211 41 c 0
 294 41 363 88 414 149 c 1
95 350 m 1
 81 405 l 1
 141 429 222 449 292 449 c 0
 420 449 470 393 470 297 c 2
 470 53 l 1
 553 53 l 1
 553 -3 l 1
 415 -3 l 1
 415 82 l 1
 359 29 288 -15 210 -15 c 0
 105 -15 47 56 47 122 c 0
 47 181 101 269 269 269 c 0
 319 269 369 262 414 255 c 1
 414 287 l 2
 414 393 358 393 282 393 c 0
 212 393 127 365 95 350 c 1
130 480 m 1
 88 497 l 1
 241 654 l 1
 324 654 l 1
 476 497 l 1
 433 480 l 1
 283 598 l 1
 130 480 l 1
EndSplineSet
EndChar

StartChar: acute
Encoding: 194 180 69
Width: 600
Flags: HMW
HStem: 497 175<205 368>
VStem: 186 227<528 599>
LayerCount: 2
Fore
SplineSet
205 497 m 1
 186 528 l 1
 368 672 l 1
 413 599 l 1
 205 497 l 1
EndSplineSet
EndChar

StartChar: adieresis
Encoding: 294 228 70
Width: 600
Flags: HMW
HStem: -15 56<179.5 249> 8 56 215 56 386 56 530 115<157 244 157 244 157 309 309 395>
VStem: 47 58<101.5 151.5> 157 87<530 645 530 645> 309 86<530 645 530 645> 414 56<149 199 199 199 255 287 287 297 53 340>
LayerCount: 2
Fore
SplineSet
414 149 m 1
 414 199 l 1
 371 207 328 213 283 213 c 0
 219 213 105 207 105 121 c 0
 105 82 148 41 211 41 c 0
 294 41 363 88 414 149 c 1
95 350 m 1
 81 405 l 1
 141 429 222 449 292 449 c 0
 420 449 470 393 470 297 c 2
 470 53 l 1
 553 53 l 1
 553 -3 l 1
 415 -3 l 1
 415 82 l 1
 359 29 288 -15 210 -15 c 0
 105 -15 47 56 47 122 c 0
 47 181 101 269 269 269 c 0
 319 269 369 262 414 255 c 1
 414 287 l 2
 414 393 358 393 282 393 c 0
 212 393 127 365 95 350 c 1
157 530 m 1
 157 645 l 1
 244 645 l 1
 244 530 l 1
 157 530 l 1
309 530 m 1
 309 645 l 1
 395 645 l 1
 395 530 l 1
 309 530 l 1
EndSplineSet
EndChar

StartChar: ae
Encoding: 241 230 71
Width: 600
Flags: HMW
HStem: -15 54<132 165 410.5 467.5> 213 55<228 267 325 519> 386 55<167.5 217.5 400 468.5>
VStem: 24 57<89 162.5 89 178> 267 56<159.5 201 201 213 159.5 213>
LayerCount: 2
Fore
SplineSet
267 127 m 1
 267 213 l 1
 189 213 81 213 81 112 c 0
 81 66 112 39 152 39 c 0
 216 39 255 105 267 127 c 1
325 268 m 1
 519 268 l 1
 512 320 506 386 431 386 c 0
 369 386 329 332 325 268 c 1
294 76 m 1
 235 -10 178 -15 152 -15 c 0
 90 -15 24 22 24 109 c 0
 24 247 152 269 267 268 c 1
 267 295 l 2
 267 351 253 386 182 386 c 0
 141 386 90 372 56 359 c 1
 45 412 l 1
 89 428 140 441 195 441 c 0
 291 441 305 388 311 374 c 1
 338 415 371 441 427 441 c 0
 554 441 575 318 574 213 c 1
 323 213 l 1
 323 201 l 2
 323 118 364 39 457 39 c 0
 493 39 531 52 563 61 c 1
 575 7 l 1
 536 -4 490 -15 445 -15 c 0
 366 -15 314 25 294 76 c 1
EndSplineSet
EndChar

StartChar: agrave
Encoding: 295 224 72
Width: 600
Flags: HMW
HStem: -15 56<179.5 249> -3 56<470 553 470 553 415 553> 213 56<251 294 185 305.5> 393 56<257 320>
VStem: 47 58<101.5 151.5> 414 56<149 199 199 199 255 287 287 297 53 340>
LayerCount: 2
Fore
SplineSet
414 149 m 1
 414 199 l 1
 371 207 328 213 283 213 c 0
 219 213 105 207 105 121 c 0
 105 82 148 41 211 41 c 0
 294 41 363 88 414 149 c 1
95 350 m 1
 81 405 l 1
 141 429 222 449 292 449 c 0
 420 449 470 393 470 297 c 2
 470 53 l 1
 553 53 l 1
 553 -3 l 1
 415 -3 l 1
 415 82 l 1
 359 29 288 -15 210 -15 c 0
 105 -15 47 56 47 122 c 0
 47 181 101 269 269 269 c 0
 319 269 369 262 414 255 c 1
 414 287 l 2
 414 393 358 393 282 393 c 0
 212 393 127 365 95 350 c 1
134 596 m 1
 169 672 l 1
 442 524 l 1
 431 493 l 1
 134 596 l 1
EndSplineSet
EndChar

StartChar: ampersand
Encoding: 38 38 73
Width: 600
Flags: HMW
HStem: -5 53 9 55 234 54 491 52<249 293>
VStem: 62 55<104.5 147> 123 52
LayerCount: 2
Fore
SplineSet
323 92 m 1
 202 265 l 1
 165 249 117 199 117 143 c 0
 117 66 165 38 215 38 c 0
 270 38 299 70 323 92 c 1
352 48 m 1
 315 8 262 -15 206 -15 c 0
 99 -15 62 72 62 131 c 0
 62 163 68 246 175 305 c 1
 148 344 123 391 123 435 c 0
 123 508 196 543 271 543 c 0
 316 543 362 523 391 495 c 1
 361 451 l 1
 346 468 316 491 270 491 c 0
 228 491 173 477 175 424 c 0
 176 385 210 340 214 336 c 2
 356 134 l 1
 382 174 398 246 398 289 c 1
 519 289 l 1
 519 235 l 1
 442 235 l 1
 436 180 414 127 387 90 c 1
 412 53 l 1
 537 53 l 1
 537 -2 l 1
 387 -2 l 1
 352 48 l 1
EndSplineSet
EndChar

StartChar: aring
Encoding: 296 229 74
Width: 600
Flags: HMW
HStem: -15 56<179.5 249> -3 56<470 553 470 553 415 553> 213 56<251 294 185 305.5> 393 56<257 320> 510 164<260 310>
VStem: 47 58<101.5 151.5> 196 178<569 615> 414 56<149 199 199 199 255 287 287 297 53 340>
LayerCount: 2
Fore
SplineSet
414 149 m 1
 414 199 l 1
 371 207 328 213 283 213 c 0
 219 213 105 207 105 121 c 0
 105 82 148 41 211 41 c 0
 294 41 363 88 414 149 c 1
95 350 m 1
 81 405 l 1
 141 429 222 449 292 449 c 0
 420 449 470 393 470 297 c 2
 470 53 l 1
 553 53 l 1
 553 -3 l 1
 415 -3 l 1
 415 82 l 1
 359 29 288 -15 210 -15 c 0
 105 -15 47 56 47 122 c 0
 47 181 101 269 269 269 c 0
 319 269 369 262 414 255 c 1
 414 287 l 2
 414 393 358 393 282 393 c 0
 212 393 127 365 95 350 c 1
250 592 m 0
 250 575 266 560 285 560 c 0
 304 560 320 575 320 592 c 0
 320 610 304 624 285 624 c 0
 266 624 250 610 250 592 c 0
196 592 m 0
 196 638 235 674 285 674 c 0
 335 674 374 638 374 592 c 0
 374 546 335 510 285 510 c 0
 235 510 196 546 196 592 c 0
EndSplineSet
EndChar

StartChar: arrowboth
Encoding: 297 8596 75
Width: 600
Flags: HMW
HStem: 272 51<75 524 75 75>
VStem: -28 656<298 298>
LayerCount: 2
Fore
SplineSet
201 115 m 1
 -28 298 l 1
 201 483 l 1
 229 446 l 1
 73 323 l 1
 526 323 l 1
 370 446 l 1
 398 483 l 1
 628 298 l 1
 398 115 l 1
 370 160 l 1
 524 272 l 1
 75 272 l 1
 229 160 l 1
 201 115 l 1
EndSplineSet
EndChar

StartChar: arrowdown
Encoding: 298 8595 76
Width: 600
Flags: HMW
HStem: -15 623<301 301>
VStem: 276 51<90 608 90 608 90 608>
LayerCount: 2
Fore
SplineSet
116 210 m 1
 153 243 l 1
 276 88 l 1
 276 608 l 1
 327 608 l 1
 327 90 l 1
 439 244 l 1
 484 216 l 1
 301 -15 l 1
 116 210 l 1
EndSplineSet
EndChar

StartChar: arrowleft
Encoding: 299 8592 77
Width: 600
Flags: HMW
HStem: 272 51<79 624 79 79>
VStem: -24 648<298 298>
LayerCount: 2
Fore
SplineSet
205 115 m 1
 -24 298 l 1
 205 483 l 1
 233 446 l 1
 77 323 l 1
 624 323 l 1
 624 272 l 1
 79 272 l 1
 233 160 l 1
 205 115 l 1
EndSplineSet
EndChar

StartChar: arrowright
Encoding: 300 8594 78
Width: 600
Flags: HMW
HStem: 272 51<-24 523 -24 521>
VStem: -24 648<298 298 298 323 298 323>
LayerCount: 2
Fore
SplineSet
-24 272 m 1
 -24 323 l 1
 523 323 l 1
 367 446 l 1
 395 483 l 1
 624 298 l 1
 395 115 l 1
 367 160 l 1
 521 272 l 1
 -24 272 l 1
EndSplineSet
EndChar

StartChar: arrowup
Encoding: 301 8593 79
Width: 600
Flags: HMW
HStem: 392 128
VStem: 276 51<0 518 0 520 0 520>
LayerCount: 2
Fore
SplineSet
276 0 m 1
 276 520 l 1
 153 364 l 1
 116 392 l 1
 301 617 l 1
 484 392 l 1
 439 364 l 1
 327 518 l 1
 327 0 l 1
 276 0 l 1
EndSplineSet
EndChar

StartChar: asciicircum
Encoding: 94 94 80
Width: 600
Flags: HMW
HStem: 354 21G<94 94> 602 20G<273 324 324 324>
VStem: 94 412<355 401 401 401>
LayerCount: 2
Fore
SplineSet
94 354 m 1
 94 401 l 1
 189 472 238 528 273 622 c 1
 324 622 l 1
 364 523 409 477 506 402 c 1
 506 355 l 1
 429 381 360 437 300 498 c 1
 242 440 171 381 94 354 c 1
EndSplineSet
EndChar

StartChar: asciitilde
Encoding: 126 126 81
Width: 600
Flags: HMW
HStem: 199 51 269 51<175.5 214>
VStem: 61 477<234 289>
LayerCount: 2
Fore
SplineSet
107 197 m 1
 61 234 l 1
 96 275 128 320 191 320 c 0
 247 320 286 299 319 280 c 0
 347 264 371 248 397 248 c 0
 435 248 480 300 494 320 c 1
 538 289 l 1
 505 244 462 197 396 197 c 0
 358 197 327 213 297 230 c 0
 264 249 233 269 195 269 c 0
 156 269 129 228 107 197 c 1
EndSplineSet
EndChar

StartChar: asterisk
Encoding: 42 42 82
Width: 600
Flags: HMW
HStem: 257 350<228 339 264 376>
VStem: 268 64
LayerCount: 2
Fore
SplineSet
163 300 m 1
 262 415 l 1
 116 443 l 1
 136 511 l 1
 273 458 l 1
 264 607 l 1
 339 607 l 1
 326 459 l 1
 466 511 l 1
 484 443 l 1
 340 416 l 1
 437 299 l 1
 376 257 l 1
 302 387 l 1
 228 257 l 1
 163 300 l 1
EndSplineSet
EndChar

StartChar: at
Encoding: 64 64 83
Width: 600
Flags: HMW
HStem: -15 38<258.5 358 258.5 363> 106 38<407 457.5 407 469.5> 356 42<267.5 313.5 259 323> 507 39<230.5 369.5>
VStem: 37 43<182.5 321 182.5 338.5> 170 40<191 229 191 252.5> 354 44<265 311> 519 44<270.5 365.5>
LayerCount: 2
Fore
SplineSet
210 202 m 0
 210 180 223 146 257 146 c 0
 315 146 354 237 354 302 c 0
 354 320 348 356 298 356 c 0
 237 356 210 256 210 202 c 0
354 172 m 1
 335 139 292 106 251 106 c 0
 184 106 170 159 170 204 c 0
 170 301 220 398 298 398 c 0
 329 398 354 395 375 352 c 1
 387 401 l 1
 431 401 l 1
 398 265 l 2
 388 222 382 144 432 144 c 0
 483 144 519 232 519 309 c 0
 519 422 429 507 310 507 c 0
 151 507 80 382 80 260 c 0
 80 105 196 23 321 23 c 0
 395 23 490 72 519 93 c 1
 539 53 l 1
 474 13 405 -15 321 -15 c 0
 145 -15 37 94 37 260 c 0
 37 417 131 546 310 546 c 0
 454 546 563 451 563 308 c 0
 563 200 510 106 429 106 c 0
 383 106 362 143 354 172 c 1
EndSplineSet
EndChar

StartChar: atilde
Encoding: 302 227 84
Width: 600
Flags: HMW
HStem: -15 56<179.5 249> -3 56<470 553 470 553 415 553> 213 56<251 294 185 305.5> 405 56 521 50<343.5 375.5 343.5 383> 587 49<179 203>
VStem: 47 58<101.5 151.5> 414 56<149 199 199 199 255 287 287 297 53 340>
LayerCount: 2
Fore
SplineSet
414 149 m 1
 414 199 l 1
 371 207 328 213 283 213 c 0
 219 213 105 207 105 121 c 0
 105 82 148 41 211 41 c 0
 294 41 363 88 414 149 c 1
95 350 m 1
 81 405 l 1
 141 429 222 449 292 449 c 0
 420 449 470 393 470 297 c 2
 470 53 l 1
 553 53 l 1
 553 -3 l 1
 415 -3 l 1
 415 82 l 1
 359 29 288 -15 210 -15 c 0
 105 -15 47 56 47 122 c 0
 47 181 101 269 269 269 c 0
 319 269 369 262 414 255 c 1
 414 287 l 2
 414 393 358 393 282 393 c 0
 212 393 127 365 95 350 c 1
129 525 m 1
 77 535 l 1
 99 600 153 636 205 636 c 0
 243 636 267 621 288 605 c 0
 311 587 330 571 357 571 c 0
 394 571 423 607 432 632 c 1
 483 623 l 1
 464 567 415 521 351 521 c 0
 305 521 278 540 255 558 c 0
 235 573 217 587 189 587 c 0
 153 587 133 539 129 525 c 1
EndSplineSet
EndChar

StartChar: b
Encoding: 98 98 85
Width: 600
Flags: HMW
HStem: -15 55<300.5 387 300.5 420> -3 56<19 106 19 106 19 163> 395 56<297.5 402>
VStem: 106 57<53 67 363 574 574 574> 520 60<213 213>
LayerCount: 2
Fore
SplineSet
164 222 m 0
 164 98 259 40 342 40 c 0
 432 40 519 110 520 213 c 0
 521 310 462 395 342 395 c 0
 253 395 164 328 164 222 c 0
19 -3 m 1
 19 53 l 1
 106 53 l 1
 106 574 l 1
 19 574 l 1
 19 629 l 1
 163 629 l 1
 163 363 l 1
 181 388 241 451 353 451 c 0
 480 451 580 364 580 213 c 0
 580 103 489 -15 351 -15 c 0
 219 -15 177 51 163 67 c 1
 163 -3 l 1
 19 -3 l 1
EndSplineSet
EndChar

StartChar: backslash
Encoding: 92 92 86
Width: 600
Flags: HMW
HStem: -137 826<113 487>
VStem: 68 464
LayerCount: 2
Fore
SplineSet
487 -137 m 1
 68 662 l 1
 113 689 l 1
 532 -113 l 1
 487 -137 l 1
EndSplineSet
EndChar

StartChar: bar
Encoding: 124 124 87
Width: 600
Flags: HMW
HStem: -250 21G<274 274 274 325> 730 20G<274 325 325 325>
VStem: 274 51<-250 750 -250 750>
LayerCount: 2
Fore
SplineSet
274 -250 m 1
 274 750 l 1
 325 750 l 1
 325 -250 l 1
 274 -250 l 1
EndSplineSet
EndChar

StartChar: braceleft
Encoding: 123 123 88
Width: 600
Flags: HMW
HStem: -228 52<364.5 427> 685 57<361.5 427>
VStem: 267 58<-93 -90 -90 95 419 607 607 619>
LayerCount: 2
Fore
SplineSet
172 238 m 1
 172 276 l 1
 247 301 267 323 267 419 c 2
 267 607 l 2
 267 681 296 742 427 742 c 1
 427 685 l 1
 366 682 325 667 325 619 c 2
 325 419 l 2
 325 349 324 298 243 257 c 1
 324 220 325 160 325 95 c 2
 325 -90 l 2
 325 -138 366 -173 427 -176 c 1
 427 -228 l 1
 302 -228 267 -159 267 -93 c 2
 267 95 l 2
 267 191 250 213 172 238 c 1
EndSplineSet
EndChar

StartChar: braceright
Encoding: 125 125 89
Width: 600
Flags: HMW
HStem: -228 52<172 234.5> 689 53<172 237.5>
VStem: 274 58<-90 95 419 607>
LayerCount: 2
Fore
SplineSet
172 -176 m 1
 233 -173 274 -138 274 -90 c 2
 274 95 l 2
 274 160 275 220 356 257 c 1
 275 298 274 349 274 419 c 2
 274 619 l 2
 274 667 233 686 172 689 c 1
 172 742 l 1
 303 742 332 681 332 607 c 2
 332 419 l 2
 332 323 352 301 427 276 c 1
 427 238 l 1
 349 213 332 191 332 95 c 2
 332 -93 l 2
 332 -159 297 -228 172 -228 c 1
 172 -176 l 1
EndSplineSet
EndChar

StartChar: bracketleft
Encoding: 91 91 90
Width: 600
Flags: HMW
HStem: -98 20G<213 213 213 386> -78 54<268 386 268 386> 598 54<268 386 268 268>
VStem: 213 55<-24 598 -24 652 -24 652>
LayerCount: 2
Fore
SplineSet
213 -78 m 1
 213 652 l 1
 386 652 l 1
 386 598 l 1
 268 598 l 1
 268 -24 l 1
 386 -24 l 1
 386 -78 l 1
 213 -78 l 1
EndSplineSet
EndChar

StartChar: bracketright
Encoding: 93 93 91
Width: 600
Flags: HMW
HStem: -78 54<213 331 213 386 213 331> 598 54<213 331 213 386>
VStem: 331 55<-24 598 598 598>
LayerCount: 2
Fore
SplineSet
213 -24 m 1
 331 -24 l 1
 331 598 l 1
 213 598 l 1
 213 652 l 1
 386 652 l 1
 386 -78 l 1
 213 -78 l 1
 213 -24 l 1
EndSplineSet
EndChar

StartChar: breve
Encoding: 198 728 92
Width: 600
Flags: HMW
HStem: 501 39<279.5 328 279.5 339>
LayerCount: 2
Fore
SplineSet
153 609 m 1
 199 609 l 1
 218 566 258 540 301 540 c 0
 355 540 394 579 405 609 c 1
 447 609 l 1
 429 550 376 501 302 501 c 0
 245 501 189 529 153 609 c 1
EndSplineSet
EndChar

StartChar: brokenbar
Encoding: 303 166 93
Width: 600
Flags: HMW
HStem: -175 21G<274 274 274 325> 655 20G<274 325 325 325>
VStem: 274 51<-175 217 -175 217 283 675>
LayerCount: 2
Fore
SplineSet
274 -175 m 1
 274 217 l 1
 325 217 l 1
 325 -175 l 1
 274 -175 l 1
274 283 m 1
 274 675 l 1
 325 675 l 1
 325 283 l 1
 274 283 l 1
EndSplineSet
EndChar

StartChar: bullet
Encoding: 183 8226 94
Width: 600
Flags: HMW
HStem: 130 253<264.5 336>
VStem: 172 256<222 292>
LayerCount: 2
Fore
SplineSet
172 257 m 0
 172 327 229 383 300 383 c 0
 372 383 428 327 428 257 c 0
 428 187 372 130 300 130 c 0
 229 130 172 187 172 257 c 0
EndSplineSet
EndChar

StartChar: c
Encoding: 99 99 95
Width: 600
Flags: HMW
HStem: -15 53<244.5 351 244.5 357> 385 56<251 335.5>
VStem: 68 54<172 258.5 172 262.5> 458 54<256 325 325 325 393 441 256 441>
LayerCount: 2
Fore
SplineSet
501 116 m 1
 531 65 l 1
 469 17 405 -15 309 -15 c 0
 165 -15 68 69 68 217 c 0
 68 308 138 441 308 441 c 0
 366 441 413 424 458 393 c 1
 458 441 l 1
 512 441 l 1
 512 256 l 1
 458 256 l 1
 458 325 l 1
 416 361 364 385 307 385 c 0
 195 385 122 303 122 214 c 0
 122 130 178 38 311 38 c 0
 391 38 478 95 501 116 c 1
EndSplineSet
EndChar

StartChar: caron
Encoding: 207 711 96
Width: 600
Flags: HMW
HStem: 492 56<264 301 301 301 301 339>
VStem: 124 352<648 649>
LayerCount: 2
Fore
SplineSet
264 492 m 1
 124 648 l 1
 162 668 l 1
 301 548 l 1
 437 669 l 1
 476 649 l 1
 339 492 l 1
 264 492 l 1
EndSplineSet
EndChar

StartChar: ccedilla
Encoding: 304 231 97
Width: 600
Flags: HMW
HStem: -162 21G 10 50<279 279 327 327> 388 53<253.5 339.5>
VStem: 68 55 276 94 324 46<-95 -67> 465 55<267 341 341 341 396 441 267 441>
LayerCount: 2
Fore
SplineSet
279 10 m 1
 165 21 68 102 68 230 c 0
 68 316 137 441 312 441 c 0
 370 441 418 425 465 396 c 1
 465 441 l 1
 520 441 l 1
 520 267 l 1
 465 267 l 1
 465 341 l 1
 421 375 368 388 311 388 c 0
 196 388 114 311 114 227 c 0
 114 166 167 60 324 60 c 0
 405 60 484 115 509 136 c 1
 531 84 l 1
 476 43 410 14 327 10 c 1
 327 -14 l 1
 346 -16 370 -36 370 -73 c 0
 370 -117 336 -151 297 -151 c 0
 289 -151 271 -150 241 -132 c 1
 255 -94 l 1
 278 -116 324 -110 324 -80 c 0
 324 -54 291 -54 274 -61 c 1
 279 10 l 1
EndSplineSet
EndChar

StartChar: cedilla
Encoding: 203 184 98
Width: 600
Flags: HMW
HStem: -151 40<279.5 295.5 279.5 306.5> -63 40<291 323>
VStem: 273 50<-23 10> 319 50<-95.5 -81.5>
LayerCount: 2
Fore
SplineSet
231 -135 m 1
 246 -98 l 1
 256 -106 272 -111 287 -111 c 0
 304 -111 319 -104 319 -87 c 0
 319 -76 314 -63 295 -63 c 0
 287 -63 278 -64 265 -68 c 1
 273 10 l 1
 323 10 l 1
 323 -23 l 1
 343 -25 369 -43 369 -78 c 0
 369 -123 328 -151 285 -151 c 0
 266 -151 248 -146 231 -135 c 1
EndSplineSet
EndChar

StartChar: cent
Encoding: 162 162 99
Width: 600
Flags: HMW
HStem: -49 21G<268 268 268 324> 93 55<268 268 324 324> 404 55<268 268>
VStem: 98 54<244.5 306 244.5 333.5> 268 56<-49 93 -49 93 459 617> 433 54<315 369 369 369 430 483 315 483>
LayerCount: 2
Fore
SplineSet
268 -49 m 1
 268 93 l 1
 184 98 98 156 98 272 c 0
 98 395 195 452 268 459 c 1
 268 617 l 1
 324 617 l 1
 324 459 l 1
 362 455 391 452 433 430 c 1
 433 483 l 1
 487 483 l 1
 487 315 l 1
 433 315 l 1
 433 369 l 1
 391 395 351 404 306 404 c 0
 208 404 152 342 152 270 c 0
 152 219 191 148 310 148 c 0
 374 148 427 172 479 204 c 1
 501 154 l 1
 465 123 393 95 324 93 c 1
 324 -49 l 1
 268 -49 l 1
EndSplineSet
EndChar

StartChar: circumflex
Encoding: 195 710 100
Width: 600
Flags: HMW
HStem: 597 57<300 300>
VStem: 124 352<495 495>
LayerCount: 2
Fore
SplineSet
162 477 m 1
 124 495 l 1
 263 654 l 1
 338 654 l 1
 476 495 l 1
 437 477 l 1
 300 597 l 1
 162 477 l 1
EndSplineSet
EndChar

StartChar: colon
Encoding: 58 58 101
Width: 600
Flags: HMW
HStem: 105 122<280.5 319.5> 383 122<280.5 319.5>
VStem: 229 142<146.5 185.5 424.5 463.5>
LayerCount: 2
Fore
SplineSet
229 166 m 0
 229 205 261 227 300 227 c 0
 339 227 371 205 371 166 c 0
 371 127 339 105 300 105 c 0
 261 105 229 127 229 166 c 0
229 444 m 0
 229 483 261 505 300 505 c 0
 339 505 371 483 371 444 c 0
 371 405 339 383 300 383 c 0
 261 383 229 405 229 444 c 0
EndSplineSet
EndChar

StartChar: comma
Encoding: 44 44 102
Width: 600
Flags: HMW
VStem: 218 163
LayerCount: 2
Fore
SplineSet
218 -112 m 1
 288 122 l 1
 381 122 l 1
 281 -112 l 1
 218 -112 l 1
EndSplineSet
EndChar

StartChar: copyright
Encoding: 305 169 103
Width: 600
Flags: HMW
HStem: -18 46<233.5 372 233.5 381.5> 115 53<284 333 284 338.5> 408 48<283 327.5> 536 44<223.5 371.5>
VStem: 0 46<208 345 208 370> 149 47<246.5 321.5 246.5 331> 555 45<208 347.5>
LayerCount: 2
Fore
SplineSet
417 207 m 1
 449 173 l 1
 414 134 363 115 314 115 c 0
 230 115 149 175 149 282 c 0
 149 380 226 456 314 456 c 0
 353 456 399 443 432 409 c 1
 399 376 l 1
 380 398 341 408 314 408 c 0
 252 408 196 361 196 282 c 0
 196 211 254 168 314 168 c 0
 352 168 391 179 417 207 c 1
46 279 m 0
 46 137 166 28 301 28 c 0
 443 28 555 137 555 279 c 0
 555 416 442 536 301 536 c 0
 145 536 46 411 46 279 c 0
0 279 m 0
 0 461 146 580 301 580 c 0
 459 580 600 462 600 279 c 0
 600 104 462 -18 301 -18 c 0
 134 -18 0 115 0 279 c 0
EndSplineSet
EndChar

StartChar: currency
Encoding: 168 164 104
Width: 600
Flags: HMW
HStem: 76 47<284.5 325> 441 47<278 327 278 349>
VStem: 94 47<260 304> 459 48<260 307.5 260 323>
LayerCount: 2
Fore
SplineSet
141 282 m 0
 141 193 213 123 301 123 c 0
 384 123 459 185 459 282 c 0
 459 364 396 441 302 441 c 0
 203 441 141 361 141 282 c 0
73 86 m 1
 140 152 l 1
 109 188 94 236 94 284 c 0
 94 324 104 368 139 412 c 1
 73 475 l 1
 104 506 l 1
 167 442 l 1
 203 472 253 488 303 488 c 0
 351 488 397 474 434 443 c 1
 496 506 l 1
 527 477 l 1
 463 413 l 1
 493 378 507 331 507 284 c 0
 507 236 492 189 463 151 c 1
 527 87 l 1
 497 58 l 1
 435 121 l 1
 397 92 350 76 300 76 c 0
 269 76 223 81 170 121 c 1
 105 58 l 1
 73 86 l 1
EndSplineSet
EndChar

StartChar: d
Encoding: 100 100 105
Width: 600
Flags: HMW
HStem: -15 55<200.5 292> -2 55<491 573 491 573> 386 60<205.5 287.5 190.5 318.5> 574 55<306 435 306 491>
VStem: 27 57<173.5 263 173.5 281.5> 435 56<53 72 72 72 354 574 574 574>
LayerCount: 2
Fore
SplineSet
84 217 m 0
 84 130 144 40 257 40 c 0
 360 40 430 115 430 221 c 0
 430 290 380 386 257 386 c 0
 154 386 84 309 84 217 c 0
435 -2 m 1
 435 72 l 1
 395 14 328 -15 256 -15 c 0
 106 -15 27 101 27 217 c 0
 27 346 121 446 260 446 c 0
 315 446 390 430 435 354 c 1
 435 574 l 1
 306 574 l 1
 306 629 l 1
 491 629 l 1
 491 53 l 1
 573 53 l 1
 573 -2 l 1
 435 -2 l 1
EndSplineSet
EndChar

StartChar: dagger
Encoding: 178 8224 106
Width: 600
Flags: HMW
HStem: 360 55<141 273 141 273 328 459> 560 20G<273 328 328 328>
VStem: 273 55<-79 360 -79 360 415 580>
LayerCount: 2
Fore
SplineSet
273 -79 m 1
 273 360 l 1
 141 360 l 1
 141 415 l 1
 273 415 l 1
 273 580 l 1
 328 580 l 1
 328 415 l 1
 459 415 l 1
 459 360 l 1
 328 360 l 1
 328 -79 l 1
 273 -79 l 1
EndSplineSet
EndChar

StartChar: daggerdbl
Encoding: 179 8225 107
Width: 600
Flags: HMW
HStem: 69 309<141 270 141 270 141 331 331 459> 128 310<141 270 141 270 331 459 141 459>
VStem: 141 190<-78 128 -78 128>
LayerCount: 2
Fore
SplineSet
141 69 m 1
 141 128 l 1
 270 128 l 1
 270 378 l 1
 141 378 l 1
 141 438 l 1
 270 438 l 1
 270 580 l 1
 331 580 l 1
 331 438 l 1
 459 438 l 1
 459 378 l 1
 331 378 l 1
 331 128 l 1
 459 128 l 1
 459 69 l 1
 331 69 l 1
 331 -78 l 1
 270 -78 l 1
 270 69 l 1
 141 69 l 1
EndSplineSet
EndChar

StartChar: degree
Encoding: 306 176 108
Width: 600
Flags: HMW
HStem: 272 62 560 62<262 344.5>
VStem: 123 62<417 469.5 417 493.5> 412 65<412 463.5>
LayerCount: 2
Fore
SplineSet
185 445 m 0
 185 389 231 331 300 331 c 0
 362 331 412 379 412 445 c 0
 412 482 387 560 302 560 c 0
 222 560 185 494 185 445 c 0
123 445 m 0
 123 542 200 622 302 622 c 0
 426 622 477 525 477 448 c 0
 477 341 396 269 300 269 c 0
 198 269 123 350 123 445 c 0
EndSplineSet
EndChar

StartChar: dieresis
Encoding: 200 168 109
Width: 600
Flags: HMW
HStem: 492 103<147 259 147 259 340 452 147 340>
VStem: 147 112<492 595 492 595> 340 112<492 595 492 595>
LayerCount: 2
Fore
SplineSet
340 492 m 1
 340 595 l 1
 452 595 l 1
 452 492 l 1
 340 492 l 1
147 492 m 1
 147 595 l 1
 259 595 l 1
 259 492 l 1
 147 492 l 1
EndSplineSet
EndChar

StartChar: divide
Encoding: 307 247 110
Width: 600
Flags: HMW
HStem: 48 104<283.5 312.5> 226 63<87 513 87 513> 363 104<283.5 312.5>
VStem: 246 104<85.5 114.5 400.5 429.5>
CounterMasks: 1 e0
LayerCount: 2
Fore
SplineSet
246 100 m 0
 246 129 269 152 298 152 c 0
 327 152 350 129 350 100 c 0
 350 71 327 48 298 48 c 0
 269 48 246 71 246 100 c 0
246 415 m 0
 246 444 269 467 298 467 c 0
 327 467 350 444 350 415 c 0
 350 386 327 363 298 363 c 0
 269 363 246 386 246 415 c 0
87 226 m 1
 87 289 l 1
 513 289 l 1
 513 226 l 1
 87 226 l 1
EndSplineSet
EndChar

StartChar: dollar
Encoding: 36 36 111
Width: 600
Flags: HMW
HStem: -126 21G<271 326 271 271> 14 48<107 161 326 326> 501 52<258.5 270 238 318.5> 548 20G<423 477 477 477> 640 20G<270 325 325 325>
VStem: 108 53<411 411 411 446> 271 55<-126 14 -126 14> 423 54<408 459 459 459 520 568 408 568> 436 56<134 197.5>
LayerCount: 2
Fore
SplineSet
107 14 m 1
 107 181 l 1
 161 181 l 1
 161 125 l 1
 192 88 248 62 308 62 c 0
 378 62 436 100 436 168 c 0
 436 227 349 250 275 271 c 0
 176 298 108 339 108 411 c 0
 108 514 206 553 270 553 c 1
 270 660 l 1
 325 660 l 1
 325 553 l 1
 357 550 400 541 423 520 c 1
 423 568 l 1
 477 568 l 1
 477 408 l 1
 423 408 l 1
 423 459 l 1
 399 486 345 501 292 501 c 0
 225 501 161 476 161 416 c 0
 161 364 248 334 285 323 c 0
 352 303 492 280 492 172 c 0
 492 95 438 23 326 14 c 1
 326 -126 l 1
 271 -126 l 1
 271 14 l 1
 214 22 193 38 161 62 c 1
 161 14 l 1
 107 14 l 1
EndSplineSet
EndChar

StartChar: dotaccent
Encoding: 199 729 112
Width: 600
Flags: HMW
HStem: 477 103<248 351 248 351>
VStem: 248 103<477 580 477 580>
LayerCount: 2
Fore
SplineSet
248 477 m 1
 248 580 l 1
 351 580 l 1
 351 477 l 1
 248 477 l 1
EndSplineSet
EndChar

StartChar: dotlessi
Encoding: 245 305 113
Width: 600
Flags: HMW
HStem: 0 54<95 274 95 274 329 505> 372 54<130 274 130 329>
VStem: 274 55<54 372 372 372>
LayerCount: 2
Fore
SplineSet
95 0 m 1
 95 54 l 1
 274 54 l 1
 274 372 l 1
 130 372 l 1
 130 426 l 1
 329 426 l 1
 329 54 l 1
 505 54 l 1
 505 0 l 1
 95 0 l 1
EndSplineSet
EndChar

StartChar: e
Encoding: 101 101 114
Width: 600
Flags: HMW
HStem: -12 54<292.5 339.5 292.5 347.5> 210 55<120 471 122 471 122 530> 391 56<245.5 371>
VStem: 63 57<175.5 202 202 210 175.5 286>
LayerCount: 2
Fore
SplineSet
122 265 m 1
 471 265 l 1
 471 290 440 391 302 391 c 0
 189 391 130 324 122 265 c 1
120 210 m 1
 120 202 l 2
 120 149 150 95 186 72 c 0
 224 48 269 42 316 42 c 0
 363 42 445 49 519 88 c 1
 536 35 l 1
 472 2 388 -12 307 -12 c 0
 132 -12 63 99 63 217 c 0
 63 355 169 447 302 447 c 0
 463 447 530 336 530 210 c 1
 120 210 l 1
EndSplineSet
EndChar

StartChar: eacute
Encoding: 308 233 115
Width: 600
Flags: HMW
HStem: -15 55<268.5 341 268.5 349> 199 56<117 472 119 472 119 535> 393 56<240 364.5>
VStem: 59 58<147 199 142 276.5> 472 63<255 255>
LayerCount: 2
Fore
SplineSet
119 255 m 1
 472 255 l 1
 461 300 431 393 298 393 c 0
 182 393 127 315 119 255 c 1
117 199 m 1
 117 85 220 40 317 40 c 0
 365 40 444 58 524 102 c 1
 541 49 l 1
 475 12 390 -15 308 -15 c 0
 129 -15 59 87 59 207 c 0
 59 346 162 449 298 449 c 0
 465 449 535 327 535 199 c 1
 117 199 l 1
178 493 m 1
 166 524 l 1
 437 672 l 1
 471 596 l 1
 178 493 l 1
EndSplineSet
EndChar

StartChar: ecircumflex
Encoding: 309 234 116
Width: 600
Flags: HMW
HStem: -15 55<268.5 341 268.5 349> 199 56<117 472 119 472 119 535> 393 56<240 364.5>
VStem: 59 58<147 199 142 276.5> 472 63<255 255>
LayerCount: 2
Fore
SplineSet
119 255 m 1
 472 255 l 1
 461 300 431 393 298 393 c 0
 182 393 127 315 119 255 c 1
117 199 m 1
 117 85 220 40 317 40 c 0
 365 40 444 58 524 102 c 1
 541 49 l 1
 475 12 390 -15 308 -15 c 0
 129 -15 59 87 59 207 c 0
 59 346 162 449 298 449 c 0
 465 449 535 327 535 199 c 1
 117 199 l 1
152 489 m 1
 110 507 l 1
 263 664 l 1
 344 664 l 1
 496 507 l 1
 453 489 l 1
 304 607 l 1
 152 489 l 1
EndSplineSet
EndChar

StartChar: edieresis
Encoding: 310 235 117
Width: 600
Flags: HMW
HStem: -15 55<268.5 341 268.5 349> 199 56<117 472 119 472 119 535> 393 56<240 364.5> 530 115<179 266 179 266 179 330 330 415>
VStem: 59 58<147 199 142 276.5> 472 63<255 255>
LayerCount: 2
Fore
SplineSet
119 255 m 1
 472 255 l 1
 461 300 431 393 298 393 c 0
 182 393 127 315 119 255 c 1
117 199 m 1
 117 85 220 40 317 40 c 0
 365 40 444 58 524 102 c 1
 541 49 l 1
 475 12 390 -15 308 -15 c 0
 129 -15 59 87 59 207 c 0
 59 346 162 449 298 449 c 0
 465 449 535 327 535 199 c 1
 117 199 l 1
179 530 m 1
 179 645 l 1
 266 645 l 1
 266 530 l 1
 179 530 l 1
330 530 m 1
 330 645 l 1
 415 645 l 1
 415 530 l 1
 330 530 l 1
EndSplineSet
EndChar

StartChar: egrave
Encoding: 311 232 118
Width: 600
Flags: HMW
HStem: -15 55<268.5 341 268.5 349> 199 56<117 472 119 472 119 535> 394 56
VStem: 59 58<147 199 142 276.5> 472 63<255 255>
LayerCount: 2
Fore
SplineSet
119 255 m 1
 472 255 l 1
 461 300 431 393 298 393 c 0
 182 393 127 315 119 255 c 1
117 199 m 1
 117 85 220 40 317 40 c 0
 365 40 444 58 524 102 c 1
 541 49 l 1
 475 12 390 -15 308 -15 c 0
 129 -15 59 87 59 207 c 0
 59 346 162 449 298 449 c 0
 465 449 535 327 535 199 c 1
 117 199 l 1
157 596 m 1
 191 672 l 1
 462 524 l 1
 450 493 l 1
 157 596 l 1
EndSplineSet
EndChar

StartChar: eight
Encoding: 56 56 119
Width: 600
Flags: HMW
HStem: -15 50<260 338 260 362.5> 281 55<265 333 265 338> 570 52<265 333>
VStem: 102 57<124 192 124 204> 117 58<423.5 489 423 506> 423 59<423 487 412.5 489> 440 58<124 192>
LayerCount: 2
Fore
SplineSet
175 456 m 0
 175 390 231 336 299 336 c 0
 367 336 423 390 423 456 c 0
 423 522 367 570 299 570 c 0
 231 570 175 522 175 456 c 0
159 158 m 0
 159 90 221 35 299 35 c 0
 377 35 440 90 440 158 c 0
 440 226 377 281 299 281 c 0
 221 281 159 226 159 158 c 0
194 312 m 1
 162 332 117 391 117 456 c 0
 117 556 197 622 302 622 c 0
 437 622 482 518 482 456 c 0
 482 369 429 323 398 312 c 1
 434 297 498 253 498 158 c 0
 498 59 427 -15 298 -15 c 0
 162 -15 102 65 102 156 c 0
 102 252 172 299 194 312 c 1
EndSplineSet
EndChar

StartChar: ellipsis
Encoding: 188 8230 120
Width: 600
Flags: HMW
HStem: -15 126<82 116.5 282 316.5 482 516>
VStem: 37 125<31.5 62.5 28.5 64.5> 235 128<31.5 62.5 28.5 64.5> 436 127<31.5 62.5 28.5 64.5>
LayerCount: 2
Fore
SplineSet
37 47 m 0
 37 82 64 111 100 111 c 0
 138 111 162 79 162 46 c 0
 162 11 132 -15 101 -15 c 0
 61 -15 37 16 37 47 c 0
235 47 m 0
 235 82 263 111 301 111 c 0
 339 111 363 79 363 46 c 0
 363 11 332 -15 301 -15 c 0
 260 -15 235 16 235 47 c 0
436 47 m 0
 436 82 464 111 500 111 c 0
 538 111 563 79 563 46 c 0
 563 11 531 -15 501 -15 c 0
 461 -15 436 16 436 47 c 0
EndSplineSet
EndChar

StartChar: emdash
Encoding: 208 8212 121
Width: 600
Flags: HMW
HStem: 231 54<0 600 0 600>
VStem: 0 600<231 285 231 285>
LayerCount: 2
Fore
SplineSet
0 231 m 1
 0 285 l 1
 600 285 l 1
 600 231 l 1
 0 231 l 1
EndSplineSet
EndChar

StartChar: endash
Encoding: 177 8211 122
Width: 600
Flags: HMW
HStem: 231 54<75 525 75 525>
VStem: 75 450<231 285 231 285>
LayerCount: 2
Fore
SplineSet
75 231 m 1
 75 285 l 1
 525 285 l 1
 525 231 l 1
 75 231 l 1
EndSplineSet
EndChar

StartChar: equal
Encoding: 61 61 123
Width: 600
Flags: HMW
HStem: 138 60<90 509 90 509> 314 61
VStem: 90 419<138 198 138 198 315 376 138 376>
LayerCount: 2
Fore
SplineSet
90 138 m 1
 90 198 l 1
 509 198 l 1
 509 138 l 1
 90 138 l 1
90 315 m 1
 90 376 l 1
 509 376 l 1
 509 315 l 1
 90 315 l 1
EndSplineSet
EndChar

StartChar: eth
Encoding: 312 240 124
Width: 600
Flags: HMW
HStem: -15 52<244 351 244 381> 372 52<235 320.5 214 366>
VStem: 62 53<158 251.5 158 253.5> 479 59<221 224 221 236>
LayerCount: 2
Fore
SplineSet
115 204 m 0
 115 112 189 37 299 37 c 0
 403 37 479 104 479 205 c 0
 479 267 442 372 290 372 c 0
 180 372 115 299 115 204 c 0
219 453 m 1
 193 494 l 1
 273 552 l 1
 243 565 203 574 172 577 c 1
 190 624 l 1
 232 618 288 607 325 588 c 1
 435 661 l 1
 461 615 l 1
 375 557 l 1
 500 466 538 314 538 224 c 2
 538 221 l 2
 536 100 464 -15 298 -15 c 0
 164 -15 62 69 62 204 c 0
 62 303 133 424 295 424 c 0
 346 424 406 412 442 382 c 1
 436 395 398 476 324 523 c 1
 219 453 l 1
EndSplineSet
EndChar

StartChar: exclam
Encoding: 33 33 125
Width: 600
Flags: HMW
HStem: -15 128<280.5 318 280.5 320> 557 20G
VStem: 236 128<32.5 63.5> 269 66
LayerCount: 2
Fore
SplineSet
236 48 m 0
 236 79 259 113 302 113 c 0
 334 113 364 81 364 49 c 0
 364 16 340 -15 300 -15 c 0
 261 -15 236 17 236 48 c 0
278 181 m 1
 260 569 l 1
 344 569 l 1
 326 181 l 1
 278 181 l 1
EndSplineSet
EndChar

StartChar: exclamdown
Encoding: 161 161 126
Width: 600
Flags: HMW
HStem: -157 21G<261 261 261 339> 310 120<282 318.5 279 321>
VStem: 270 61
LayerCount: 2
Fore
SplineSet
261 -157 m 1
 279 240 l 1
 323 240 l 1
 339 -157 l 1
 261 -157 l 1
236 369 m 0
 236 402 259 430 299 430 c 0
 338 430 364 400 364 370 c 0
 364 340 342 310 300 310 c 0
 264 310 236 337 236 369 c 0
EndSplineSet
EndChar

StartChar: f
Encoding: 102 102 127
Width: 600
Flags: HMW
HStem: 0 55<91 196 91 196 252 468> 379 55<91 196 91 196 252 458> 573 55<367 385 365 386>
VStem: 196 56<55 379 55 379 55 434>
LayerCount: 2
Fore
SplineSet
91 0 m 1
 91 55 l 1
 196 55 l 1
 196 379 l 1
 91 379 l 1
 91 434 l 1
 196 434 l 1
 197 596 225 629 365 628 c 0
 405 628 475 618 508 613 c 1
 503 557 l 1
 467 563 405 573 367 573 c 0
 252 572 253 559 252 434 c 1
 458 434 l 1
 458 379 l 1
 252 379 l 1
 252 55 l 1
 468 55 l 1
 468 0 l 1
 91 0 l 1
EndSplineSet
EndChar

StartChar: fi
Encoding: 174 64257 128
Width: 600
Flags: HMW
HStem: 0 53<3 109 3 109 164 270 331 435 490 597> 374 53<3 109 3 109 164 270 354 435> 510 121
VStem: 109 55<53 374 53 374 427 493> 435 55<53 374 374 374>
LayerCount: 2
Fore
SplineSet
3 0 m 1
 3 53 l 1
 109 53 l 1
 109 374 l 1
 3 374 l 1
 3 427 l 1
 109 427 l 1
 109 499 l 2
 109 590 170 631 249 631 c 0
 272 631 298 627 323 620 c 1
 314 569 l 1
 231 592 164 573 164 493 c 2
 164 427 l 1
 270 427 l 1
 270 374 l 1
 164 374 l 1
 164 53 l 1
 270 53 l 1
 270 0 l 1
 3 0 l 1
331 0 m 1
 331 53 l 1
 435 53 l 1
 435 374 l 1
 354 374 l 1
 354 427 l 1
 490 427 l 1
 490 53 l 1
 597 53 l 1
 597 0 l 1
 331 0 l 1
419 510 m 1
 419 629 l 1
 490 629 l 1
 490 510 l 1
 419 510 l 1
EndSplineSet
EndChar

StartChar: five
Encoding: 53 53 129
Width: 600
Flags: HMW
HStem: -15 56<281 281> 314 62<284 341.5> 548 59<190 466 190 190>
VStem: 128 62<344 548 344 607 344 607> 439 62
LayerCount: 2
Fore
SplineSet
97 28 m 1
 118 86 l 1
 169 55 227 40 281 41 c 0
 366 42 439 84 439 180 c 0
 439 266 379 314 304 314 c 0
 261 314 213 298 170 262 c 1
 128 286 l 1
 128 607 l 1
 466 607 l 1
 466 548 l 1
 190 548 l 1
 190 344 l 1
 232 365 264 376 304 376 c 0
 417 376 500 303 501 183 c 0
 502 66 417 -15 281 -15 c 0
 226 -15 168 -3 97 28 c 1
EndSplineSet
EndChar

StartChar: fl
Encoding: 175 64258 130
Width: 600
Flags: HMW
HStem: 0 55<331 437 331 437 491 597> 374 53<3 109 3 109 164 270> 573 56<346 437 346 491> 611 20G<209.5 260.5>
VStem: 109 55<53 374 53 374 427 493> 437 54<55 573 573 573>
LayerCount: 2
Fore
SplineSet
3 0 m 1
 3 53 l 1
 109 53 l 1
 109 374 l 1
 3 374 l 1
 3 427 l 1
 109 427 l 1
 109 499 l 2
 109 590 170 631 249 631 c 0
 272 631 298 627 323 620 c 1
 314 569 l 1
 231 592 164 573 164 493 c 2
 164 427 l 1
 270 427 l 1
 270 374 l 1
 164 374 l 1
 164 53 l 1
 270 53 l 1
 270 0 l 1
 3 0 l 1
331 0 m 1
 331 55 l 1
 437 55 l 1
 437 573 l 1
 346 573 l 1
 346 629 l 1
 491 629 l 1
 491 55 l 1
 597 55 l 1
 597 0 l 1
 331 0 l 1
EndSplineSet
EndChar

StartChar: florin
Encoding: 166 402 131
Width: 600
Flags: HMW
HStem: -143 59<52 52 52 101 32 52> 355 57<195 293 189 303 195 349 359 456> 565 57<479.5 497>
VStem: 32 535
LayerCount: 2
Fore
SplineSet
52 -84 m 1
 165 -99 215 -80 235 34 c 2
 293 355 l 1
 189 355 l 1
 195 412 l 1
 303 412 l 1
 314 472 317 536 358 578 c 0
 395 617 452 622 507 622 c 2
 567 619 l 1
 553 561 l 1
 535 562 506 565 488 565 c 0
 375 565 382 527 359 412 c 1
 463 412 l 1
 456 355 l 1
 349 355 l 1
 290 27 l 2
 270 -83 253 -143 101 -143 c 2
 32 -143 l 1
 52 -84 l 1
EndSplineSet
EndChar

StartChar: four
Encoding: 52 52 132
Width: 600
Flags: HMW
HStem: 10 56 196 60 602 20G<337 424 424 424>
VStem: 362 62<56 187 56 187 247 564 564 564>
LayerCount: 2
Fore
SplineSet
154 247 m 1
 362 247 l 1
 362 564 l 1
 154 247 l 1
89 187 m 1
 89 241 l 1
 337 622 l 1
 424 622 l 1
 424 247 l 1
 511 247 l 1
 511 187 l 1
 424 187 l 1
 424 56 l 1
 511 56 l 1
 511 0 l 1
 252 0 l 1
 252 56 l 1
 362 56 l 1
 362 187 l 1
 89 187 l 1
EndSplineSet
EndChar

StartChar: fraction
Encoding: 164 8260 133
Width: 600
Flags: HMW
HStem: -57 722<131 469>
VStem: 91 417
LayerCount: 2
Fore
SplineSet
91 -37 m 1
 469 665 l 1
 508 643 l 1
 131 -57 l 1
 91 -37 l 1
EndSplineSet
EndChar

StartChar: g
Encoding: 103 103 134
Width: 600
Flags: HMW
HStem: -157 51<263.5 342 263.5 360> 57 52<217 298.5> 389 52<222 306.5 192 327> 409 20G<445 560 560 560>
VStem: 39 53<209 289.5 209 291.5> 445 53<9 126 126 126 355 378>
LayerCount: 2
Fore
SplineSet
92 247 m 0
 92 171 167 109 267 109 c 0
 365 109 442 168 442 249 c 0
 442 300 385 389 269 389 c 0
 175 389 92 332 92 247 c 0
83 -79 m 1
 135 -90 230 -106 297 -106 c 0
 387 -106 445 -79 445 9 c 2
 445 126 l 1
 405 79 331 57 266 57 c 0
 111 57 39 156 39 247 c 0
 39 336 117 441 267 441 c 0
 346 441 418 404 445 355 c 1
 445 429 l 1
 560 429 l 1
 560 378 l 1
 498 378 l 1
 498 -3 l 2
 498 -104 421 -157 299 -157 c 0
 217 -157 124 -140 72 -129 c 1
 83 -79 l 1
EndSplineSet
EndChar

StartChar: gcaron
Encoding: 313 487 135
Width: 600
Flags: HMW
HStem: -157 51 -106 163 57 52<217 298.5> 389 52<222 306.5 192 338> 409 20G<445 560 560 560> 441 50<267 267 267 306.5>
VStem: 39 53<209 289.5 209 291.5> 445 53<9 126 126 126 375 378>
LayerCount: 2
Fore
SplineSet
267 491 m 1
 116 650 l 1
 157 669 l 1
 309 548 l 1
 456 669 l 1
 499 651 l 1
 349 491 l 1
 267 491 l 1
92 247 m 0
 92 171 167 109 267 109 c 0
 365 109 442 168 442 249 c 0
 442 300 407 389 269 389 c 0
 175 389 92 332 92 247 c 0
83 -72 m 1
 83 -74 l 1
 135 -85 230 -105 297 -106 c 0
 387 -107 445 -79 445 9 c 2
 445 126 l 1
 405 79 331 57 266 57 c 0
 111 57 39 156 39 247 c 0
 39 336 117 441 267 441 c 0
 346 441 412 410 445 375 c 1
 445 429 l 1
 560 429 l 1
 560 378 l 1
 498 378 l 1
 498 -3 l 2
 498 -104 421 -157 299 -157 c 0
 217 -157 124 -140 72 -129 c 1
 83 -72 l 1
EndSplineSet
EndChar

StartChar: germandbls
Encoding: 251 223 136
Width: 600
Flags: HMW
HStem: -15 53 -2 56<30 111 30 111 30 166> 385 55<30 111 30 111> 574 55<239.5 329.5>
VStem: 111 55<54 385 385 385 440 481 -2 518.5> 244 57<322.5 363 322.5 369.5> 432 55<493 544.5> 515 55<98 151>
LayerCount: 2
Fore
SplineSet
30 -2 m 1
 30 54 l 1
 111 54 l 1
 111 385 l 1
 30 385 l 1
 30 440 l 1
 111 440 l 1
 111 597 139 629 305 629 c 0
 401 629 487 604 487 520 c 0
 487 453 456 438 399 415 c 0
 349 395 301 383 301 343 c 0
 301 302 352 287 412 267 c 0
 487 242 570 211 570 135 c 0
 570 30 475 -15 378 -15 c 0
 309 -15 238 3 199 33 c 1
 221 88 l 1
 244 63 318 35 388 38 c 0
 455 41 515 68 515 128 c 0
 515 174 477 185 346 235 c 0
 298 254 244 282 244 344 c 0
 244 395 288 420 333 440 c 0
 387 465 432 468 432 518 c 0
 432 571 368 574 291 574 c 0
 188 574 166 564 166 481 c 2
 166 -2 l 1
 30 -2 l 1
EndSplineSet
EndChar

StartChar: grave
Encoding: 193 96 137
Width: 600
Flags: HMW
HStem: 497 175<232 396>
VStem: 186 227<526 603>
LayerCount: 2
Fore
SplineSet
396 497 m 1
 186 603 l 1
 232 672 l 1
 413 526 l 1
 396 497 l 1
EndSplineSet
EndChar

StartChar: greater
Encoding: 62 62 138
Width: 600
Flags: HMW
HStem: 42 69<101 101> 410 62<101 101>
VStem: 432 67<259 259>
LayerCount: 2
Fore
SplineSet
499 297 m 1
 499 220 l 1
 101 42 l 1
 101 111 l 1
 432 259 l 1
 101 410 l 1
 101 472 l 1
 499 297 l 1
EndSplineSet
EndChar

StartChar: guillemotleft
Encoding: 171 171 139
Width: 600
Flags: HMW
HStem: 70 376<317 321 317 491>
VStem: 92 416<117 258>
LayerCount: 2
Fore
SplineSet
92 258 m 1
 317 446 l 1
 339 397 l 1
 170 258 l 1
 342 117 l 1
 321 70 l 1
 92 258 l 1
257 258 m 1
 489 446 l 1
 508 399 l 1
 339 258 l 1
 508 117 l 1
 491 70 l 1
 257 258 l 1
EndSplineSet
EndChar

StartChar: guillemotright
Encoding: 187 187 140
Width: 600
Flags: HMW
HStem: 70 376<110 110 110 281>
VStem: 92 416<117 258 258 399>
LayerCount: 2
Fore
SplineSet
281 70 m 1
 258 117 l 1
 430 258 l 1
 261 397 l 1
 285 446 l 1
 508 258 l 1
 281 70 l 1
110 70 m 1
 92 117 l 1
 261 258 l 1
 92 399 l 1
 110 446 l 1
 343 258 l 1
 110 70 l 1
EndSplineSet
EndChar

StartChar: guilsinglleft
Encoding: 172 8249 141
Width: 600
Flags: HMW
HStem: 70 376<422 422>
VStem: 151 297<110 258>
LayerCount: 2
Fore
SplineSet
151 258 m 1
 422 446 l 1
 448 405 l 1
 238 258 l 1
 448 110 l 1
 422 70 l 1
 151 258 l 1
EndSplineSet
EndChar

StartChar: guilsinglright
Encoding: 173 8250 142
Width: 600
Flags: HMW
HStem: 70 376<178 178>
VStem: 155 294<110 258>
LayerCount: 2
Fore
SplineSet
178 70 m 1
 155 110 l 1
 362 258 l 1
 151 405 l 1
 178 446 l 1
 449 258 l 1
 178 70 l 1
EndSplineSet
EndChar

StartChar: h
Encoding: 104 104 143
Width: 600
Flags: HMW
HStem: 0 55<19 106 19 106 162 258 356 441 497 582> 403 55<308.5 383.5> 574 55<18 106 18 162>
VStem: 106 56<55 316 376 574 574 574> 441 56<55 298 298 320 55 325.5>
LayerCount: 2
Fore
SplineSet
19 0 m 1
 19 55 l 1
 106 55 l 1
 106 574 l 1
 18 574 l 1
 18 629 l 1
 162 629 l 1
 162 376 l 1
 215 421 276 458 341 458 c 0
 468 458 497 383 497 320 c 2
 497 55 l 1
 582 55 l 1
 582 0 l 1
 356 0 l 1
 356 55 l 1
 441 55 l 1
 441 298 l 2
 441 353 426 403 341 403 c 0
 274 403 210 359 162 316 c 1
 162 55 l 1
 258 55 l 1
 258 0 l 1
 19 0 l 1
EndSplineSet
EndChar

StartChar: hungarumlaut
Encoding: 205 733 144
Width: 600
Flags: HMW
HStem: 497 175<159 285 285 299>
VStem: 131 338<521 621>
LayerCount: 2
Fore
SplineSet
271 521 m 1
 425 672 l 1
 469 621 l 1
 299 497 l 1
 271 521 l 1
131 521 m 1
 285 672 l 1
 329 621 l 1
 159 497 l 1
 131 521 l 1
EndSplineSet
EndChar

StartChar: hyphen
Encoding: 45 45 145
Width: 600
Flags: HMW
HStem: 231 54<103 497 103 497>
VStem: 103 394<231 285 231 285>
LayerCount: 2
Fore
SplineSet
103 231 m 1
 103 285 l 1
 497 285 l 1
 497 231 l 1
 103 231 l 1
EndSplineSet
EndChar

StartChar: i
Encoding: 105 105 146
Width: 600
Flags: HMW
HStem: 0 55<95 273 95 273 330 505> 380 55<129 273 129 330> 533 124<257 330 257 330>
VStem: 273 57<55 380 380 380>
LayerCount: 2
Fore
SplineSet
95 0 m 1
 95 55 l 1
 273 55 l 1
 273 380 l 1
 129 380 l 1
 129 435 l 1
 330 435 l 1
 330 55 l 1
 505 55 l 1
 505 0 l 1
 95 0 l 1
257 533 m 1
 257 657 l 1
 330 657 l 1
 330 533 l 1
 257 533 l 1
EndSplineSet
EndChar

StartChar: iacute
Encoding: 314 237 147
Width: 600
Flags: HMW
HStem: 0 55<95 274 95 274 330 505> 382 55<130 274 130 330>
VStem: 274 56<55 382 382 382>
LayerCount: 2
Fore
SplineSet
95 0 m 1
 95 55 l 1
 274 55 l 1
 274 382 l 1
 130 382 l 1
 130 437 l 1
 330 437 l 1
 330 55 l 1
 505 55 l 1
 505 0 l 1
 95 0 l 1
157 494 m 1
 145 525 l 1
 414 672 l 1
 448 596 l 1
 157 494 l 1
EndSplineSet
EndChar

StartChar: icircumflex
Encoding: 315 238 148
Width: 600
Flags: HMW
HStem: 0 55<95 274 95 274 330 505> 384 55 598 56<284 284>
VStem: 274 56<55 382 382 382>
LayerCount: 2
Fore
SplineSet
95 0 m 1
 95 55 l 1
 274 55 l 1
 274 382 l 1
 130 382 l 1
 130 437 l 1
 330 437 l 1
 330 55 l 1
 505 55 l 1
 505 0 l 1
 95 0 l 1
94 498 m 1
 244 654 l 1
 325 654 l 1
 474 498 l 1
 431 480 l 1
 284 598 l 1
 135 480 l 1
 94 498 l 1
EndSplineSet
EndChar

StartChar: idieresis
Encoding: 316 239 149
Width: 600
Flags: HMW
HStem: 0 55<95 274 95 274 330 505> 382 55<130 274 130 330> 530 115<166 253 166 253 166 317 317 402>
VStem: 166 87<530 645 530 645> 274 56<55 382 382 382> 317 85<530 645 530 645>
LayerCount: 2
Fore
SplineSet
166 530 m 1
 166 645 l 1
 253 645 l 1
 253 530 l 1
 166 530 l 1
317 530 m 1
 317 645 l 1
 402 645 l 1
 402 530 l 1
 317 530 l 1
95 0 m 1
 95 55 l 1
 274 55 l 1
 274 382 l 1
 130 382 l 1
 130 437 l 1
 330 437 l 1
 330 55 l 1
 505 55 l 1
 505 0 l 1
 95 0 l 1
EndSplineSet
EndChar

StartChar: igrave
Encoding: 317 236 150
Width: 600
Flags: HMW
HStem: 0 55<95 274 95 274 330 505> 382 55<130 274 130 330>
VStem: 274 56<55 382 382 382>
LayerCount: 2
Fore
SplineSet
95 0 m 1
 95 55 l 1
 274 55 l 1
 274 382 l 1
 130 382 l 1
 130 437 l 1
 330 437 l 1
 330 55 l 1
 505 55 l 1
 505 0 l 1
 95 0 l 1
136 596 m 1
 170 672 l 1
 440 525 l 1
 429 494 l 1
 136 596 l 1
EndSplineSet
EndChar

StartChar: ij
Encoding: 318 307 151
Width: 600
Flags: HMW
HStem: -157 54<73 132 189 244 73 132 378 433.5> 379 58<368 466 368 526> 536 124
VStem: 132 57<-103 380 380 380> 466 60<27 379 379 379>
LayerCount: 2
Fore
SplineSet
318 -85 m 1
 349 -95 351 -103 404 -103 c 0
 463 -103 466 -62 466 27 c 2
 466 379 l 1
 368 379 l 1
 368 437 l 1
 526 437 l 1
 526 13 l 2
 526 -107 504 -157 404 -157 c 0
 352 -157 309 -145 303 -139 c 1
 318 -85 l 1
428 540 m 1
 428 657 l 1
 502 657 l 1
 502 540 l 1
 428 540 l 1
73 -103 m 1
 132 -103 l 1
 132 380 l 1
 87 380 l 1
 87 435 l 1
 189 435 l 1
 189 -103 l 1
 244 -103 l 1
 244 -157 l 1
 73 -157 l 1
 73 -103 l 1
116 533 m 1
 116 657 l 1
 189 657 l 1
 189 533 l 1
 116 533 l 1
EndSplineSet
EndChar

StartChar: j
Encoding: 106 106 152
Width: 600
Flags: HMW
HStem: -157 54<256 315 255.5 332> 384 53<146 404 146 464> 540 117<366 440 366 440>
VStem: 404 60<27 384 384 384>
LayerCount: 2
Fore
SplineSet
146 -85 m 1
 181 -92 229 -103 282 -103 c 0
 348 -103 404 -62 404 27 c 2
 404 384 l 1
 146 384 l 1
 146 437 l 1
 464 437 l 1
 464 13 l 2
 464 -107 382 -157 282 -157 c 0
 230 -157 178 -150 136 -141 c 1
 146 -85 l 1
366 540 m 1
 366 657 l 1
 440 657 l 1
 440 540 l 1
 366 540 l 1
EndSplineSet
EndChar

StartChar: k
Encoding: 107 107 153
Width: 600
Flags: HMW
HStem: 0 55<31 118 31 118 31 174 351 408 473 568> 381 55<307 354 307 529 430 430 430 529> 574 55<31 118 31 174>
VStem: 118 56<55 198 253 574 574 574>
LayerCount: 2
Fore
SplineSet
31 0 m 1
 31 55 l 1
 118 55 l 1
 118 574 l 1
 31 574 l 1
 31 629 l 1
 174 629 l 1
 174 253 l 1
 354 381 l 1
 307 381 l 1
 307 436 l 1
 529 436 l 1
 529 381 l 1
 430 381 l 1
 271 268 l 1
 347 206 411 134 473 55 c 1
 568 55 l 1
 568 0 l 1
 351 0 l 1
 351 55 l 1
 408 55 l 1
 358 118 273 207 232 240 c 1
 174 198 l 1
 174 0 l 1
 31 0 l 1
EndSplineSet
EndChar

StartChar: l
Encoding: 108 108 154
Width: 600
Flags: HMW
HStem: 0 55<95 274 95 274 329 505> 574 55<114 274 114 329>
VStem: 274 55<55 574 574 574>
LayerCount: 2
Fore
SplineSet
95 0 m 1
 95 55 l 1
 274 55 l 1
 274 574 l 1
 114 574 l 1
 114 629 l 1
 329 629 l 1
 329 55 l 1
 505 55 l 1
 505 0 l 1
 95 0 l 1
EndSplineSet
EndChar

StartChar: less
Encoding: 60 60 155
Width: 600
Flags: HMW
HStem: 42 62<499 499> 403 69<499 499>
VStem: 101 67<255 255 255 294 255 294>
LayerCount: 2
Fore
SplineSet
101 217 m 1
 101 294 l 1
 499 472 l 1
 499 403 l 1
 168 255 l 1
 499 104 l 1
 499 42 l 1
 101 217 l 1
EndSplineSet
EndChar

StartChar: lira
Encoding: 319 8356 156
Width: 600
Flags: HMW
HStem: -21 51<393 427.5 393 429.5> 193 56<77 185 77 189 77 185 244 244 244 377> 325 58<230 377> 553 58<304.5 355.5>
VStem: 165 55<442 478.5 426 492.5>
LayerCount: 2
Fore
SplineSet
75 31 m 1
 144 81 200 130 189 193 c 1
 77 193 l 1
 77 249 l 1
 185 249 l 1
 181 262 181 296 177 324 c 1
 77 324 l 1
 77 384 l 1
 170 384 l 1
 167 415 165 434 165 450 c 0
 165 535 226 611 331 611 c 0
 423 611 482 554 509 497 c 1
 456 478 l 1
 431 528 381 553 330 553 c 0
 279 553 220 525 220 432 c 0
 220 420 222 408 224 384 c 1
 377 383 l 1
 377 325 l 1
 230 325 l 1
 233 297 236 261 240 249 c 1
 377 249 l 1
 377 193 l 1
 244 193 l 1
 249 127 233 97 177 53 c 1
 213 70 241 77 274 77 c 0
 289 77 313 72 335 58 c 0
 366 38 376 30 410 30 c 0
 445 30 487 58 504 70 c 1
 525 25 l 1
 494 -3 451 -21 408 -21 c 0
 359 -21 339 -7 319 3 c 0
 285 20 280 19 244 20 c 0
 207 21 130 -12 101 -21 c 1
 75 31 l 1
EndSplineSet
EndChar

StartChar: logicalnot
Encoding: 320 172 157
Width: 600
Flags: HMW
HStem: 307 62<77 448 77 503>
VStem: 448 55<108 307 307 307>
LayerCount: 2
Fore
SplineSet
448 307 m 1
 77 307 l 1
 77 369 l 1
 503 369 l 1
 503 108 l 1
 448 108 l 1
 448 307 l 1
EndSplineSet
EndChar

StartChar: lslash
Encoding: 248 322 158
Width: 600
Flags: HMW
HStem: 0 56<95 273 95 273 328 505> 573 56<100 273 100 328>
VStem: 273 55<56 278 278 278 355 573 573 573>
LayerCount: 2
Fore
SplineSet
95 0 m 1
 95 56 l 1
 273 56 l 1
 273 278 l 1
 140 224 l 1
 140 279 l 1
 273 333 l 1
 273 573 l 1
 100 573 l 1
 100 629 l 1
 328 629 l 1
 328 355 l 1
 460 409 l 1
 460 353 l 1
 328 300 l 1
 328 56 l 1
 505 56 l 1
 505 0 l 1
 95 0 l 1
EndSplineSet
EndChar

StartChar: m
Encoding: 109 109 159
Width: 600
Flags: HMW
HStem: 0 55<336 401 336 401 545 600> 386 55<191.5 235.5>
VStem: 55 57<54 324 54 374 54 374> 280 56<55 301 301 306> 488 57<55 310 310 313 55 321>
LayerCount: 2
Fore
SplineSet
55 0 m 1
 55 374 l 1
 0 374 l 1
 0 428 l 1
 112 428 l 1
 112 384 l 1
 141 413 169 441 214 441 c 0
 268 441 309 407 324 371 c 1
 352 406 381 441 434 441 c 0
 512 441 545 379 545 313 c 2
 545 55 l 1
 600 55 l 1
 600 0 l 1
 488 0 l 1
 488 310 l 2
 488 332 483 387 421 387 c 0
 364 387 336 324 336 313 c 2
 336 55 l 1
 401 55 l 1
 401 0 l 1
 280 0 l 1
 280 301 l 2
 280 311 270 386 201 386 c 0
 154 386 132 352 112 324 c 1
 112 54 l 1
 176 54 l 1
 176 0 l 1
 55 0 l 1
EndSplineSet
EndChar

StartChar: macron
Encoding: 197 175 160
Width: 600
Flags: HMW
HStem: 525 40<120 480 120 480>
VStem: 120 360<525 565 525 565>
LayerCount: 2
Fore
SplineSet
120 525 m 1
 120 565 l 1
 480 565 l 1
 480 525 l 1
 120 525 l 1
EndSplineSet
EndChar

StartChar: minus
Encoding: 321 8722 161
Width: 600
Flags: HMW
HStem: 232 51<80 520 80 520>
VStem: 80 440<232 283 232 283>
LayerCount: 2
Fore
SplineSet
80 232 m 1
 80 283 l 1
 520 283 l 1
 520 232 l 1
 80 232 l 1
EndSplineSet
EndChar

StartChar: mu
Encoding: 322 181 162
Width: 600
Flags: HMW
HStem: -157 21G<111 166 111 111> -5 52<252 302.5> 6 41 6 54<488 570 488 570> 373 53<29 111 29 166 351 433>
VStem: 111 55<-157 35 121.5 151 151 373 373 373> 433 55<60 88 88 88 241 373 373 373>
LayerCount: 2
Fore
SplineSet
166 35 m 1
 166 -157 l 1
 111 -157 l 1
 111 373 l 1
 29 373 l 1
 29 426 l 1
 166 426 l 1
 166 151 l 2
 166 92 207 47 273 47 c 0
 398 47 433 192 433 241 c 2
 433 373 l 1
 351 373 l 1
 351 426 l 1
 488 426 l 1
 488 60 l 1
 570 60 l 1
 570 6 l 1
 433 6 l 1
 433 88 l 1
 397 30 333 -5 272 -5 c 0
 232 -5 194 7 166 35 c 1
EndSplineSet
EndChar

StartChar: multiply
Encoding: 323 215 163
Width: 600
Flags: HMW
HStem: 41 21G
LayerCount: 2
Fore
SplineSet
86 80 m 1
 261 256 l 1
 86 431 l 1
 124 470 l 1
 299 296 l 1
 480 474 l 1
 514 433 l 1
 338 257 l 1
 514 82 l 1
 475 43 l 1
 299 217 l 1
 122 42 l 1
 86 80 l 1
EndSplineSet
EndChar

StartChar: n
Encoding: 110 110 164
Width: 600
Flags: HMW
HStem: 0 55<25 109 25 109 164 248 354 437 492 574> 387 55<25 109 25 164 306 359>
VStem: 109 55<55 296 356 387 387 387> 437 55<55 306 306 307 55 340>
LayerCount: 2
Fore
SplineSet
25 0 m 1
 25 55 l 1
 109 55 l 1
 109 387 l 1
 25 387 l 1
 25 442 l 1
 164 442 l 1
 164 356 l 1
 197 397 267 442 337 442 c 0
 443 442 492 393 492 307 c 2
 492 55 l 1
 574 55 l 1
 574 0 l 1
 354 0 l 1
 354 55 l 1
 437 55 l 1
 437 306 l 2
 437 374 381 387 337 387 c 0
 275 387 206 341 164 296 c 1
 164 55 l 1
 248 55 l 1
 248 0 l 1
 25 0 l 1
EndSplineSet
EndChar

StartChar: nine
Encoding: 57 57 165
Width: 600
Flags: HMW
HStem: -15 57<106 230.5> 224 62<253 319> 563 59<242 329.5>
VStem: 106 60<378 446 378 468.5> 436 58<214 310>
LayerCount: 2
Fore
SplineSet
431 392 m 1
 427 469 373 563 286 563 c 0
 198 563 166 475 166 417 c 0
 166 339 217 286 289 286 c 0
 354 286 404 337 431 392 c 1
106 -15 m 1
 106 42 l 1
 276 34 436 112 436 310 c 1
 407 270 358 224 280 224 c 0
 170 224 106 316 106 415 c 0
 106 522 182 622 286 622 c 0
 400 622 494 536 494 330 c 0
 494 98 355 -15 106 -15 c 1
EndSplineSet
EndChar

StartChar: ntilde
Encoding: 324 241 166
Width: 600
Flags: HMW
HStem: 0 52<25 110 25 110 165 248 355 438 492 574> 397 53 402 53<319 359> 515 48<362.5 391 362.5 404> 564 49<196.5 224>
VStem: 25 140<0 307 52 307 389 442 52 442> 110 55<52 307 373 389 389 389> 438 54<52 324 324 325 52 357>
LayerCount: 2
Fore
SplineSet
25 0 m 1
 25 52 l 1
 110 52 l 1
 110 389 l 1
 25 389 l 1
 25 442 l 1
 165 442 l 1
 165 373 l 1
 216 417 284 455 354 455 c 0
 451 455 492 407 492 325 c 2
 492 52 l 1
 574 52 l 1
 574 0 l 1
 355 0 l 1
 355 52 l 1
 438 52 l 1
 438 324 l 2
 438 390 381 402 337 402 c 0
 276 402 207 351 165 307 c 1
 165 52 l 1
 248 52 l 1
 248 0 l 1
 25 0 l 1
96 525 m 1
 118 590 171 613 222 613 c 0
 266 613 292 605 316 588 c 0
 335 575 352 563 373 563 c 0
 409 563 438 597 447 622 c 1
 497 613 l 1
 478 558 435 515 373 515 c 0
 332 515 316 528 294 543 c 0
 272 558 241 564 207 564 c 0
 171 564 151 529 147 515 c 1
 96 525 l 1
EndSplineSet
EndChar

StartChar: numbersign
Encoding: 35 35 167
Width: 600
Flags: HMW
HStem: 139 54<78 175 78 178 78 227 229 370 425 521> 354 54<78 183 78 185 78 234 237 378 432 521>
LayerCount: 2
Fore
SplineSet
229 193 m 1
 373 193 l 1
 378 354 l 1
 234 354 l 1
 229 193 l 1
167 -78 m 1
 175 139 l 1
 78 139 l 1
 78 193 l 1
 178 193 l 1
 183 354 l 1
 78 354 l 1
 78 408 l 1
 185 408 l 1
 188 627 l 1
 240 627 l 1
 237 408 l 1
 382 408 l 1
 386 627 l 1
 437 627 l 1
 432 408 l 1
 521 408 l 1
 521 354 l 1
 429 354 l 1
 425 193 l 1
 521 193 l 1
 521 139 l 1
 421 139 l 1
 415 -78 l 1
 365 -78 l 1
 370 139 l 1
 227 139 l 1
 217 -78 l 1
 167 -78 l 1
EndSplineSet
EndChar

StartChar: o
Encoding: 111 111 168
Width: 600
Flags: HMW
HStem: -17 55<244.5 352.5 244.5 368> 388 55<244 350>
VStem: 60 54<153.5 268 153.5 283.5> 480 59<153 269>
LayerCount: 2
Fore
SplineSet
114 211 m 0
 114 96 192 38 297 38 c 0
 408 38 480 94 480 212 c 0
 480 326 403 388 297 388 c 0
 191 388 114 325 114 211 c 0
60 211 m 0
 60 356 160 443 299 443 c 0
 436 443 539 354 539 212 c 0
 539 74 437 -17 299 -17 c 0
 167 -17 60 72 60 211 c 0
EndSplineSet
EndChar

StartChar: oacute
Encoding: 325 243 169
Width: 600
Flags: HMW
HStem: -15 56<239 356 239 371.5> 391 57<241.5 362>
VStem: 62 58<174 262 174 288> 478 60<174 261.5>
LayerCount: 2
Fore
SplineSet
120 215 m 0
 120 133 180 41 298 41 c 0
 414 41 478 133 478 215 c 0
 478 308 423 391 301 391 c 0
 182 391 120 309 120 215 c 0
62 216 m 0
 62 360 166 448 301 448 c 0
 446 448 538 356 538 216 c 0
 538 83 444 -15 299 -15 c 0
 149 -15 62 81 62 216 c 0
184 513 m 1
 172 545 l 1
 426 672 l 1
 458 596 l 1
 184 513 l 1
EndSplineSet
EndChar

StartChar: ocircumflex
Encoding: 326 244 170
Width: 600
Flags: HMW
HStem: -15 56<239 356 239 371.5> 391 57<241.5 362> 634 20G<262 338 338 338>
VStem: 62 58<174 262 174 288> 478 60<174 261.5>
LayerCount: 2
Fore
SplineSet
120 215 m 0
 120 133 180 41 298 41 c 0
 414 41 478 133 478 215 c 0
 478 308 423 391 301 391 c 0
 182 391 120 309 120 215 c 0
62 216 m 0
 62 360 166 448 301 448 c 0
 446 448 538 356 538 216 c 0
 538 83 444 -15 299 -15 c 0
 149 -15 62 81 62 216 c 0
158 489 m 1
 119 507 l 1
 262 654 l 1
 338 654 l 1
 480 507 l 1
 440 489 l 1
 300 600 l 1
 158 489 l 1
EndSplineSet
EndChar

StartChar: odieresis
Encoding: 327 246 171
Width: 600
Flags: HMW
HStem: -15 56<239 356 239 371.5> 391 57<241.5 362> 519 116<162 244 162 244 162 354 354 433>
VStem: 62 58<174 262 174 288> 478 60<174 261.5>
LayerCount: 2
Fore
SplineSet
120 215 m 0
 120 133 180 41 298 41 c 0
 414 41 478 133 478 215 c 0
 478 308 423 391 301 391 c 0
 182 391 120 309 120 215 c 0
62 216 m 0
 62 360 166 448 301 448 c 0
 446 448 538 356 538 216 c 0
 538 83 444 -15 299 -15 c 0
 149 -15 62 81 62 216 c 0
162 519 m 1
 162 635 l 1
 244 635 l 1
 244 519 l 1
 162 519 l 1
354 519 m 1
 354 635 l 1
 433 635 l 1
 433 519 l 1
 354 519 l 1
EndSplineSet
EndChar

StartChar: oe
Encoding: 250 339 172
Width: 600
Flags: HMW
HStem: -15 55<420 475.5> 192 59<335 517 335 569 334 517> 386 55<144 222 121.5 225>
VStem: 30 54<180 238 180 244.5> 281 53<192 267> 517 52
LayerCount: 2
Fore
SplineSet
84 194 m 0
 84 166 93 40 183 40 c 0
 286 40 281 166 281 234 c 0
 281 300 264 386 186 386 c 0
 102 386 84 282 84 194 c 0
335 251 m 1
 517 251 l 1
 517 303 500 383 430 383 c 0
 372 383 325 315 335 251 c 1
308 72 m 1
 299 48 269 -16 181 -16 c 0
 147 -16 30 0 30 189 c 0
 30 300 53 441 190 441 c 0
 254 441 294 408 315 362 c 1
 329 392 366 441 433 441 c 0
 561 441 570 289 569 192 c 1
 334 192 l 1
 328 88 382 40 458 40 c 0
 493 40 531 52 559 62 c 1
 569 8 l 1
 533 -4 500 -15 457 -15 c 0
 372 -15 333 21 308 72 c 1
EndSplineSet
EndChar

StartChar: ogonek
Encoding: 206 731 173
Width: 600
Flags: HMW
HStem: -151 54<283 331>
VStem: 228 66<-77 -67>
LayerCount: 2
Fore
SplineSet
293 0 m 1
 366 0 l 1
 341 -11 294 -29 294 -67 c 0
 294 -87 306 -97 322 -97 c 0
 340 -97 362 -87 371 -72 c 1
 363 -128 l 1
 346 -143 324 -151 302 -151 c 0
 264 -151 228 -127 228 -85 c 0
 228 -49 257 -16 293 0 c 1
EndSplineSet
EndChar

StartChar: ograve
Encoding: 328 242 174
Width: 600
Flags: HMW
HStem: -15 56<239 356 239 371.5> 391 57<241.5 362>
VStem: 62 58<174 262 174 288> 478 60<174 261.5>
LayerCount: 2
Fore
SplineSet
120 215 m 0
 120 133 180 41 298 41 c 0
 414 41 478 133 478 215 c 0
 478 308 423 391 301 391 c 0
 182 391 120 309 120 215 c 0
62 216 m 0
 62 360 166 448 301 448 c 0
 446 448 538 356 538 216 c 0
 538 83 444 -15 299 -15 c 0
 149 -15 62 81 62 216 c 0
162 595 m 1
 194 672 l 1
 449 523 l 1
 438 492 l 1
 162 595 l 1
EndSplineSet
EndChar

StartChar: one
Encoding: 49 49 175
Width: 600
Flags: HMW
HStem: 0 55<95 277 95 277 332 504> 602 20G<332 332>
VStem: 277 55<55 552 552 552>
LayerCount: 2
Fore
SplineSet
95 0 m 1
 95 55 l 1
 277 55 l 1
 277 552 l 1
 111 516 l 1
 111 571 l 1
 332 622 l 1
 332 55 l 1
 504 55 l 1
 504 0 l 1
 95 0 l 1
EndSplineSet
EndChar

StartChar: onehalf
Encoding: 329 189 176
Width: 600
Flags: HMW
HStem: -57 21G<83 83> -46 54<430 572 430 572> 263 53<454 486.5> 301 54<0 101 0 101 154 256> 645 20G<564 564>
VStem: 101 53<355 597 597 597> 521 51<173 215>
LayerCount: 2
Fore
SplineSet
358 5 m 1
 418 66 521 148 521 198 c 0
 521 232 504 263 469 263 c 0
 439 263 409 237 416 200 c 1
 371 200 l 1
 371 263 l 1
 395 297 431 316 469 316 c 0
 538 316 572 262 572 206 c 0
 572 135 532 98 430 8 c 1
 572 8 l 1
 572 -46 l 1
 358 -46 l 1
 358 5 l 1
0 301 m 1
 0 355 l 1
 101 355 l 1
 101 597 l 1
 9 583 l 1
 9 637 l 1
 154 661 l 1
 154 355 l 1
 256 355 l 1
 256 301 l 1
 0 301 l 1
46 -29 m 1
 564 665 l 1
 601 633 l 1
 83 -57 l 1
 46 -29 l 1
EndSplineSet
EndChar

StartChar: onequarter
Encoding: 330 188 177
Width: 600
Flags: HMW
HStem: -57 21G<117 117> -45 54<406 461 511 557 406 461> 66 56 301 54<0 100 0 100 149 243> 641 20G<149 149>
VStem: 100 49<355 597 597 597> 461 50<9 61 9 61 117 233 233 233>
LayerCount: 2
Fore
SplineSet
0 301 m 1
 0 355 l 1
 100 355 l 1
 100 597 l 1
 16 583 l 1
 16 637 l 1
 149 661 l 1
 149 355 l 1
 243 355 l 1
 243 301 l 1
 0 301 l 1
77 -27 m 1
 560 654 l 1
 600 634 l 1
 117 -57 l 1
 77 -27 l 1
385 117 m 1
 461 117 l 1
 461 233 l 1
 385 117 l 1
322 61 m 1
 322 100 l 1
 453 310 l 1
 511 310 l 1
 511 117 l 1
 557 117 l 1
 557 61 l 1
 511 61 l 1
 511 9 l 1
 557 9 l 1
 557 -45 l 1
 406 -45 l 1
 406 9 l 1
 461 9 l 1
 461 61 l 1
 322 61 l 1
EndSplineSet
EndChar

StartChar: onesuperior
Encoding: 331 185 178
Width: 600
Flags: HMW
HStem: 249 56<172 274 172 274 328 428> 602 20G<328 328>
VStem: 274 54<305 555 555 555>
LayerCount: 2
Fore
SplineSet
172 249 m 1
 172 305 l 1
 274 305 l 1
 274 555 l 1
 183 540 l 1
 183 596 l 1
 328 622 l 1
 328 305 l 1
 428 305 l 1
 428 249 l 1
 172 249 l 1
EndSplineSet
EndChar

StartChar: ordfeminine
Encoding: 227 170 179
Width: 600
Flags: HMW
HStem: 249 52<234.5 265> 393 51<248.5 291> 533 47<283.5 314.5>
VStem: 349 44<378 378 436 449 449 459 312 474.5>
LayerCount: 2
Fore
SplineSet
349 378 m 1
 349 378 310 393 272 393 c 0
 225 393 200 370 200 345 c 0
 200 320 221 301 248 301 c 0
 287 301 324 334 349 378 c 1
350 257 m 1
 350 310 l 1
 321 276 285 249 245 249 c 0
 190 249 157 298 157 345 c 0
 157 379 178 444 279 444 c 0
 303 444 327 440 349 436 c 1
 349 449 l 2
 349 500 331 533 298 533 c 0
 269 533 232 529 179 500 c 1
 168 548 l 1
 202 563 250 580 294 580 c 0
 371 580 393 534 393 459 c 2
 393 312 l 1
 443 312 l 1
 443 257 l 1
 350 257 l 1
EndSplineSet
EndChar

StartChar: ordmasculine
Encoding: 235 186 180
Width: 600
Flags: HMW
HStem: 249 54<280 325 280 328> 528 52<274.5 338>
VStem: 157 55<381.5 445 381.5 473> 388 55<381 432>
LayerCount: 2
Fore
SplineSet
212 416 m 0
 212 347 258 303 302 303 c 0
 348 303 388 346 388 416 c 0
 388 448 373 528 303 528 c 0
 246 528 212 474 212 416 c 0
157 416 m 0
 157 530 238 580 302 580 c 0
 389 580 443 504 443 414 c 0
 443 296 356 249 300 249 c 0
 255 249 157 289 157 416 c 0
EndSplineSet
EndChar

StartChar: oslash
Encoding: 249 248 181
Width: 600
Flags: HMW
HStem: -17 21G<97 97> -12 50<278.5 362> 398 50<247 314> 431 20G<502 502>
VStem: 61 52<198 271.5 198 280.5> 477 55<174.5 236>
LayerCount: 2
Fore
SplineSet
150 110 m 1
 410 361 l 1
 373 386 329 398 299 398 c 0
 195 398 113 325 113 218 c 0
 113 178 126 138 150 110 c 1
190 73 m 1
 221 52 259 38 298 38 c 0
 428 38 477 145 477 204 c 0
 477 268 461 302 448 322 c 1
 190 73 l 1
61 24 m 1
 111 71 l 1
 78 109 61 164 61 218 c 0
 61 343 147 448 300 448 c 0
 355 448 407 433 450 400 c 1
 502 451 l 1
 538 410 l 1
 488 361 l 1
 519 323 532 271 532 219 c 0
 532 70 425 -12 299 -12 c 0
 248 -12 194 0 150 34 c 1
 97 -17 l 1
 61 24 l 1
EndSplineSet
EndChar

StartChar: otilde
Encoding: 332 245 182
Width: 600
Flags: HMW
HStem: -15 56<239 356 239 371.5> 391 57<241.5 362> 510 50<360 387 360 393.5> 577 49<203 230>
VStem: 62 58<174 262 174 288> 478 60<174 261.5>
LayerCount: 2
Fore
SplineSet
120 215 m 0
 120 133 180 41 298 41 c 0
 414 41 478 133 478 215 c 0
 478 308 423 391 301 391 c 0
 182 391 120 309 120 215 c 0
62 216 m 0
 62 360 166 448 301 448 c 0
 446 448 538 356 538 216 c 0
 538 83 444 -15 299 -15 c 0
 149 -15 62 81 62 216 c 0
108 525 m 1
 129 590 179 626 227 626 c 0
 269 626 294 599 320 580 c 0
 335 569 350 560 370 560 c 0
 404 560 431 598 440 622 c 1
 487 613 l 1
 469 558 423 510 364 510 c 0
 330 510 309 523 290 538 c 0
 266 556 247 577 213 577 c 0
 179 577 160 529 156 514 c 1
 108 525 l 1
EndSplineSet
EndChar

StartChar: p
Encoding: 112 112 183
Width: 600
Flags: HMW
HStem: -157 51<7 92 147 304 7 92> 20 49<283.5 372 276 393.5> 378 51<7 92 7 147> 382 52<291 372>
VStem: 92 55<-106 97 364 378 378 378> 496 57<185.5 274.5>
LayerCount: 2
Fore
SplineSet
151 230 m 0
 151 141 228 69 324 69 c 0
 420 69 496 141 496 230 c 0
 496 319 420 382 324 382 c 0
 228 382 151 319 151 230 c 0
7 -106 m 1
 92 -106 l 1
 92 378 l 1
 7 378 l 1
 7 429 l 1
 147 429 l 1
 147 364 l 1
 185 407 247 434 335 434 c 0
 457 434 553 351 553 239 c 0
 553 113 456 20 331 20 c 0
 236 20 180 61 147 97 c 1
 147 -106 l 1
 304 -106 l 1
 304 -157 l 1
 7 -157 l 1
 7 -106 l 1
EndSplineSet
EndChar

StartChar: paragraph
Encoding: 182 182 184
Width: 600
Flags: HMW
HStem: 532 30<361 439 361 361 482 530 482 482>
VStem: 317 44<-78 224 224 224> 439 43<-78 532 -78 532>
LayerCount: 2
Fore
SplineSet
317 -78 m 1
 317 224 l 1
 124 225 69 322 69 384 c 0
 69 502 148 562 312 562 c 2
 530 562 l 1
 530 532 l 1
 482 532 l 1
 482 -78 l 1
 439 -78 l 1
 439 532 l 1
 361 532 l 1
 361 -78 l 1
 317 -78 l 1
EndSplineSet
EndChar

StartChar: parenleft
Encoding: 40 40 185
Width: 600
Flags: HMW
HStem: -108 730<333 386 333 386 332 386>
VStem: 214 55<185.5 309.5>
LayerCount: 2
Fore
SplineSet
386 622 m 1
 339 538 269 402 269 236 c 0
 269 97 325 7 386 -108 c 1
 332 -108 l 1
 262 1 214 135 214 236 c 0
 214 383 275 532 333 622 c 1
 386 622 l 1
EndSplineSet
EndChar

StartChar: parenright
Encoding: 41 41 186
Width: 600
Flags: HMW
HStem: -108 730<214 268 214 267>
VStem: 331 55<204.5 328.5 204.5 347.5>
LayerCount: 2
Fore
SplineSet
214 -108 m 1
 261 -24 331 112 331 278 c 0
 331 417 275 507 214 622 c 1
 268 622 l 1
 338 513 386 379 386 278 c 0
 386 131 325 -18 267 -108 c 1
 214 -108 l 1
EndSplineSet
EndChar

StartChar: percent
Encoding: 37 37 187
Width: 600
Flags: HMW
HStem: -15 54<328.5 367.5 328.5 381.5> 181 57<328.5 367.5> 378 54 565 57<216.5 255.5>
VStem: 109 56<474.5 513.5 474.5 529.5> 221 56<90.5 129.5 90.5 145.5> 307 55<474.5 513.5> 419 55<90.5 129.5>
LayerCount: 2
Fore
SplineSet
109 495 m 0
 109 564 166 622 235 622 c 0
 304 622 362 564 362 495 c 0
 362 426 304 369 235 369 c 0
 166 369 109 426 109 495 c 0
165 494 m 0
 165 455 197 423 236 423 c 0
 275 423 307 455 307 494 c 0
 307 533 275 565 236 565 c 0
 197 565 165 533 165 494 c 0
221 111 m 0
 221 180 278 238 347 238 c 0
 416 238 474 180 474 111 c 0
 474 42 416 -15 347 -15 c 0
 278 -15 221 42 221 111 c 0
277 110 m 0
 277 71 309 39 348 39 c 0
 387 39 419 71 419 110 c 0
 419 149 387 181 348 181 c 0
 309 181 277 149 277 110 c 0
101 201 m 1
 81 252 l 1
 499 416 l 1
 518 369 l 1
 101 201 l 1
EndSplineSet
EndChar

StartChar: period
Encoding: 46 46 188
Width: 600
Flags: HMW
HStem: -15 124<280 315>
VStem: 229 142<25 63.5 25 64.5>
LayerCount: 2
Fore
SplineSet
229 44 m 0
 229 85 261 109 299 109 c 0
 339 109 371 83 371 44 c 0
 371 6 331 -15 299 -15 c 0
 261 -15 229 6 229 44 c 0
EndSplineSet
EndChar

StartChar: periodcentered
Encoding: 180 183 189
Width: 600
Flags: HMW
HStem: 189 138<279 321>
VStem: 222 156<240 274 236.5 276.5>
LayerCount: 2
Fore
SplineSet
222 257 m 0
 222 296 257 327 301 327 c 0
 348 327 378 292 378 256 c 0
 378 217 340 189 302 189 c 0
 253 189 222 223 222 257 c 0
EndSplineSet
EndChar

StartChar: perthousand
Encoding: 189 8240 190
Width: 600
Flags: HMW
HStem: -15 55<175 219 175 231.5 451 495> 181 54<173 218.5 449 494.5> 372 55<134 178 134 189.5> 568 54<132 177.5>
VStem: 25 56<474 516.5 474 529> 67 56<87.5 130 87.5 142.5> 226 54<479 515.5> 268 54<92.5 129> 343 56<87.5 130 87.5 142.5> 544 54<92.5 129>
LayerCount: 2
Fore
SplineSet
23 212 m 1
 1 263 l 1
 435 442 l 1
 457 391 l 1
 23 212 l 1
123 109 m 0
 123 66 154 40 196 40 c 0
 242 40 268 75 268 110 c 0
 268 148 241 181 196 181 c 0
 150 181 123 151 123 109 c 0
67 110 m 0
 67 175 116 235 193 235 c 0
 281 235 322 176 322 111 c 0
 322 42 268 -15 195 -15 c 0
 117 -15 67 43 67 110 c 0
399 109 m 0
 399 66 430 40 472 40 c 0
 518 40 544 75 544 110 c 0
 544 148 517 181 472 181 c 0
 426 181 399 151 399 109 c 0
343 110 m 0
 343 175 392 235 469 235 c 0
 557 235 598 176 598 111 c 0
 598 42 544 -15 471 -15 c 0
 393 -15 343 43 343 110 c 0
81 495 m 0
 81 453 113 427 155 427 c 0
 201 427 226 462 226 496 c 0
 226 535 200 568 155 568 c 0
 109 568 81 538 81 495 c 0
25 496 m 0
 25 562 74 622 151 622 c 0
 239 622 280 563 280 497 c 0
 280 429 226 372 153 372 c 0
 75 372 25 430 25 496 c 0
EndSplineSet
EndChar

StartChar: plus
Encoding: 43 43 191
Width: 600
Flags: HMW
HStem: 44 21G<274 328 274 274> 242 54<80 274 80 274 328 520> 450 20G<274 328 328 328>
VStem: 274 54<44 242 44 242 296 470>
LayerCount: 2
Fore
SplineSet
80 242 m 1
 80 296 l 1
 274 296 l 1
 274 470 l 1
 328 470 l 1
 328 296 l 1
 520 296 l 1
 520 242 l 1
 328 242 l 1
 328 44 l 1
 274 44 l 1
 274 242 l 1
 80 242 l 1
EndSplineSet
EndChar

StartChar: plusminus
Encoding: 333 177 192
Width: 600
Flags: HMW
HStem: 44 55<87 513 87 513> 325 55<87 274 87 274 329 513> 538 20G<274 329 329 329>
VStem: 274 55<138 325 138 325 380 558>
LayerCount: 2
Fore
SplineSet
87 44 m 1
 87 99 l 1
 513 99 l 1
 513 44 l 1
 87 44 l 1
274 138 m 1
 274 325 l 1
 87 325 l 1
 87 380 l 1
 274 380 l 1
 274 558 l 1
 329 558 l 1
 329 380 l 1
 513 380 l 1
 513 325 l 1
 329 325 l 1
 329 138 l 1
 274 138 l 1
EndSplineSet
EndChar

StartChar: prescription
Encoding: 334 8478 193
Width: 600
Flags: HMW
HStem: -15 55<25 106 25 106 161 242 471 575> 240 55<161 264 264 277 161 264> 507 55<25 106 25 325 161 161 161 307>
VStem: 106 55<40 240 295 507> 440 55<346 441.5>
LayerCount: 2
Fore
SplineSet
161 295 m 1
 264 295 l 2
 337 295 440 291 440 401 c 0
 440 482 377 507 307 507 c 2
 161 507 l 1
 161 295 l 1
25 -15 m 1
 25 40 l 1
 106 40 l 1
 106 507 l 1
 25 507 l 1
 25 562 l 1
 325 562 l 2
 447 562 495 489 495 403 c 0
 495 280 406 247 338 242 c 1
 361 213 391 169 418 127 c 1
 483 192 l 1
 519 156 l 1
 445 82 l 1
 455 67 463 52 471 40 c 1
 575 40 l 1
 575 -15 l 1
 443 -15 l 1
 434 2 421 22 408 45 c 1
 348 -15 l 1
 312 21 l 1
 380 89 l 1
 342 149 300 210 277 240 c 1
 161 240 l 1
 161 40 l 1
 242 40 l 1
 242 -15 l 1
 25 -15 l 1
EndSplineSet
EndChar

StartChar: q
Encoding: 113 113 194
Width: 600
Flags: HMW
HStem: -157 51<296 453 508 593 296 453> 20 49<228 316.5> 378 51<508 593 508 508> 382 52<228 309 204 324>
VStem: 47 57<185.5 274.5 185.5 295> 453 55<-106 97 97 97 364 378 -106 429 -106 429>
LayerCount: 2
Fore
SplineSet
449 230 m 0
 449 319 372 382 276 382 c 0
 180 382 104 319 104 230 c 0
 104 141 180 69 276 69 c 0
 372 69 449 141 449 230 c 0
296 -106 m 1
 453 -106 l 1
 453 97 l 1
 420 61 364 20 269 20 c 0
 144 20 47 113 47 239 c 0
 47 351 143 434 265 434 c 0
 353 434 415 407 453 364 c 1
 453 429 l 1
 593 429 l 1
 593 378 l 1
 508 378 l 1
 508 -106 l 1
 593 -106 l 1
 593 -157 l 1
 296 -157 l 1
 296 -106 l 1
EndSplineSet
EndChar

StartChar: question
Encoding: 63 63 195
Width: 600
Flags: HMW
HStem: -15 119<252 288> 520 52<269 326>
VStem: 118 54<420 482 420 520 420 520> 203 133<29 58.5 26 60.5> 428 53<359 440.5>
LayerCount: 2
Fore
SplineSet
203 44 m 0
 203 77 233 104 271 104 c 0
 311 104 336 74 336 43 c 0
 336 9 304 -15 272 -15 c 0
 230 -15 203 14 203 44 c 0
242 176 m 1
 242 281 l 1
 315 295 428 310 428 408 c 0
 428 473 364 520 288 520 c 0
 250 520 209 510 172 482 c 1
 172 420 l 1
 118 420 l 1
 118 520 l 1
 164 554 226 572 286 572 c 0
 386 572 481 520 481 406 c 0
 481 286 362 246 297 242 c 1
 297 176 l 1
 242 176 l 1
EndSplineSet
EndChar

StartChar: questiondown
Encoding: 191 191 196
Width: 600
Flags: HMW
HStem: -157 54<264 332 255.5 344.5> -5 21G<427 481 481 481> 313 117<311.5 348>
VStem: 118 53<-12.5 54.5 -12.5 67.5> 262 135<357.5 386.5 355.5 389.5> 427 54<-76 -5 -124 -5>
LayerCount: 2
Fore
SplineSet
303 183 m 1
 303 251 l 1
 358 251 l 1
 358 137 l 1
 285 124 171 103 171 6 c 0
 171 -31 199 -103 312 -103 c 0
 352 -103 392 -92 427 -76 c 1
 427 -5 l 1
 481 -5 l 1
 481 -124 l 1
 434 -141 374 -157 315 -157 c 0
 213 -157 118 -98 118 8 c 0
 118 127 228 163 303 183 c 1
262 373 m 0
 262 406 295 430 328 430 c 0
 370 430 397 401 397 372 c 0
 397 339 367 313 329 313 c 0
 288 313 262 342 262 373 c 0
EndSplineSet
EndChar

StartChar: quotedbl
Encoding: 34 34 197
Width: 600
Flags: HMW
HStem: 538 20G<187 268 268 268 331 412 412 412>
VStem: 196 63 340 63
LayerCount: 2
Fore
SplineSet
350 307 m 1
 331 558 l 1
 412 558 l 1
 394 307 l 1
 350 307 l 1
206 307 m 1
 187 558 l 1
 268 558 l 1
 250 307 l 1
 206 307 l 1
EndSplineSet
EndChar

StartChar: quotedblbase
Encoding: 185 8222 198
Width: 600
Flags: HMW
HStem: -134 234<143 299 143 299 209 360 209 301>
VStem: 143 314<-134 100>
LayerCount: 2
Fore
SplineSet
301 -134 m 1
 368 100 l 1
 457 100 l 1
 360 -134 l 1
 301 -134 l 1
143 -134 m 1
 209 100 l 1
 299 100 l 1
 199 -134 l 1
 143 -134 l 1
EndSplineSet
EndChar

StartChar: quotedblleft
Encoding: 170 8220 199
Width: 600
Flags: HMW
HStem: 328 234<136 237 136 298 136 405 136 464> 542 20G<136 228 228 228 302 395 395 395>
VStem: 136 328<328 562>
LayerCount: 2
Fore
SplineSet
237 328 m 1
 136 562 l 1
 228 562 l 1
 298 328 l 1
 237 328 l 1
405 328 m 1
 302 562 l 1
 395 562 l 1
 464 328 l 1
 405 328 l 1
EndSplineSet
EndChar

StartChar: quotedblright
Encoding: 186 8221 200
Width: 600
Flags: HMW
HStem: 328 234<143 299 143 299 209 360 209 301>
VStem: 143 314<328 562>
LayerCount: 2
Fore
SplineSet
301 328 m 1
 368 562 l 1
 457 562 l 1
 360 328 l 1
 301 328 l 1
143 328 m 1
 209 562 l 1
 299 562 l 1
 199 328 l 1
 143 328 l 1
EndSplineSet
EndChar

StartChar: quoteleft
Encoding: 96 8216 201
Width: 600
Flags: HMW
HStem: 328 234<218 322 218 381>
VStem: 218 163
LayerCount: 2
Fore
SplineSet
322 328 m 1
 218 562 l 1
 310 562 l 1
 381 328 l 1
 322 328 l 1
EndSplineSet
EndChar

StartChar: quoteright
Encoding: 39 8217 202
Width: 600
Flags: HMW
HStem: 328 234<218 381 218 381>
VStem: 218 163
LayerCount: 2
Fore
SplineSet
218 328 m 1
 289 562 l 1
 381 562 l 1
 277 328 l 1
 218 328 l 1
EndSplineSet
EndChar

StartChar: quotesinglbase
Encoding: 184 8218 203
Width: 600
Flags: HMW
HStem: -134 234<218 381 218 381>
VStem: 218 163
LayerCount: 2
Fore
SplineSet
218 -134 m 1
 289 100 l 1
 381 100 l 1
 277 -134 l 1
 218 -134 l 1
EndSplineSet
EndChar

StartChar: quotesingle
Encoding: 169 39 204
Width: 600
Flags: HMW
HStem: 542 20G<259 341 341 341>
VStem: 259 82<562 562>
LayerCount: 2
Fore
SplineSet
282 307 m 1
 259 562 l 1
 341 562 l 1
 317 307 l 1
 282 307 l 1
EndSplineSet
EndChar

StartChar: r
Encoding: 114 114 205
Width: 600
Flags: HMW
HStem: 0 54<50 177 50 177 232 429> 374 54<50 177 50 232> 388 53<418.5 452.5>
VStem: 50 182<0 243 54 243 374 428> 177 55<54 243 304 374 374 374>
LayerCount: 2
Fore
SplineSet
50 0 m 1
 50 54 l 1
 177 54 l 1
 177 374 l 1
 50 374 l 1
 50 428 l 1
 232 428 l 1
 232 304 l 1
 287 356 363 441 458 441 c 0
 513 441 546 405 549 353 c 1
 491 348 l 1
 484 382 465 388 440 388 c 0
 397 388 342 345 232 243 c 1
 232 54 l 1
 429 54 l 1
 429 0 l 1
 50 0 l 1
EndSplineSet
EndChar

StartChar: registered
Encoding: 335 174 206
Width: 600
Flags: HMW
HStem: -18 46<234.5 372.5 234.5 384> 399 47<249 303 249 249> 535 45<226 375>
VStem: 0 46<209 345 209 369> 201 48<124 246 293 399> 370 51<336.5 361.5> 552 48<211 350.5>
LayerCount: 2
Fore
SplineSet
249 293 m 1
 304 293 l 2
 334 293 370 312 370 350 c 0
 370 373 348 399 303 399 c 2
 249 399 l 1
 249 293 l 1
201 124 m 1
 201 446 l 1
 304 446 l 2
 361 446 421 424 421 354 c 0
 421 319 394 272 356 258 c 1
 434 124 l 1
 375 124 l 1
 302 246 l 1
 249 246 l 1
 249 124 l 1
 201 124 l 1
46 280 m 0
 46 138 167 28 302 28 c 0
 443 28 552 140 552 282 c 0
 552 419 446 535 304 535 c 0
 148 535 46 410 46 280 c 0
0 278 m 0
 0 460 148 580 303 580 c 0
 462 580 600 452 600 285 c 0
 600 110 465 -18 303 -18 c 0
 136 -18 0 115 0 278 c 0
EndSplineSet
EndChar

StartChar: ring
Encoding: 202 730 207
Width: 600
Flags: HMW
HStem: 463 50<291 309 291 323> 545 0<218 218 268 268 332 332 382 382> 577 50<291 309>
VStem: 218 50<536 554 536 568> 332 50<536 554>
CounterMasks: 1 e0
LayerCount: 2
Fore
SplineSet
268 545 m 0
 268 527 282 513 300 513 c 0
 318 513 332 527 332 545 c 0
 332 563 318 577 300 577 c 0
 282 577 268 563 268 545 c 0
218 545 m 0
 218 591 254 627 300 627 c 0
 346 627 382 591 382 545 c 0
 382 499 346 463 300 463 c 0
 254 463 218 499 218 545 c 0
EndSplineSet
EndChar

StartChar: s
Encoding: 115 115 208
Width: 600
Flags: HMW
HStem: -13 55 193 53 386 55<264.5 311 228 313.5>
VStem: 84 55<-12 33 99 158> 90 54<290 348 290 351> 438 54<283 342 342 342 401 441 283 441> 458 58<90 155>
LayerCount: 2
Fore
SplineSet
84 -12 m 1
 84 158 l 1
 139 158 l 1
 139 99 l 1
 187 62 251 43 314 43 c 0
 351 43 458 55 458 125 c 0
 458 185 331 191 277 193 c 0
 210 195 90 220 90 308 c 0
 90 394 173 441 283 441 c 0
 339 441 393 428 438 401 c 1
 438 441 l 1
 492 441 l 1
 492 283 l 1
 438 283 l 1
 438 342 l 1
 396 369 341 386 286 386 c 0
 243 386 144 379 144 317 c 0
 144 263 235 249 279 246 c 0
 368 239 516 250 516 131 c 0
 516 45 437 -12 326 -12 c 0
 246 -12 188 10 139 33 c 1
 139 -12 l 1
 84 -12 l 1
EndSplineSet
EndChar

StartChar: scaron
Encoding: 336 353 209
Width: 600
Flags: HMW
HStem: -15 55<83 139 281 328> 40 147 187 54 241 151 392 55<259 306 221 309> 447 44<258 258 258 306>
VStem: 83 56<-15 40 107 156> 436 55<288 338 338 338 397 447 288 447>
LayerCount: 2
Fore
SplineSet
83 -15 m 1
 83 156 l 1
 139 156 l 1
 139 107 l 1
 188 70 245 40 309 40 c 0
 347 40 456 48 456 123 c 0
 456 191 372 185 323 187 c 0
 241 190 91 189 91 307 c 0
 91 394 165 447 277 447 c 0
 335 447 390 424 436 397 c 1
 436 447 l 1
 491 447 l 1
 491 288 l 1
 436 288 l 1
 436 338 l 1
 393 365 337 392 281 392 c 0
 237 392 146 379 146 316 c 0
 146 230 298 246 369 241 c 0
 440 236 516 213 516 129 c 0
 516 42 435 -15 322 -15 c 0
 240 -15 189 17 139 40 c 1
 139 -15 l 1
 83 -15 l 1
258 491 m 1
 104 648 l 1
 146 668 l 1
 299 547 l 1
 447 669 l 1
 490 649 l 1
 340 491 l 1
 258 491 l 1
EndSplineSet
EndChar

StartChar: scedilla
Encoding: 337 351 210
Width: 600
Flags: HMW
HStem: -151 198<287.5 316> -6 53<83 139 326 326> 189 50 388 53<258 305.5 220 308.5>
VStem: 83 56<-6 47 111 149> 90 55<279.5 351.5 279.5 353.5> 435 56<287 334 334 334 393 441 287 441> 460 56<77.5 145.5>
LayerCount: 2
Fore
SplineSet
83 -6 m 1
 83 149 l 1
 139 149 l 1
 139 111 l 1
 188 75 244 47 309 47 c 0
 347 47 460 41 460 112 c 0
 460 179 376 187 326 189 c 0
 244 192 90 197 90 312 c 0
 90 395 164 441 276 441 c 0
 335 441 389 419 435 393 c 1
 435 441 l 1
 491 441 l 1
 491 287 l 1
 435 287 l 1
 435 334 l 1
 392 361 337 388 280 388 c 0
 236 388 145 382 145 321 c 0
 145 238 314 244 384 239 c 0
 456 235 516 200 516 119 c 0
 516 36 437 -5 326 -6 c 1
 326 -25 l 1
 346 -26 370 -45 370 -79 c 0
 370 -119 335 -151 297 -151 c 0
 278 -151 257 -145 241 -133 c 1
 255 -98 l 1
 265 -107 279 -110 293 -110 c 0
 310 -110 325 -101 325 -85 c 0
 325 -72 314 -65 301 -65 c 0
 291 -65 281 -66 274 -69 c 1
 276 -4 l 1
 219 4 179 28 139 47 c 1
 139 -6 l 1
 83 -6 l 1
EndSplineSet
EndChar

StartChar: section
Encoding: 167 167 211
Width: 600
Flags: HMW
HStem: -77 53<183 321> 503 53<235 460 281 407>
VStem: 130 53<-24 82 -24 82 -24 82> 407 53<397 503 503 503>
LayerCount: 2
Fore
SplineSet
354 130 m 1
 421 130 432 172 432 187 c 0
 432 209 412 226 396 239 c 2
 239 352 l 1
 213 352 171 329 171 292 c 0
 171 271 188 255 202 244 c 2
 354 130 l 1
130 82 m 1
 183 82 l 1
 183 -24 l 1
 364 -24 l 2
 397 -24 402 -3 402 7 c 0
 402 18 399 32 370 53 c 2
 161 211 l 2
 137 229 118 259 118 293 c 0
 118 350 168 382 198 390 c 1
 179 407 l 2
 157 427 137 448 137 479 c 0
 137 509 154 536 183 545 c 0
 212 555 247 556 281 556 c 2
 460 556 l 1
 460 397 l 1
 407 397 l 1
 407 503 l 1
 245 503 l 2
 225 503 190 499 190 469 c 0
 190 458 197 450 220 432 c 2
 431 273 l 2
 457 253 482 226 482 192 c 2
 482 191 l 2
 482 168 481 109 393 90 c 1
 400 83 415 72 415 72 c 2
 438 53 455 25 455 -3 c 0
 455 -47 422 -66 396 -72 c 0
 375 -76 347 -77 321 -77 c 2
 130 -77 l 1
 130 82 l 1
EndSplineSet
EndChar

StartChar: semicolon
Encoding: 59 59 212
Width: 600
Flags: HMW
HStem: 8 21G<205 205 205 269> 258 129<309 346 309 371 309 371> 387 119<310 346>
VStem: 261 133<431 460.5 428 462.5>
LayerCount: 2
Fore
SplineSet
261 446 m 0
 261 479 291 506 329 506 c 0
 369 506 394 476 394 445 c 0
 394 411 362 387 330 387 c 0
 288 387 261 416 261 446 c 0
205 8 m 1
 275 258 l 1
 371 258 l 1
 269 8 l 1
 205 8 l 1
EndSplineSet
EndChar

StartChar: seven
Encoding: 55 55 213
Width: 600
Flags: HMW
HStem: 0 21G<246 246 246 307> 551 56<155 442 155 155>
VStem: 99 56<459 551 459 607>
LayerCount: 2
Fore
SplineSet
246 0 m 1
 442 551 l 1
 155 551 l 1
 155 459 l 1
 99 459 l 1
 99 607 l 1
 500 607 l 1
 500 548 l 1
 307 0 l 1
 246 0 l 1
EndSplineSet
EndChar

StartChar: six
Encoding: 54 54 214
Width: 600
Flags: HMW
HStem: -15 59<258.5 349.5 258.5 361> 321 62<276 342> 565 57<406.5 488>
VStem: 102 58<297 408 297 408> 438 60<161 229>
LayerCount: 2
Fore
SplineSet
163 215 m 1
 167 138 215 44 302 44 c 0
 397 44 438 132 438 190 c 0
 438 268 378 321 306 321 c 0
 241 321 190 270 163 215 c 1
160 297 m 1
 189 337 237 383 315 383 c 0
 425 383 498 291 498 192 c 0
 498 85 413 -15 309 -15 c 0
 195 -15 102 71 102 277 c 0
 102 539 239 622 488 622 c 1
 488 565 l 1
 325 565 160 519 160 297 c 1
EndSplineSet
EndChar

StartChar: slash
Encoding: 47 47 215
Width: 600
Flags: HMW
HStem: -80 709<165 435>
VStem: 125 350
LayerCount: 2
Fore
SplineSet
125 -62 m 1
 435 629 l 1
 475 610 l 1
 165 -80 l 1
 125 -62 l 1
EndSplineSet
EndChar

StartChar: sterling
Encoding: 163 163 217
Width: 600
Flags: HMW
HStem: -21 58<416 426.5> 10 57<269.5 284 269.5 304.5> 275 58<81 170 81 186 81 170 238 238 238 443> 554 57<289.5 353.5>
VStem: 145 54<419 469 416.5 482> 197 53
LayerCount: 2
Fore
SplineSet
118 31 m 1
 167 79 197 137 197 204 c 0
 197 227 194 251 186 275 c 1
 81 275 l 1
 81 333 l 1
 170 333 l 1
 153 366 145 402 145 436 c 0
 145 528 210 611 329 611 c 0
 419 611 476 555 503 499 c 1
 450 469 l 1
 425 518 379 554 328 554 c 0
 251 554 199 510 199 428 c 0
 199 405 209 357 220 333 c 1
 443 333 l 1
 443 275 l 1
 238 275 l 1
 248 243 251 214 250 185 c 0
 248 140 224 96 181 42 c 1
 184 42 l 1
 221 62 255 67 284 67 c 0
 343 66 387 36 416 37 c 0
 451 37 480 58 497 70 c 1
 518 24 l 1
 487 -3 448 -21 405 -21 c 0
 370 -21 335 10 274 10 c 0
 240 10 198 4 142 -21 c 1
 118 31 l 1
EndSplineSet
EndChar

StartChar: t
Encoding: 116 116 218
Width: 600
Flags: HMW
HStem: -15 55<284 347> 376 55<78 150 78 150 78 204 204 452> 541 20G<150 204 204 204>
VStem: 150 54<116 140 140 376 431 561>
LayerCount: 2
Fore
SplineSet
78 376 m 1
 78 431 l 1
 150 431 l 1
 150 561 l 1
 204 561 l 1
 204 431 l 1
 452 431 l 1
 452 376 l 1
 204 376 l 1
 204 140 l 2
 204 58 245 40 321 40 c 0
 389 40 463 75 515 95 c 1
 521 41 l 1
 458 14 384 -15 310 -15 c 0
 258 -15 150 3 150 116 c 2
 150 376 l 1
 78 376 l 1
EndSplineSet
EndChar

StartChar: thorn
Encoding: 338 254 219
Width: 600
Flags: HMW
HStem: -157 53<19 107 163 324 19 107> 26 54<301.5 398.5 296.5 413> 413 54<309 412 309 416> 576 53<19 107 19 163>
VStem: 107 56<-104 105 386 576 576 576> 522 58<196 276.5>
LayerCount: 2
Fore
SplineSet
166 248 m 0
 166 148 248 80 345 80 c 0
 452 80 522 143 522 249 c 0
 522 304 485 413 347 413 c 0
 235 413 166 335 166 248 c 0
19 -104 m 1
 107 -104 l 1
 107 576 l 1
 19 576 l 1
 19 629 l 1
 163 629 l 1
 163 386 l 1
 200 431 264 467 354 467 c 0
 470 467 580 378 580 250 c 0
 580 121 477 26 349 26 c 0
 254 26 195 66 163 105 c 1
 163 -104 l 1
 324 -104 l 1
 324 -157 l 1
 19 -157 l 1
 19 -104 l 1
EndSplineSet
EndChar

StartChar: three
Encoding: 51 51 220
Width: 600
Flags: HMW
HStem: -15 52<255 323.5 255 337> 271 59<247 250> 562 60<260.5 317>
VStem: 407 62<434 500> 437 58<117 206>
LayerCount: 2
Fore
SplineSet
104 27 m 1
 125 84 l 1
 167 54 227 37 283 37 c 0
 364 37 437 74 437 160 c 0
 437 252 318 270 247 271 c 1
 247 330 l 1
 250 330 l 2
 341 330 407 407 407 461 c 0
 407 539 350 562 284 562 c 0
 237 562 184 543 143 508 c 1
 114 559 l 1
 163 595 228 622 290 622 c 0
 379 622 469 574 469 463 c 0
 469 388 412 327 369 308 c 1
 407 302 495 267 495 158 c 0
 495 33 392 -15 282 -15 c 0
 219 -15 153 0 104 27 c 1
EndSplineSet
EndChar

StartChar: threequarters
Encoding: 339 190 221
Width: 600
Flags: HMW
HStem: -56 21G<86 86> -41 55<398 457 509 558 398 457> 65 54<377 457 377 457 377 509 509 558> 298 55<104 141 102 155.5> 614 52<106.5 138>
VStem: 176 54<546 580.5> 197 52<387.5 430> 457 52<14 65 14 65 119 235 235 235>
LayerCount: 2
Fore
SplineSet
7 327 m 1
 21 383 l 1
 41 362 83 353 121 353 c 0
 161 353 197 370 197 405 c 0
 197 455 131 455 83 455 c 1
 83 508 l 1
 151 506 176 529 176 563 c 0
 176 598 152 614 124 614 c 0
 89 614 47 599 31 576 c 1
 11 628 l 1
 41 650 83 666 123 666 c 0
 184 666 230 626 230 562 c 0
 230 528 219 508 198 490 c 1
 226 476 249 458 249 405 c 0
 249 338 187 298 124 298 c 0
 84 298 36 312 7 327 c 1
43 -25 m 1
 549 666 l 1
 592 635 l 1
 86 -56 l 1
 43 -25 l 1
377 119 m 1
 457 119 l 1
 457 235 l 1
 377 119 l 1
310 65 m 1
 310 104 l 1
 448 313 l 1
 509 313 l 1
 509 119 l 1
 558 119 l 1
 558 65 l 1
 509 65 l 1
 509 14 l 1
 558 14 l 1
 558 -41 l 1
 398 -41 l 1
 398 14 l 1
 457 14 l 1
 457 65 l 1
 310 65 l 1
EndSplineSet
EndChar

StartChar: threesuperior
Encoding: 340 179 222
Width: 600
Flags: HMW
HStem: 240 55<275.5 310 270.5 328.5> 566 56<280 309.5>
VStem: 351 56<508.5 532> 367 58<331 376>
LayerCount: 2
Fore
SplineSet
174 270 m 1
 189 327 l 1
 211 307 252 295 289 295 c 0
 331 295 367 311 367 351 c 0
 367 401 303 404 253 403 c 1
 253 457 l 1
 323 455 351 480 351 514 c 0
 351 550 325 566 294 566 c 0
 266 566 225 556 200 535 c 1
 177 581 l 1
 209 605 254 622 297 622 c 0
 364 622 407 575 407 524 c 0
 407 493 399 461 373 438 c 1
 401 424 425 406 425 351 c 0
 425 280 361 240 296 240 c 0
 255 240 205 255 174 270 c 1
EndSplineSet
EndChar

StartChar: tilde
Encoding: 196 732 223
Width: 600
Flags: HMW
HStem: 489 49<358 370 358 401> 556 50<200.5 232>
LayerCount: 2
Fore
SplineSet
101 504 m 1
 123 569 175 606 226 606 c 0
 266 606 289 583 312 564 c 0
 329 550 346 538 370 538 c 0
 411 539 440 577 449 602 c 1
 499 592 l 1
 480 536 432 489 370 489 c 0
 332 489 309 503 289 518 c 0
 265 536 247 556 217 556 c 0
 181 556 156 507 152 493 c 1
 101 504 l 1
EndSplineSet
EndChar

StartChar: trademark
Encoding: 341 8482 224
Width: 600
Flags: HMW
HStem: 263 21G<124 124 124 169 280 280 280 324 388 388 388 445 506 506 506 550> 518 44<49 124 49 245 169 169 169 245>
VStem: 124 45<263 518 263 518> 280 44<263 523 263 562 263 562> 506 44<263 522 522 522>
LayerCount: 2
Fore
SplineSet
124 263 m 1
 124 518 l 1
 49 518 l 1
 49 562 l 1
 245 562 l 1
 245 518 l 1
 169 518 l 1
 169 263 l 1
 124 263 l 1
280 263 m 1
 280 562 l 1
 361 562 l 1
 415 330 l 1
 468 562 l 1
 550 562 l 1
 550 263 l 1
 506 263 l 1
 506 522 l 1
 445 263 l 1
 388 263 l 1
 324 523 l 1
 324 263 l 1
 280 263 l 1
EndSplineSet
EndChar

StartChar: two
Encoding: 50 50 225
Width: 600
Flags: HMW
HStem: 0 55<99 99 177 442> 430 20G<121 175 121 121> 564 58<271 351>
VStem: 440 60<388 472>
LayerCount: 2
Fore
SplineSet
99 0 m 1
 99 55 l 1
 172 117 246 186 319 249 c 0
 348 274 440 350 440 426 c 0
 440 518 392 564 310 564 c 0
 232 564 175 521 175 450 c 1
 121 450 l 1
 121 509 l 1
 163 585 227 622 311 622 c 0
 420 622 500 557 500 426 c 0
 500 314 394 231 177 55 c 1
 442 55 l 1
 442 144 l 1
 500 144 l 1
 500 0 l 1
 99 0 l 1
EndSplineSet
EndChar

StartChar: twosuperior
Encoding: 342 178 226
Width: 600
Flags: HMW
HStem: 249 55<259 423 259 423> 568 54<288 325>
VStem: 191 52<492 546> 371 52<474 518.5>
LayerCount: 2
Fore
SplineSet
176 249 m 1
 176 301 l 1
 232 346 371 447 371 501 c 0
 371 536 346 568 304 568 c 0
 272 568 235 548 243 492 c 1
 191 492 l 1
 191 546 l 1
 214 611 261 622 304 622 c 0
 384 622 423 567 423 509 c 0
 423 437 376 397 259 304 c 1
 423 304 l 1
 423 249 l 1
 176 249 l 1
EndSplineSet
EndChar

StartChar: u
Encoding: 117 117 227
Width: 600
Flags: HMW
HStem: -15 53<242.5 287.5> -3 54<488 570 488 570 435 570> 372 54<29 165 29 112 352 435>
VStem: 112 53<125 152 152 372 372 372> 435 53<51 73 73 73 151 372 372 372>
LayerCount: 2
Fore
SplineSet
29 372 m 1
 29 426 l 1
 165 426 l 1
 165 152 l 2
 165 80 206 38 279 38 c 0
 339 38 394 102 435 151 c 1
 435 372 l 1
 352 372 l 1
 352 426 l 1
 488 426 l 1
 488 51 l 1
 570 51 l 1
 570 -3 l 1
 435 -3 l 1
 435 73 l 1
 359 1 307 -15 268 -15 c 0
 180 -15 112 35 112 125 c 2
 112 372 l 1
 29 372 l 1
EndSplineSet
EndChar

StartChar: uacute
Encoding: 343 250 228
Width: 600
Flags: HMW
HStem: -15 54<241.5 287> -3 55<487 570 487 570 434 570> 381 55<29 165 29 112 351 434>
VStem: 112 53<129 156 156 381 381 381> 434 53<52 75 75 75 145 381 381 381>
LayerCount: 2
Fore
SplineSet
29 381 m 1
 29 436 l 1
 165 436 l 1
 165 156 l 2
 165 82 205 39 278 39 c 0
 342 39 394 94 434 145 c 1
 434 381 l 1
 351 381 l 1
 351 436 l 1
 487 436 l 1
 487 52 l 1
 570 52 l 1
 570 -3 l 1
 434 -3 l 1
 434 75 l 1
 358 1 307 -15 267 -15 c 0
 180 -15 112 36 112 129 c 2
 112 381 l 1
 29 381 l 1
173 494 m 1
 161 526 l 1
 427 672 l 1
 460 598 l 1
 173 494 l 1
EndSplineSet
EndChar

StartChar: ucircumflex
Encoding: 344 251 229
Width: 600
Flags: HMW
HStem: -15 54<241.5 287> -3 55<487 570 487 570 434 570> 381 55<29 165 29 112 351 434>
VStem: 112 53<129 156 156 381 381 381> 434 53<52 75 75 75 145 381 381 381>
LayerCount: 2
Fore
SplineSet
29 381 m 1
 29 436 l 1
 165 436 l 1
 165 156 l 2
 165 82 205 39 278 39 c 0
 342 39 394 94 434 145 c 1
 434 381 l 1
 351 381 l 1
 351 436 l 1
 487 436 l 1
 487 52 l 1
 570 52 l 1
 570 -3 l 1
 434 -3 l 1
 434 75 l 1
 358 1 307 -15 267 -15 c 0
 180 -15 112 36 112 129 c 2
 112 381 l 1
 29 381 l 1
108 507 m 1
 256 664 l 1
 335 664 l 1
 482 507 l 1
 441 489 l 1
 295 608 l 1
 148 489 l 1
 108 507 l 1
EndSplineSet
EndChar

StartChar: udieresis
Encoding: 345 252 230
Width: 600
Flags: HMW
HStem: -15 54<241.5 287> -3 55<487 570 487 570 434 570> 381 55<29 165 29 112 351 434> 528 117<174 259 174 259 174 322 322 403>
VStem: 112 53<129 156 156 381 381 381> 174 85<528 645 528 645> 322 81<528 645 528 645> 434 53<52 75 75 75 145 381 381 381>
LayerCount: 2
Fore
SplineSet
29 381 m 1
 29 436 l 1
 165 436 l 1
 165 156 l 2
 165 82 205 39 278 39 c 0
 342 39 394 94 434 145 c 1
 434 381 l 1
 351 381 l 1
 351 436 l 1
 487 436 l 1
 487 52 l 1
 570 52 l 1
 570 -3 l 1
 434 -3 l 1
 434 75 l 1
 358 1 307 -15 267 -15 c 0
 180 -15 112 36 112 129 c 2
 112 381 l 1
 29 381 l 1
174 528 m 1
 174 645 l 1
 259 645 l 1
 259 528 l 1
 174 528 l 1
322 528 m 1
 322 645 l 1
 403 645 l 1
 403 528 l 1
 322 528 l 1
EndSplineSet
EndChar

StartChar: ugrave
Encoding: 346 249 231
Width: 600
Flags: HMW
HStem: -15 54<241.5 287> -3 55<487 570 487 570 434 570> 381 55<29 165 29 112 351 434>
VStem: 112 53<129 156 156 381 381 381> 434 53<52 75 75 75 145 381 381 381>
LayerCount: 2
Fore
SplineSet
29 381 m 1
 29 436 l 1
 165 436 l 1
 165 156 l 2
 165 82 205 39 278 39 c 0
 342 39 394 94 434 145 c 1
 434 381 l 1
 351 381 l 1
 351 436 l 1
 487 436 l 1
 487 52 l 1
 570 52 l 1
 570 -3 l 1
 434 -3 l 1
 434 75 l 1
 358 1 307 -15 267 -15 c 0
 180 -15 112 36 112 129 c 2
 112 381 l 1
 29 381 l 1
152 596 m 1
 186 672 l 1
 450 524 l 1
 439 493 l 1
 152 596 l 1
EndSplineSet
EndChar

StartChar: underscore
Encoding: 95 95 232
Width: 600
Flags: HMW
HStem: -125 50<0 600 0 600>
VStem: 0 600<-125 -75 -125 -75>
LayerCount: 2
Fore
SplineSet
0 -75 m 1
 600 -75 l 1
 600 -125 l 1
 0 -125 l 1
 0 -75 l 1
EndSplineSet
EndChar

StartChar: v
Encoding: 118 118 233
Width: 600
Flags: HMW
HStem: -10 21G<266 266 266 331> 371 55<15 88 15 227 151 151 151 227 372 446 508 508 508 585>
VStem: 15 212<371 426 371 426> 372 213<371 426 371 426>
LayerCount: 2
Fore
SplineSet
266 -10 m 1
 88 371 l 1
 15 371 l 1
 15 426 l 1
 227 426 l 1
 227 371 l 1
 151 371 l 1
 299 54 l 1
 446 371 l 1
 372 371 l 1
 372 426 l 1
 585 426 l 1
 585 371 l 1
 508 371 l 1
 331 -10 l 1
 266 -10 l 1
EndSplineSet
EndChar

StartChar: w
Encoding: 119 119 234
Width: 600
Flags: HMW
HStem: -10 21G<157 157 157 220 381 381 381 443> 371 55<13 47 13 178 103 103 103 178 426 493 550 550 550 586>
VStem: 13 165<371 426 371 426> 426 160<371 426 371 426>
LayerCount: 2
Fore
SplineSet
157 -10 m 1
 47 371 l 1
 13 371 l 1
 13 426 l 1
 178 426 l 1
 178 371 l 1
 103 371 l 1
 191 69 l 1
 277 351 l 1
 324 351 l 1
 411 67 l 1
 493 371 l 1
 426 371 l 1
 426 426 l 1
 586 426 l 1
 586 371 l 1
 550 371 l 1
 443 -10 l 1
 381 -10 l 1
 301 253 l 1
 220 -10 l 1
 157 -10 l 1
EndSplineSet
EndChar

StartChar: x
Encoding: 120 120 235
Width: 600
Flags: HMW
HStem: 0 54<20 93 20 93 165 237 361 433 504 580> 372 54<37 117 37 236 186 186 186 236 368 411 480 480 480 556>
VStem: 37 199<372 426 372 426> 368 188<372 426 372 426>
LayerCount: 2
Fore
SplineSet
20 0 m 1
 20 54 l 1
 93 54 l 1
 265 225 l 1
 117 372 l 1
 37 372 l 1
 37 426 l 1
 236 426 l 1
 236 372 l 1
 186 372 l 1
 298 259 l 1
 411 372 l 1
 368 372 l 1
 368 426 l 1
 556 426 l 1
 556 372 l 1
 480 372 l 1
 332 224 l 1
 504 54 l 1
 580 54 l 1
 580 0 l 1
 361 0 l 1
 361 54 l 1
 433 54 l 1
 299 189 l 1
 165 54 l 1
 237 54 l 1
 237 0 l 1
 20 0 l 1
EndSplineSet
EndChar

StartChar: y
Encoding: 121 121 236
Width: 600
Flags: HMW
HStem: -157 51<53 165 226 315 53 165> 375 51<7 76 7 203 137 137 137 203 409 466 527 527 527 592>
VStem: 7 196<375 426 375 426> 53 262<-157 -106 -157 -106> 409 183<375 426 375 426>
LayerCount: 2
Fore
SplineSet
53 -106 m 1
 165 -106 l 1
 267 56 l 1
 76 375 l 1
 7 375 l 1
 7 426 l 1
 203 426 l 1
 203 375 l 1
 137 375 l 1
 297 106 l 1
 466 375 l 1
 409 375 l 1
 409 426 l 1
 592 426 l 1
 592 375 l 1
 527 375 l 1
 226 -106 l 1
 315 -106 l 1
 315 -157 l 1
 53 -157 l 1
 53 -106 l 1
EndSplineSet
EndChar

StartChar: yacute
Encoding: 347 253 237
Width: 600
Flags: HMW
HStem: -157 53<53 165 226 315 53 165> 395 53<7 76 7 203 137 137 137 203 409 466 527 527 527 592>
VStem: 7 196<395 448 395 448> 53 262<-157 -104 -157 -104> 409 183<395 448 395 448>
LayerCount: 2
Fore
SplineSet
53 -104 m 1
 165 -104 l 1
 268 63 l 1
 76 395 l 1
 7 395 l 1
 7 448 l 1
 203 448 l 1
 203 395 l 1
 137 395 l 1
 298 116 l 1
 466 395 l 1
 409 395 l 1
 409 448 l 1
 592 448 l 1
 592 395 l 1
 527 395 l 1
 226 -104 l 1
 315 -104 l 1
 315 -157 l 1
 53 -157 l 1
 53 -104 l 1
170 501 m 1
 158 531 l 1
 432 672 l 1
 466 600 l 1
 170 501 l 1
EndSplineSet
EndChar

StartChar: ydieresis
Encoding: 348 255 238
Width: 600
Flags: HMW
HStem: -157 50<53 165 226 315 53 165> 359 49<7 76 7 203 137 137 137 203 409 466 527 527 527 592> 483 112<171 258 171 258 171 325 325 410>
VStem: 7 196<359 408 359 408> 171 87<483 595 483 595> 325 85<483 595 483 595> 409 183<359 408 359 408>
LayerCount: 2
Fore
SplineSet
53 -107 m 1
 165 -107 l 1
 268 50 l 1
 76 359 l 1
 7 359 l 1
 7 408 l 1
 203 408 l 1
 203 359 l 1
 137 359 l 1
 298 98 l 1
 466 359 l 1
 409 359 l 1
 409 408 l 1
 592 408 l 1
 592 359 l 1
 527 359 l 1
 226 -107 l 1
 315 -107 l 1
 315 -157 l 1
 53 -157 l 1
 53 -107 l 1
171 483 m 1
 171 595 l 1
 258 595 l 1
 258 483 l 1
 171 483 l 1
325 483 m 1
 325 595 l 1
 410 595 l 1
 410 483 l 1
 325 483 l 1
EndSplineSet
EndChar

StartChar: yen
Encoding: 165 165 239
Width: 600
Flags: HMW
HStem: 0 54<168 276 168 276 330 437> 131 54<147 276 147 276 330 459> 255 55<147 264 147 276 147 264 338 459> 508 54<26 89 26 230 164 164 164 230 371 438 517 517 517 574>
VStem: 26 204<508 562 508 562> 276 54<54 131 54 131 185 255> 371 203<508 562 508 562>
LayerCount: 2
Fore
SplineSet
168 0 m 1
 168 54 l 1
 276 54 l 1
 276 131 l 1
 147 131 l 1
 147 185 l 1
 276 185 l 1
 276 255 l 1
 147 255 l 1
 147 310 l 1
 264 310 l 1
 89 508 l 1
 26 508 l 1
 26 562 l 1
 230 562 l 1
 230 508 l 1
 164 508 l 1
 301 357 l 1
 438 508 l 1
 371 508 l 1
 371 562 l 1
 574 562 l 1
 574 508 l 1
 517 508 l 1
 338 310 l 1
 459 310 l 1
 459 255 l 1
 330 255 l 1
 330 185 l 1
 459 185 l 1
 459 131 l 1
 330 131 l 1
 330 54 l 1
 437 54 l 1
 437 0 l 1
 168 0 l 1
EndSplineSet
EndChar

StartChar: z
Encoding: 122 122 240
Width: 600
Flags: HMW
HStem: 0 54<176 447 176 501> 372 54<166 422 166 166>
VStem: 112 54<275 372 275 426> 447 54<54 154 0 154>
LayerCount: 2
Fore
SplineSet
98 0 m 1
 98 51 l 1
 422 372 l 1
 166 372 l 1
 166 275 l 1
 112 275 l 1
 112 426 l 1
 501 426 l 1
 501 376 l 1
 176 54 l 1
 447 54 l 1
 447 154 l 1
 501 154 l 1
 501 0 l 1
 98 0 l 1
EndSplineSet
EndChar

StartChar: zcaron
Encoding: 349 382 241
Width: 600
Flags: HMW
HStem: 0 55<175 446 175 501> 384 55<166 426 166 166 111 501> 491 57<266 305 305 305 305 345>
VStem: 111 54<281 439> 446 55<55 157 0 157>
LayerCount: 2
Fore
SplineSet
98 0 m 1
 98 52 l 1
 426 384 l 1
 166 384 l 1
 165 281 l 1
 111 281 l 1
 111 439 l 1
 501 439 l 1
 501 384 l 1
 175 55 l 1
 446 55 l 1
 446 157 l 1
 501 157 l 1
 501 0 l 1
 98 0 l 1
266 491 m 1
 116 648 l 1
 157 668 l 1
 305 548 l 1
 451 669 l 1
 492 649 l 1
 345 491 l 1
 266 491 l 1
EndSplineSet
EndChar

StartChar: zero
Encoding: 48 48 242
Width: 600
Flags: HMW
HStem: -14 54<242 358 242 389.5> 567 55<242 357.5>
VStem: 106 57<237.5 365.5 237.5 372.5> 436 58<238.5 366>
LayerCount: 2
Fore
SplineSet
163 304 m 0
 163 171 185 40 299 40 c 0
 417 40 436 173 436 304 c 0
 436 428 413 567 302 567 c 0
 182 567 163 427 163 304 c 0
106 304 m 0
 106 441 129 622 302 622 c 0
 475 622 494 439 494 304 c 0
 494 158 478 -14 301 -14 c 0
 129 -14 106 155 106 304 c 0
EndSplineSet
EndChar
